<?xml version="1.0" encoding="UTF-8" standalone="no"?>
<svg width="135px" height="120px" viewBox="0 0 135 120" version="1.1" xmlns="http://www.w3.org/2000/svg" xmlns:xlink="http://www.w3.org/1999/xlink" xmlns:sketch="http://www.bohemiancoding.com/sketch/ns">
    <!-- Generator: Sketch 3.3.2 (12043) - http://www.bohemiancoding.com/sketch -->
    <title>icon_secure</title>
    <desc>Created with Sketch.</desc>
    <defs></defs>
    <g id="Page-1" stroke="none" stroke-width="1" fill="none" fill-rule="evenodd" sketch:type="MSPage">
        <g id="lantern_home_desktop" sketch:type="MSArtboardGroup" transform="translate(-913.000000, -1018.000000)" fill="#FFFFFF">
            <g id="icon_secure" sketch:type="MSLayerGroup" transform="translate(913.000000, 1018.000000)">
                <path d="M133.124969,102.227291 C129.781833,95.7658656 126.611487,89.2159674 123.213605,82.7843585 C121.483014,79.5101426 120.523992,75.7231772 117.132953,73.3556823 C119.641466,71.157556 119.946721,68.3767821 119.941589,65.4151527 C119.90835,46.6274542 119.880244,27.8407332 119.951609,9.05547862 C119.973116,3.72244399 116.329857,0.166924644 111.111935,0.189409369 C81.8803259,0.323828921 52.6516497,0.327983707 23.4234623,0.188676171 C18.0246843,0.163014257 14.4742974,3.87934827 14.5006925,9.14370672 C14.6070061,28.0963747 14.5571487,47.0475764 14.5305092,65.9997556 C14.5239104,68.7568228 15.0117312,71.2672912 17.0458656,73.1098167 C15.8712831,74.7406925 14.6153157,76.1017515 13.79389,77.687169 C9.89498982,85.2202851 6.30647658,92.9237475 2.22329939,100.349817 C-0.31185336,104.951853 -0.363177189,109.553401 0.53107943,114.433809 C0.985661914,116.923992 2.44912424,118.526029 4.72374745,119.311772 C5.99462322,119.75389 7.4096945,119.963829 8.7602444,119.963829 C47.7160081,119.999267 86.6685947,119.993401 125.620937,119.993401 C126.010998,119.993401 126.397393,120.000978 126.784033,119.986802 C130.611568,119.867536 133.259633,117.761792 133.973035,114.018574 C134.331324,112.134501 134.394379,110.18835 134.497271,108.268595 C134.613116,106.138167 134.120407,104.15389 133.124969,102.227291 L133.124969,102.227291 Z M19.1396334,9.26126273 C19.1396334,5.67763747 20.164888,4.67046843 23.8149898,4.67046843 C38.2856212,4.66973523 52.7596741,4.67046843 67.2337271,4.67046843 C81.7060692,4.67046843 96.1784114,4.66973523 110.649043,4.67046843 C114.292546,4.67046843 115.329287,5.68594705 115.329287,9.26370672 L115.329287,66.2715275 C115.329287,69.7911202 114.231202,70.8696538 110.645866,70.8696538 C81.7009369,70.870387 52.7562525,70.870387 23.8098574,70.8696538 C20.2196334,70.8696538 19.1396334,69.8043177 19.1396334,66.2688391 C19.1396334,47.2646029 19.1396334,28.2620774 19.1396334,9.26126273 L19.1396334,9.26126273 Z M125.909572,110.038534 C106.355193,110.043422 86.8010591,110.042933 67.2501018,110.042933 C47.8054582,110.042933 28.3608147,109.969857 8.91763747,110.103544 C5.2494501,110.128473 3.49075356,107.757312 5.29588595,104.301507 C9.57482688,96.0975153 13.6626477,87.7960081 17.8753564,79.5541344 C19.260611,76.8432587 21.6083096,75.6180855 24.6244399,75.6180855 L71.3547862,75.6180855 C84.0601222,75.6180855 96.7622811,75.6381263 109.467617,75.6046436 C112.97499,75.597556 115.380611,77.0649287 116.960163,80.2477393 C120.990061,88.391609 125.149491,96.4721792 129.242444,104.585988 C130.876741,107.830387 129.523014,110.038534 125.909572,110.038534 L125.909572,110.038534 Z" id="Shape" sketch:type="MSShapeGroup"></path>
                <path d="M83.7881059,93.8106721 C83.409776,92.1829735 82.4641955,91.4048065 80.7419145,91.4101833 C71.7362933,91.4431772 62.7323829,91.4417108 53.7284725,91.4101833 C52.0127902,91.4067617 51.0540122,92.167332 50.6791039,93.8030957 C50.088391,96.3788187 49.4910794,98.9520978 48.8673727,101.519756 C48.1639919,104.434949 48.7776782,105.245866 51.8121385,105.253442 C56.9472098,105.26444 62.0852138,105.255886 67.2237067,105.255886 C72.5261914,105.25442 77.8286762,105.279348 83.1345825,105.242444 C85.487169,105.227536 86.2587373,104.219878 85.7362118,101.999022 C85.0956415,99.2676171 84.4252546,96.5415886 83.7881059,93.8106721 L83.7881059,93.8106721 Z" id="Shape" sketch:type="MSShapeGroup"></path>
                <path d="M60.1459063,35.9254582 C60.2571079,35.9403666 60.3863951,35.9743381 60.5142159,35.9743381 C64.9158452,35.9777597 69.7422403,35.9726273 74.1438697,35.9860692 C74.1438697,35.9860692 74.2352749,35.829165 74.2318534,35.4403259 C74.2167006,33.0371487 74.2416293,30.6312831 74.2184114,28.2273727 C74.1785743,24.0464358 71.275112,21.001222 67.2601222,20.8983299 C63.6266395,20.8037475 60.4113238,23.5520163 60.1789002,27.1889206 C59.9997556,30.0466802 60.1024033,32.9220367 60.0826069,35.7905499 C60.0828513,35.8235438 60.112668,35.8582485 60.1459063,35.9254582 L60.1459063,35.9254582 Z" id="Shape" sketch:type="MSShapeGroup"></path>
                <path d="M27.4250102,67.5819959 C53.9359674,67.5861507 80.4466802,67.5861507 106.955927,67.5819959 C110.864603,67.5819959 112.629898,65.8264766 112.629898,61.9527495 L112.629898,13.5741752 C112.629898,9.6909165 110.879756,7.95812627 106.949328,7.95812627 C93.7493279,7.95739308 80.5481059,7.95739308 67.3515275,7.95739308 C54.0405703,7.95739308 40.7313238,7.95739308 27.421833,7.95812627 C23.6226477,7.95812627 21.8373116,9.72830957 21.8373116,13.496945 L21.8373116,62.0421996 C21.8373116,65.8142566 23.6192261,67.5819959 27.4250102,67.5819959 L27.4250102,67.5819959 Z M49.8596334,38.3420774 C49.8596334,36.7278208 50.5828106,35.9960896 52.1907128,35.9802037 C52.7083503,35.9736049 52.6401629,35.9777597 53.2276986,35.9777597 C53.2276986,35.6766599 53.8152342,35.4493686 53.8152342,35.2228106 L53.8152342,27.487332 C53.8152342,20.8369857 58.81222,15.1451731 65.3921792,14.2958859 C72.7419959,13.3468839 79.4864358,18.5555193 80.39389,25.8896945 C80.4552342,26.3882688 80.4735642,26.8941752 80.4735642,27.3976375 C80.4818737,29.9948676 80.4769857,32.5930754 80.4769857,35.1912831 C80.4769857,35.4217515 81.0410591,35.6507536 81.0410591,35.9777597 C81.6051324,35.9777597 81.5569857,35.9743381 82.0697352,35.9794705 C83.7089206,35.9919348 84.434053,36.7234216 84.434053,38.3718941 L84.434053,57.5684725 C84.434053,59.163666 83.6891242,59.8985743 82.0797556,59.8985743 C72.1136456,59.8985743 62.1472912,59.8993075 52.1794705,59.8985743 C50.6033401,59.8985743 49.8601222,59.163666 49.8601222,57.5958452 C49.8579226,51.1776782 49.8579226,44.7602444 49.8596334,38.3420774 L49.8596334,38.3420774 Z" id="Shape" sketch:type="MSShapeGroup"></path>
            </g>
        </g>
    </g>
</svg>