<?xml version="1.0" encoding="UTF-8" standalone="no"?>
<svg width="60px" height="120px" viewBox="0 0 60 120" version="1.1" xmlns="http://www.w3.org/2000/svg" xmlns:xlink="http://www.w3.org/1999/xlink" xmlns:sketch="http://www.bohemiancoding.com/sketch/ns">
    <!-- Generator: Sketch 3.3.2 (12043) - http://www.bohemiancoding.com/sketch -->
    <title>icon_fast</title>
    <desc>Created with Sketch.</desc>
    <defs></defs>
    <g id="Page-1" stroke="none" stroke-width="1" fill="none" fill-rule="evenodd" sketch:type="MSPage">
        <g id="lantern_home_desktop" sketch:type="MSArtboardGroup" transform="translate(-153.000000, -1018.000000)" fill="#FFFFFF">
            <path d="M163.401681,1138 C163.042699,1138 162.679729,1137.92865 162.3336,1137.78018 C161.164029,1137.27672 160.501908,1136.0256 160.743444,1134.77581 L169.602311,1089.07259 L155.714601,1089.10007 L155.708839,1089.10007 C154.702361,1089.10007 153.778759,1088.54209 153.309424,1087.6504 C152.841862,1086.75605 152.907454,1085.67689 153.48404,1084.84769 L199.066718,1019.16559 C199.789999,1018.11878 201.14172,1017.71858 202.326802,1018.20609 C203.503464,1018.69226 204.18287,1019.93363 203.958617,1021.18785 L195.573074,1068.02209 L209.507762,1067.99373 L209.513967,1067.99373 C210.527536,1067.99373 211.45557,1068.55835 211.920473,1069.45934 C212.386706,1070.36167 212.308261,1071.4497 211.718823,1072.27624 L165.607866,1136.86455 C165.086235,1137.59404 164.257032,1138 163.401681,1138 L163.401681,1138 Z M172.8881,1083.64842 C173.69603,1083.64842 174.460971,1084.00873 174.975511,1084.63097 C175.491824,1085.25586 175.701895,1086.07797 175.547666,1086.87172 L168.430524,1123.5849 L204.2427,1073.42144 L192.341354,1073.44581 L192.335592,1073.44581 C191.53431,1073.44581 190.774244,1073.09259 190.258818,1072.47745 C189.744278,1071.86275 189.527116,1071.05039 189.668493,1070.25974 L196.436403,1032.45721 L160.892799,1083.67191 L172.881452,1083.64887 C172.883668,1083.64842 172.886771,1083.64842 172.8881,1083.64842 L172.8881,1083.64842 Z" id="icon_fast" sketch:type="MSShapeGroup"></path>
        </g>
    </g>
</svg>