<?xml version="1.0" encoding="UTF-8" standalone="no"?>
<svg width="90px" height="27px" viewBox="0 0 90 27" version="1.1" xmlns="http://www.w3.org/2000/svg" xmlns:xlink="http://www.w3.org/1999/xlink" xmlns:sketch="http://www.bohemiancoding.com/sketch/ns">
    <!-- Generator: Sketch 3.3.2 (12043) - http://www.bohemiancoding.com/sketch -->
    <title>vice</title>
    <desc>Created with Sketch.</desc>
    <defs></defs>
    <g id="Page-1" stroke="none" stroke-width="1" fill="none" fill-rule="evenodd" sketch:type="MSPage">
        <g id="lantern_home_desktop" sketch:type="MSArtboardGroup" transform="translate(-663.000000, -1678.000000)" fill="#FFFFFF">
            <g id="vice" sketch:type="MSLayerGroup" transform="translate(663.000000, 1678.000000)">
                <path d="M65.4341142,26.4921349 L63.5523667,26.4921349 C63.4272925,26.4639651 63.3010915,26.4188933 63.1748904,26.4110057 C61.6379423,26.3141013 60.0931065,26.2532544 58.6057373,25.8092972 C57.3696433,25.4397085 56.2834131,24.8853255 56.1324225,23.3596452 C55.9656569,23.4306333 55.8439631,23.4813391 55.7222692,23.5354252 C53.3852967,24.5709497 50.9931112,25.4374549 48.4679639,25.8870461 C45.5281561,26.4110057 42.606377,26.3693143 39.7251625,25.5230913 C37.965109,25.0058925 36.4214,24.1653035 35.5278517,22.449195 C35.5177105,22.432293 35.4816531,22.4277859 35.4591172,22.4176447 C35.4467224,22.4244055 35.4309473,22.4277859 35.4264401,22.4356734 C35.2946051,22.6903291 35.1593897,22.9438579 35.0331887,23.1985135 C34.1520351,24.9709619 32.7897401,26.0808548 30.7784113,26.3062138 C30.3536097,26.354666 29.9310616,26.4301612 29.5073867,26.4921349 L28.5259484,26.4921349 C28.4020009,26.4594579 28.2791803,26.4110057 28.1529793,26.3963574 C27.072383,26.2746635 26.0368585,26.0256419 25.0982384,25.4397085 C24.1731398,24.8627896 23.694252,24.0244542 23.7167879,22.9539991 C23.732563,22.1967929 23.8215798,21.4294456 23.9815847,20.6891414 C24.5337142,18.1223027 25.4802219,15.6805382 26.4470119,13.2489149 C26.4965908,13.1227139 26.5326483,12.9908789 26.5743397,12.8601707 C26.5281411,12.8342544 26.4808157,12.8072113 26.4346171,12.7801682 C25.9805188,13.3491996 25.5162793,13.9114703 25.0711953,14.489516 C22.2598421,18.1437118 19.0214337,21.3291609 14.9627186,23.5906382 C12.8206816,24.7827871 10.5930081,25.7709862 8.09941109,25.9557806 C7.08191533,26.0324026 6.0790679,25.9445126 5.17087124,25.4137922 C4.50718906,25.0261748 4.1466147,24.3760142 4.3223947,23.7055712 C4.43394739,23.2897839 4.68747624,22.8920253 4.95001944,22.5393385 C5.45369675,21.8643884 5.49538816,21.6424098 5.07284008,20.9190075 C4.68747624,20.2609593 4.28746406,19.6107987 3.91449496,18.9448629 C2.55107318,16.510986 1.34202229,14.0140086 0.871022035,11.2263181 C0.864261266,11.1823731 0.812428702,11.1463157 0.783132036,11.1068779 L0.783132036,8.73272108 C0.834964599,8.59975929 0.903699086,8.47130467 0.934122547,8.3338357 C1.15835473,7.32760788 1.61808703,6.44420071 2.29867113,5.67347302 C3.09869548,4.76414957 4.04632996,4.03173291 5.07847406,3.41312253 C7.28699199,2.08688497 9.64424685,1.10657344 12.1265759,0.422608958 C12.197564,0.403453445 12.2561573,0.344860112 12.3215114,0.304295497 L13.3040766,0.304295497 C14.746374,0.915018313 14.8184889,2.15561946 14.7114433,3.44692637 C14.658484,4.08243868 14.5142542,4.712317 14.3857996,5.33994174 C13.9970554,7.23183032 13.3852058,9.08090069 13.2635119,11.0257486 C13.2263277,11.6128088 13.1812559,12.1998689 13.1316769,12.8872137 C13.2837943,12.7666467 13.3491484,12.73735 13.3806986,12.6855175 C14.207766,11.3829426 14.9266612,10.062339 14.6720055,8.41383813 C14.3474886,6.30447815 15.1576541,4.84189841 17.0901073,3.94384291 C17.6197009,3.69932842 18.1729572,3.48861778 18.734101,3.32861291 C21.9195501,2.42266984 25.1511978,2.081251 28.4425656,2.60408381 C28.8831424,2.6739451 29.2223076,2.57478715 29.5704872,2.31111715 C31.0972943,1.15502562 32.8156564,0.768534981 34.7041646,1.06375524 C38.0507454,1.58546126 41.3522543,2.28294728 44.5422106,3.44805317 C44.9309548,3.59002932 45.3118115,3.75454137 45.715204,3.91567304 C45.5529456,4.19399137 45.424491,4.41484316 45.2960363,4.63569495 C45.2802612,4.64921649 45.2656129,4.66273803 45.2509645,4.67738636 C45.275754,4.67287918 45.3005435,4.668372 45.325333,4.66386483 C46.2200081,4.17821624 47.1090493,3.6824265 48.0104852,3.21142625 C50.4691516,1.92575331 53.0123276,0.881214467 55.7853697,0.490216649 C56.1391833,0.440637675 56.4884897,0.367396009 56.8411765,0.304295497 L58.6406679,0.304295497 C58.6834861,0.330211779 58.7251775,0.377537163 58.7691225,0.380917548 C60.1100084,0.484582675 61.4058225,0.789944083 62.6700863,1.24178882 C62.8154429,1.29474818 62.9934765,1.29700177 63.150101,1.27671946 C66.7716197,0.805719211 70.3863776,0.972484851 73.9932479,1.42545639 C79.1381933,2.07110984 84.1941218,3.19001714 89.2477968,4.31343162 L89.2477968,4.47794367 C89.208359,4.50949393 89.1565264,4.53541021 89.1294833,4.57597483 C87.532815,6.96365314 85.4876823,8.83075223 82.8566163,10.0285352 C82.7146402,10.0927625 82.5816784,10.1750185 82.4058984,10.2685425 C82.5771712,10.3947435 82.6954847,10.4815067 82.8126713,10.5705235 C83.4425497,11.0494113 83.7434039,11.6905576 83.7512915,12.4770604 C83.7614326,13.6556878 83.243107,14.5717721 82.3450515,15.2985548 C82.0768743,15.5137726 81.8109507,15.7323708 81.4515031,16.0242106 C81.9022211,16.0242106 82.2312452,15.9937872 82.5512549,16.033225 C82.885913,16.0737896 83.2239515,16.1515385 83.5417076,16.2664715 C84.4927225,16.6090172 84.9738639,17.3966468 84.8859739,18.4040014 C84.7935767,19.4631886 84.3541267,20.3702584 83.6622747,21.1590148 C82.5422406,22.4356734 81.095436,23.234571 79.5303179,23.7867005 C75.5121674,25.2042084 71.3486604,25.953527 67.1130385,26.3343836 C66.5530215,26.3839626 65.9941312,26.4391756 65.4341142,26.4921349 L65.4341142,26.4921349 Z M43.2700592,4.44188624 C43.1821692,4.39343406 43.1382242,4.35850342 43.0875184,4.34160149 C40.55223,3.53143599 37.9684893,2.92071317 35.3520717,2.43055741 C33.2911639,2.04293997 31.4240648,2.31787792 29.8307768,3.80412034 C29.6628844,3.96187163 29.3282263,4.01257739 29.0769511,3.99680227 C27.8679002,3.92130701 26.6611029,3.76242893 25.4509252,3.71172317 C22.8728185,3.60242406 20.3634464,3.95173047 17.9802752,4.99964969 C16.2258556,5.77150418 15.7661233,6.54110507 16.0793723,8.43750082 C16.3058581,9.80655658 16.05909,11.0505381 15.3266733,12.1908545 C14.6934146,13.1756732 13.9970554,14.1210541 13.2973158,15.060801 C13.0528013,15.3886983 12.7519471,15.8135 12.2696789,15.648988 C11.7851571,15.4856027 11.7569872,14.9593895 11.7502264,14.5345878 C11.7321977,13.5013169 11.66459,12.4500173 11.813327,11.4347752 C12.0860113,9.56316889 12.5232077,7.71409852 12.8443443,5.84925302 C13.0246314,4.80471418 13.1778755,3.7477806 13.2206937,2.68972022 C13.2556244,1.80969344 12.7384255,1.45024587 11.9091045,1.7285642 C9.54959608,2.5195742 7.25994891,3.4627015 5.2441129,4.96809944 C2.82601112,6.77322481 1.84231921,9.1440012 2.5251569,12.1052181 C3.12235817,14.6990999 4.26492817,17.0563547 5.85483572,19.197265 C6.26724264,19.7550284 6.66049405,20.328567 7.00980045,20.9280219 C7.33093699,21.476771 7.2622025,22.0176325 6.81599174,22.5066615 C6.52302507,22.827798 6.23794597,23.1635829 5.9911779,23.5207769 C5.64299828,24.0233274 5.75455098,24.3782678 6.35175225,24.4684114 C7.05937943,24.5743301 7.79179609,24.6250358 8.50167685,24.5698229 C10.0487662,24.4515094 11.456133,23.8407866 12.8308227,23.1624561 C17.02588,21.0936607 20.497535,18.1155419 23.4610055,14.5458558 C24.886401,12.8263668 26.1585524,10.9806768 27.5028186,9.19470697 C27.5873283,9.08315428 27.6853594,8.98174274 27.8036729,8.84314698 C27.8667734,8.96484082 27.9028308,9.02118056 27.9242399,9.08315428 C27.9681849,9.2116089 28.0087495,9.3423171 28.0402998,9.47527889 C28.467355,11.254488 28.3558024,12.9818645 27.6121177,14.6731836 C27.1028065,15.8326555 26.6396938,17.0146633 26.1946098,18.2011783 C25.6841717,19.5555857 25.2481021,20.9347827 25.1658461,22.393982 C25.0903508,23.7596574 25.6706502,24.5236243 26.995761,24.843634 C28.0718501,25.1050505 29.1558267,25.0543447 30.2488177,24.9844834 C31.6877348,24.893213 32.7221325,24.1822055 33.5390587,23.0430159 C34.4652841,21.7483286 35.2157295,20.3646245 35.8095504,18.8907768 C35.8636365,18.757815 35.9233567,18.6271068 35.9808232,18.4952718 C36.0281486,18.5009058 36.075474,18.5065397 36.1227994,18.5121737 C36.1227994,18.8175351 36.1171654,19.1217697 36.1239261,19.4271311 C36.1588568,21.2807087 36.9904314,22.6621592 38.6163964,23.5466932 C39.0930306,23.805856 39.5944543,24.0357221 40.1093996,24.2058682 C42.6875062,25.0543447 45.3275866,25.1433615 47.9913297,24.7467297 C51.2049486,24.2689687 54.1717995,23.1072432 56.948222,21.4418404 C57.0597747,21.3742327 57.1780882,21.3156393 57.2975284,21.2502852 C57.3234447,21.3190197 57.343727,21.344936 57.3414734,21.3685987 C57.3189375,21.6266347 57.2941481,21.8835439 57.2682318,22.14158 C57.1228752,23.5669755 57.656976,24.4346075 59.0327925,24.8177178 C59.7494341,25.0171605 60.5032598,25.107304 61.2458176,25.1839261 C63.985056,25.4667516 66.7197871,25.370974 69.4466307,25.0273016 C72.9960345,24.579964 76.4440268,23.7472626 79.7308874,22.3151064 C80.8475411,21.828331 81.9168694,21.2536656 82.7642192,20.3454689 C83.2600089,19.8136218 83.5642435,19.2107865 83.4526908,18.4569608 C83.3704348,17.9048313 83.0797217,17.4935511 82.5185779,17.4045344 C82.0554652,17.3301659 81.5551683,17.2817137 81.1033235,17.3752377 C79.156222,17.7831374 77.2181348,18.2316018 75.2834281,18.6924609 C73.317171,19.1600808 71.350914,19.6626313 69.3102885,19.4305115 C68.5519555,19.3448751 67.7879886,19.1206429 67.082615,18.8276763 C66.3693539,18.5335828 66.3141409,17.9386351 66.8730312,17.3943932 C67.1028973,17.170161 67.3778353,16.9594504 67.6719288,16.8388833 C68.1203931,16.654089 68.5970273,16.4647874 69.0736616,16.4276032 C70.9069568,16.2845003 72.7436324,16.1729476 74.5803081,16.1042131 C76.2457109,16.0422394 77.9066065,15.9813924 79.507782,15.4574328 C80.3325958,15.1870021 81.1157183,14.8320617 81.6870033,14.1458436 C82.2526543,13.4663863 82.4205467,12.6810103 82.1264533,11.8460553 C81.8458813,11.0460309 81.1495221,10.7823609 80.3889356,10.688837 C79.9066674,10.6291168 79.3984829,10.5693967 78.9252291,10.6505259 C77.316166,10.9232103 75.7127369,11.24322 74.1126882,11.5733709 C72.707575,11.864084 71.3080958,12.1581775 69.8612912,11.9361989 C69.2021162,11.8359141 69.0376041,11.5260455 69.3193028,10.9063084 C69.9086166,9.60711389 70.7649807,9.06625236 72.1960101,9.14850838 C73.4208361,9.21836967 74.641155,9.37499415 75.8648542,9.41781236 C77.2248956,9.46626454 78.5916978,9.51471671 79.9461052,9.41330518 C82.5151975,9.22287685 84.5366675,7.89663929 86.2865799,6.09827469 C86.5840537,5.79291328 86.8533577,5.46050879 87.1801282,5.09317367 C86.0307975,4.86556111 84.9772443,4.65710406 83.9225643,4.44752021 C78.5454992,3.37368471 73.1571661,2.388866 67.6572804,2.213086 C66.2363921,2.1680142 64.8177574,2.17026779 63.4689839,2.71563651 C62.6182538,3.05930894 61.9264017,3.59228291 61.5477987,4.45428098 C61.2728607,5.07739854 61.3956814,5.56642751 61.9444305,5.96643969 C62.2047201,6.15686802 62.5010671,6.32025328 62.8053017,6.42729879 C63.4205317,6.64702379 64.0526636,6.81716981 64.676908,7.01210532 C64.7895875,7.04703596 64.8977598,7.09886853 65.0093125,7.14394032 C65.0014249,7.17549058 64.9924106,7.20704083 64.984523,7.23859109 C63.2413713,7.60367263 61.4982197,7.96762737 59.6592905,8.35186442 C59.8767619,7.84593352 60.0424007,7.45944288 60.21142,7.07520583 C60.7556619,5.82333674 61.2773679,4.56358008 61.5106144,3.20917266 C61.6244207,2.55225125 61.4418799,2.18153574 60.821016,1.95279638 C60.4041019,1.79955228 59.9545107,1.69250677 59.5128071,1.65419574 C57.4057007,1.47052818 55.3470465,1.78265036 53.3424785,2.41816266 C48.9840359,3.79848637 45.116876,6.08587994 41.5550774,8.91751544 C41.0390053,9.32879556 40.546596,9.76937235 40.0440455,10.1964276 C40.0158756,10.1761453 39.9899593,10.155863 39.9617895,10.1344539 C40.8395627,8.12537865 41.996781,6.27518148 43.2700592,4.44188624 L43.2700592,4.44188624 Z M74.9724327,17.2805869 C72.9577235,17.3110104 70.9407607,17.3470678 68.9576017,17.7696159 C70.9948468,18.0220179 72.9994149,17.8541255 74.9724327,17.2805869 L74.9724327,17.2805869 Z" id="Fill-151" sketch:type="MSShapeGroup"></path>
                <path d="M45.325333,4.66386483 C45.3005435,4.668372 45.275754,4.67287918 45.2509645,4.67738636 C45.2656129,4.66273803 45.2802612,4.64921649 45.2960363,4.63569495 C45.3050507,4.64583611 45.3151919,4.65485047 45.325333,4.66386483" id="Fill-152" sketch:type="MSShapeGroup"></path>
                <path d="M52.1739922,7.99917762 C51.4122789,10.3215018 50.6516923,12.6449528 49.8674431,15.033758 C50.5153502,14.978545 51.1080443,14.9357268 51.697358,14.8782603 C53.1069783,14.7407913 54.5154719,14.5898008 55.9262191,14.4579658 C56.8355425,14.374583 57.5003515,14.0027407 57.7921914,13.0776421 C57.9082513,12.7091802 58.1088207,12.3666345 58.3319261,12.0139477 C58.6868665,13.0100344 59.2592783,13.9464009 59.0925127,15.0427723 C59.0418069,15.3717964 58.8063068,15.7289904 58.5516511,15.9588565 C58.2248806,16.2518232 57.8169809,16.4895769 57.4034472,16.648455 C55.0270368,17.5611588 52.6494996,18.4738627 50.2505534,19.323466 C49.1147441,19.724605 47.9135808,19.8924974 46.7067835,19.6817868 C46.215501,19.5961504 45.720838,19.4485402 45.2723736,19.2344492 C44.270653,18.7533078 43.9213466,17.9465227 44.1929042,16.8659264 C44.4486866,15.8506842 45.0323663,15.0089685 45.6701322,14.2055637 C47.2701809,12.1874741 49.2015073,10.5029158 51.1249462,8.80708954 C51.4483363,8.52088364 51.7694728,8.23129736 52.0917362,7.94283788 C52.1187792,7.96199339 52.1469491,7.98002211 52.1739922,7.99917762 L52.1739922,7.99917762 Z M48.7981148,13.1993359 C47.736674,14.0714751 46.7676304,15.0055881 46.0678908,16.1752012 C45.9146467,16.4298568 45.7952065,16.7115555 45.7118236,16.994381 C45.5360436,17.5927091 45.7343595,18.0377931 46.3202929,18.2349822 C46.7383338,18.3758315 47.2059536,18.5009058 47.6330089,18.4547072 C48.4533156,18.3656904 49.286017,18.2282214 50.0668858,17.9746926 C51.867504,17.3876324 53.6410791,16.7183163 55.4259222,16.0839308 C55.4721208,16.0670288 55.5216997,16.0613949 55.5701519,16.0501269 C55.5431088,16.0151963 55.5171926,15.9791388 55.4912763,15.9442082 C52.9819041,16.1335097 50.4736587,16.3239381 47.8516071,16.5211272 C48.1840116,15.3537677 48.4916266,14.2765518 48.7981148,13.1993359 L48.7981148,13.1993359 Z" id="Fill-153" sketch:type="MSShapeGroup"></path>
            </g>
        </g>
    </g>
</svg>