<?xml version="1.0" encoding="UTF-8" standalone="no"?>
<svg width="211px" height="28px" viewBox="0 0 211 28" version="1.1" xmlns="http://www.w3.org/2000/svg" xmlns:xlink="http://www.w3.org/1999/xlink" xmlns:sketch="http://www.bohemiancoding.com/sketch/ns">
    <!-- Generator: Sketch 3.3.2 (12043) - http://www.bohemiancoding.com/sketch -->
    <title>wallstjournal</title>
    <desc>Created with Sketch.</desc>
    <defs></defs>
    <g id="Page-1" stroke="none" stroke-width="1" fill="none" fill-rule="evenodd" sketch:type="MSPage">
        <g id="lantern_home_desktop" sketch:type="MSArtboardGroup" transform="translate(-436.000000, -1732.000000)" fill="#FFFFFF">
            <g id="wallstjournal" sketch:type="MSLayerGroup" transform="translate(436.000000, 1732.000000)">
                <path d="M54.0268568,0.755530503 C54.6296921,5.80807867 55.1975967,10.865134 55.8488841,15.9109214 C56.2534035,19.0445379 56.7841239,22.1601257 57.2731528,25.3816323 C57.9537369,25.4571275 58.4224836,25.5100869 59.4196971,25.6216396 C59.4196971,21.3927784 59.5830823,17.3273026 59.3723717,13.2809822 C59.1718022,9.43185096 60.4563483,5.40919329 58.2128998,1.61978216 L62.8169836,1.61978216 C62.457536,2.65192626 61.8332916,3.62773061 61.8220237,4.61029573 C61.7363873,11.6448761 61.7758251,18.68171 61.7758251,25.7106564 C64.9421187,25.7624889 65.2012815,25.4650151 66.2142701,21.1978429 C66.3776553,22.8170471 66.5410406,24.438505 66.7168206,26.1827834 C67.3726152,26.0712307 67.8424887,25.9901015 68.6267379,25.8548861 L68.6267379,12.3694052 C68.6278647,10.3152581 68.7292762,8.25547712 68.592934,6.21259803 C68.4926493,4.68466419 68.0836228,3.17813946 67.8007972,1.60175345 L72.1367039,1.60175345 C71.7141558,2.44234241 71.0448397,3.16011074 71.0369521,3.88463984 C70.9580765,11.172749 70.9896267,18.4631118 70.9896267,25.9191134 C74.4162099,26.3799725 74.2438103,23.5889016 75.4449736,21.5088383 L75.4449736,26.9275948 C71.9451488,26.9591451 68.2864458,27.0042169 64.6288697,27.0211188 C61.0434085,27.0368939 57.4579472,27.0244992 53.4003589,27.0244992 C53.9231917,26.1039078 54.3029216,25.4345916 54.7637807,24.6232993 C54.4730676,23.5280547 54.1508043,22.3190038 53.7981175,20.9916395 L51.1952213,20.9916395 L51.1952213,26.8723819 L48.7421889,26.8723819 C49.3574189,24.4463925 49.9782829,21.9956137 50.6340775,19.4051123 C51.4972024,19.5392009 52.5203321,19.698079 54.0482659,19.9358327 C53.4431771,15.9233162 53.9524884,12.106862 51.8611571,8.77267596 C52.0718677,6.06949508 52.279198,3.41251279 52.4854015,0.755530503 L54.0268568,0.755530503" id="Fill-27" sketch:type="MSShapeGroup"></path>
                <path d="M194.319578,0.755530503 C195.349469,8.19237661 196.359077,15.6303495 197.436293,23.059308 C197.590664,24.1173684 198.077439,25.124723 198.683655,26.9963293 C200.442581,23.5415762 199.635796,20.7572661 199.769885,18.1070446 C199.906227,15.4185121 199.879184,12.7142044 199.777772,10.0222915 C199.675234,7.272912 200.313,4.46719279 199.156909,1.63105011 L203.00604,1.63105011 C202.280384,9.65157595 202.781808,17.7047788 202.68265,25.833477 C205.675417,25.1483857 205.675417,25.1483857 207.210111,18.0969035 L207.210111,26.8216761 L194.423243,26.8216761 C194.666631,25.1585269 194.916779,23.4457987 195.196225,21.5370082 C194.024358,21.2136181 193.241235,20.999527 192.42769,20.7764216 C191.118354,22.8970496 190.507631,24.7945721 192.418675,26.8813962 L189.280552,26.8813962 C189.280552,26.6120922 189.233226,26.3946208 189.288439,26.2064461 C189.673803,24.8824621 190.269877,23.5889016 190.451291,22.2390014 C191.3516,15.5537275 192.13585,8.85380519 192.992214,2.16177049 C193.053061,1.6783755 193.356169,1.22427717 193.547724,0.755530503 L194.319578,0.755530503 L194.319578,0.755530503 Z M194.437892,19.2011624 C194.057035,16.1655771 193.695334,13.276475 193.333633,10.387373 C193.202924,10.3963874 193.073343,10.4065285 192.943762,10.4144161 C192.629386,13.3542239 192.31501,16.2929049 191.983732,19.3994783 C193.012496,19.3160955 193.494764,19.2777845 194.437892,19.2011624 L194.437892,19.2011624 Z" id="Fill-28" sketch:type="MSShapeGroup"></path>
                <path d="M105.034607,14.5283441 C105.772657,15.1965335 106.510708,15.8658496 107.331015,16.6095342 L107.331015,25.3489552 C108.312453,24.031732 108.725987,23.4762221 109.244312,22.7832433 C109.350231,23.7748228 109.45615,24.7720362 109.584604,25.9743264 C109.984617,25.7760105 110.456744,25.6836133 110.499562,25.4954385 C110.719287,24.5218878 110.949153,23.5246743 110.955914,22.5342216 C110.997605,17.0118 111.033663,11.4882516 110.935631,5.96582995 C110.909715,4.53480048 110.392516,3.11165856 110.092789,1.64907883 L117.951056,1.64907883 L117.951056,6.33992585 C116.809613,4.38042958 116.467067,1.99162447 113.538528,2.57305062 L113.538528,12.8967452 C115.734651,12.2071467 114.544755,10.1901839 115.509292,8.52478109 L115.509292,18.8394613 C115.43605,18.8484756 115.363935,18.8563632 115.29182,18.8642508 C115.038292,17.4861806 114.785889,16.1069837 114.433203,14.1857985 C113.15091,16.9025009 112.994286,20.4068329 113.663602,25.9191134 C115.896909,26.5534989 116.602283,24.861053 117.060888,23.3500211 C117.509353,21.8739198 117.480056,20.2547156 117.659216,18.6974851 C117.933028,18.7053727 118.207965,18.7132603 118.482903,18.720021 C118.593329,21.148264 118.703755,23.5765069 118.847985,26.7202646 C119.642375,25.7681229 120.264366,25.3714911 120.26662,24.9692253 C120.321833,17.7791473 120.312818,10.5890693 120.272254,3.39899125 C120.268873,2.85362254 119.926328,2.31163421 119.68294,1.59949986 L127.775581,1.59949986 L127.775581,10.211593 C126.906822,6.95402905 127.528813,3.53871382 123.864476,2.31163421 C123.488126,2.73530908 122.893179,3.09250305 122.884164,3.46434536 C122.809796,6.60246905 122.841346,9.74284634 122.841346,12.8832236 C123.090368,12.9429438 123.338263,13.0026639 123.587284,13.0635108 C124.115751,11.6493832 124.644218,10.2363825 125.498328,7.95574968 L125.498328,19.2800381 C124.788447,17.3937835 124.275756,16.0371224 123.707851,14.5283441 C122.503308,16.6636204 122.352317,19.3498993 122.964167,25.7050224 C126.107924,25.8120679 126.462865,25.2914887 127.835301,17.9594345 L127.835301,27.019992 L117.010183,27.019992 L105.850406,27.019992 C105.541664,25.0717637 105.151793,23.2452292 104.987281,21.3961588 C104.793473,19.2270787 104.795726,17.0377163 104.712343,14.858495 C104.802487,14.7311672 104.909533,14.6207413 105.034607,14.5283441" id="Fill-29" sketch:type="MSShapeGroup"></path>
                <path d="M15.2831422,26.9411163 L10.247496,26.9411163 C12.2779803,24.3742776 11.4542933,21.5843336 11.5523244,18.9217173 C11.6571164,16.1036033 11.7033149,13.2719679 11.5399297,10.4594879 C11.3855588,7.80926635 12.3602364,4.96185573 10.1472112,2.54150036 C10.0412925,4.95509496 9.9353738,7.36868956 9.79677804,10.5147008 C7.77418126,7.8205343 9.79565124,4.62494407 6.77020703,2.78376126 C6.57301793,3.66491484 6.30822114,4.3094415 6.30484075,4.95509496 C6.27103691,10.8549929 6.2282187,16.7560176 6.32624986,22.6559155 C6.34878575,24.0486339 6.89190088,25.4334648 7.21416421,26.9129465 L2.81064988,26.9129465 C3.21178885,26.1117953 3.86082269,25.4143093 3.86758346,24.7111893 C3.94307872,17.5492812 3.91378205,10.387373 3.91378205,2.93137139 C1.37398643,3.73364933 1.95203219,5.89258829 0.982988611,7.82616827 L0.982988611,1.73584203 L14.9135535,1.73584203 C12.9653252,5.17031278 14.3918475,8.94282198 13.8216893,12.853927 C15.1400393,12.9654796 16.2138748,13.05675 17.8060359,13.1919654 C17.3722199,9.2245207 18.717613,5.44412393 16.701777,1.68288268 L21.293466,1.68288268 C20.8968342,2.22487101 20.5554154,2.69136408 20.1407549,3.25926869 C20.1407549,9.95806416 20.1035707,16.7548908 20.1779391,23.5517174 C20.1903339,24.6537228 20.6996451,25.7500942 20.991485,26.9005517 L16.613887,26.9005517 C18.8742375,22.9747984 17.1513681,18.9172101 17.9502657,14.8100428 L14.2656465,14.8100428 C13.4588613,21.5899675 13.6864739,24.5917491 15.2831422,26.9411163" id="Fill-30" sketch:type="MSShapeGroup"></path>
                <path d="M174.820393,14.8111696 L172.997239,14.8111696 C172.273837,21.8085657 172.50821,24.6379476 174.078962,26.8520996 L169.466991,26.8520996 C169.762211,25.6869937 170.31434,24.4813232 170.332369,23.2677651 C170.423639,17.2416662 170.375187,11.2133136 170.372934,5.1872147 C170.372934,3.90266856 170.507022,2.52009126 168.100188,2.42544049 C168.044976,5.08692996 167.971734,7.70560122 167.943564,10.3265261 C167.916521,12.8911112 168.02244,15.4590767 167.914267,18.0191546 C167.801588,20.6659957 167.504114,23.3038225 167.29115,25.8819292 C166.137312,26.5794152 165.284328,27.0954872 164.536136,27.547332 C160.49545,26.7292789 159.844163,23.7782032 159.790076,20.560077 C159.710074,15.6889428 159.799091,10.815555 159.749512,5.94329406 C159.73599,4.57761868 159.488095,3.2141969 159.330344,1.6783755 L163.096092,1.6783755 C162.941722,3.41251279 162.679178,5.10495868 162.66115,6.79965815 C162.60481,11.9288284 162.644248,17.0591254 162.645375,22.1882956 C162.646501,23.9291937 162.805379,25.5495247 165.514194,25.6667114 C165.88491,24.6244261 166.585776,23.5843944 166.565494,22.5601379 C166.425771,15.6855625 167.197626,8.77605635 166.100128,1.70992575 L176.110573,1.70992575 C176.408047,2.05472498 177.304976,3.10151741 177.671184,3.52969946 C178.92756,8.30730968 178.058801,11.700089 175.153924,14.5328513 C175.049132,14.633136 174.93758,14.72666 174.820393,14.8111696 L174.820393,14.8111696 Z M172.918363,13.161542 C175.494216,12.1417926 175.764647,11.8984049 175.770281,9.17156134 C175.777042,6.67345713 176.527487,3.75843882 172.918363,2.29022511 L172.918363,13.161542 L172.918363,13.161542 Z" id="Fill-31" sketch:type="MSShapeGroup"></path>
                <path d="M45.5680078,17.36336 C47.6491979,12.3412353 48.324148,5.2762315 47.1973532,1.68513627 L50.219417,1.68513627 C49.7067253,3.53533343 48.9799426,5.38665739 48.6971171,7.30671584 C47.7720185,13.5931044 47.0148124,19.9042824 46.170843,26.2041925 C46.1223909,26.5636401 45.8823836,26.8982981 45.731393,27.245351 C45.4688498,27.1394322 45.2063066,27.0335135 44.9437634,26.9287216 C44.2890956,22.7291571 43.6344278,18.5307195 42.880602,13.7024035 C42.1031136,18.5171979 41.4225295,22.7257768 40.7419454,26.9343556 C40.4332036,26.9388628 40.1244618,26.9411163 39.81572,26.9444967 C38.5942744,18.5295927 37.3739555,10.1135618 36.1434955,1.62992332 L39.3176767,1.62992332 C39.0979517,7.09262482 40.0692489,12.2612329 41.3064696,17.4039246 C41.5904219,12.2454577 43.3899133,7.0745961 40.7194095,1.74823678 L44.550512,1.74823678 C43.4992124,6.87515341 45.8733692,11.6752995 45.5680078,17.36336" id="Fill-32" sketch:type="MSShapeGroup"></path>
                <path d="M186.951467,16.4991083 C186.944706,11.4431798 188.250661,6.47964841 186.462438,1.61865537 L188.980824,1.61865537 C188.694618,3.15334997 188.196575,4.64973355 188.174039,6.1528779 C188.085022,12.3063047 188.145869,18.4608582 188.139108,24.6154117 C188.137982,25.3185317 188.060233,26.0227785 187.705292,26.7788579 C185.270289,21.4930632 184.502941,15.7080983 182.193012,10.3445548 C182.047655,15.7790864 181.596937,21.2012233 182.226816,26.8543531 C181.76483,26.8870302 180.936636,26.9444967 179.946183,27.0154848 C181.172136,22.6852121 180.476903,18.5160711 180.559159,14.3852412 C180.641415,10.2194806 180.783391,6.02555008 180.428451,1.64344486 C180.700009,1.62541614 181.53609,1.5690764 182.710211,1.49020075 C184.143494,6.56190444 185.54748,11.5310698 186.951467,16.4991083" id="Fill-33" sketch:type="MSShapeGroup"></path>
                <path d="M104.712343,14.858495 C104.107255,14.81455 103.502166,14.770605 102.904964,14.72666 C102.127476,21.4547522 102.378751,24.6334405 103.937109,26.8487192 L99.4130272,26.8487192 C99.6812043,25.3128978 100.170233,23.7207366 100.200657,22.1206879 C100.300942,16.7334817 100.297561,11.342895 100.200657,5.9556888 C100.17474,4.53367368 99.6654292,3.12067292 99.358941,1.60964101 L105.047001,1.60964101 C108.713592,4.65987471 109.264595,9.2898748 106.432959,12.766037 C105.959705,13.3485899 105.499973,13.9401572 105.034607,14.5283441 C104.909533,14.6207413 104.802487,14.7311672 104.712343,14.858495 L104.712343,14.858495 Z M102.593969,1.84176075 C102.593969,4.30268074 102.503825,6.05033957 102.618759,7.78560366 C102.737072,9.56481275 102.075643,11.4893784 103.092012,13.0871735 C105.041368,13.0995682 105.396308,11.7282589 105.502227,10.7423134 C105.73322,8.60140314 105.573215,6.41767469 105.573215,4.11675958 C104.759669,3.49589561 104.002463,2.91784985 102.593969,1.84176075 L102.593969,1.84176075 Z" id="Fill-34" sketch:type="MSShapeGroup"></path>
                <path d="M26.3899592,12.9902691 C27.8074671,11.2809213 27.8074671,11.2809213 28.6108719,8.90789134 L28.6108719,13.8669155 L28.6108719,19.2079232 C27.2226606,17.7239344 28.7235514,15.4252728 26.3775645,14.8066625 L26.3775645,25.9619316 C29.6802002,26.3247596 29.5258293,23.5258011 30.7641769,21.5313742 L30.7641769,26.7495612 L23.0276033,26.7495612 C23.2788786,25.2959958 23.7645272,23.69144 23.7949506,22.0756161 C23.897489,16.8213717 23.8941086,11.5614932 23.7960774,6.306122 C23.7667808,4.75452548 23.2867661,3.21081651 23.012955,1.65921998 L30.8205166,1.65921998 L30.8205166,6.04132521 C29.3094847,4.91678394 29.511181,1.79105498 26.3899592,2.63727793 L26.3899592,12.9902691" id="Fill-35" sketch:type="MSShapeGroup"></path>
                <path d="M135.543704,26.8791426 L131.006102,26.8791426 C131.328365,25.9055919 131.89965,24.9647182 131.912045,24.0159569 C131.989793,17.4749127 131.958243,10.9316149 131.932327,4.39057073 C131.930073,3.9601351 131.691193,3.52969946 131.43203,2.66206741 C129.374503,4.9032624 129.64268,7.39235225 128.959842,9.63805442 L128.959842,1.68513627 L137.841239,1.68513627 L137.841239,9.72369083 C136.978114,7.45995994 137.397282,4.71959483 135.090733,2.93700536 C133.769003,6.48866277 134.094646,22.9364874 135.543704,26.8791426" id="Fill-36" sketch:type="MSShapeGroup"></path>
                <path d="M96.0675732,26.9050589 L91.6381426,26.9050589 C91.9232217,25.3174049 92.4054899,23.7939783 92.4336598,22.2637909 C92.5305641,16.8720774 92.4821119,11.4781104 92.4607028,6.08414342 C92.4584493,5.11171945 92.3254875,4.13929548 92.218442,2.71389998 C89.2853949,4.53142009 89.922034,7.35404123 88.960878,10.3265261 L88.960878,1.71894011 L97.8355143,1.71894011 L97.8355143,9.64481519 C96.8563296,7.5129193 97.9177704,4.78382214 95.1481086,2.71277318 C94.5452733,5.63229867 94.8945798,8.24533596 94.8371132,10.8087943 C94.7751395,13.6325422 94.6962639,16.4664313 94.8607759,19.2811649 C95.008386,21.7984246 93.9559596,24.520761 96.0675732,26.9050589" id="Fill-37" sketch:type="MSShapeGroup"></path>
                <path d="M83.4643727,2.46262472 C81.6017807,5.79906431 82.7049129,8.73999891 85.0441391,11.178383 C88.0177507,14.2781957 89.1028542,17.8343603 88.7974927,22.010262 C88.6611506,23.8739807 88.2926886,25.5382567 86.3917857,27.0425279 C84.6722967,26.9028053 82.6429392,26.7394201 80.4389284,26.5613865 C80.4806199,23.8706003 80.3735743,21.2981277 80.9088019,18.6884708 C82.072781,21.2936205 81.3426179,24.6694979 84.841316,26.1658815 C86.8785611,25.1157087 87.3540685,23.3026957 86.950676,21.131362 C86.4492522,18.4338151 85.2007635,16.1182517 83.248028,14.1745305 C80.2203302,11.1603543 80.6947109,7.40587379 81.2400796,3.72576176 C81.3324768,3.09362985 82.4547645,2.61474203 83.1004179,2.06486614 C83.2254921,2.19444754 83.3460592,2.32740934 83.4643727,2.46262472" id="Fill-38" sketch:type="MSShapeGroup"></path>
                <path d="M142.752938,26.1241901 C143.489862,26.053202 144.225659,25.9844675 145.349073,25.877422 C146.152478,18.8270665 145.573306,11.843192 145.678097,4.88636047 C145.693873,3.84632882 145.057234,2.796156 144.688772,1.64569845 L148.934535,1.64569845 C148.660723,3.07898151 148.168314,4.54494163 148.139017,6.0221697 C148.037606,11.1310576 148.073663,16.2444527 148.109721,21.3544674 C148.124369,23.3241048 147.941828,25.1821896 146.224593,26.7642096 C145.087657,26.9242144 143.745644,27.7039565 142.638005,26.2222212 L142.752938,26.1241901" id="Fill-39" sketch:type="MSShapeGroup"></path>
                <path d="M155.189373,2.10092357 C156.913369,2.45248357 157.15901,4.02999638 157.530853,5.27285111 C159.316823,11.2335959 159.312315,17.2529341 157.530853,23.2125521 C157.160137,24.4542801 156.92013,26.0340465 155.201768,26.3980012 C155.093595,26.2864485 154.98655,26.1748958 154.879504,26.0633431 C156.226024,22.2942143 156.229405,6.16527265 154.882885,2.42656729 C154.985423,2.31839498 155.087961,2.20909588 155.189373,2.10092357" id="Fill-40" sketch:type="MSShapeGroup"></path>
                <path d="M152.576336,26.322506 C150.195418,24.8193616 149.982454,22.092518 149.847238,19.8941413 C149.575681,15.4804858 149.959918,11.0059834 150.371198,6.58331354 C150.527823,4.89988201 151.5025,3.29307254 152.252946,1.24681306 C153.439461,1.5904855 154.31498,1.84626793 155.189373,2.10092357 C155.087961,2.20909588 154.985423,2.31839498 154.882885,2.42656729 C151.682787,2.51445729 152.158295,5.37989663 152.144773,6.95402905 C152.088433,13.3012645 151.314325,19.7070933 152.883951,25.997989 C152.780286,26.1039078 152.677747,26.2132069 152.576336,26.322506" id="Fill-41" sketch:type="MSShapeGroup"></path>
                <path d="M178.876855,24.6345673 L178.876855,26.7191378 C177.96077,26.8036474 177.144971,26.8791426 176.316777,26.9557647 C174.252488,22.9511357 175.555063,18.7538249 174.820393,14.8111696 C174.93758,14.72666 175.049132,14.633136 175.153924,14.5328513 C175.887468,15.1818851 176.621011,15.8297922 177.404134,16.5205174 L177.404134,24.3573757 C178.023871,24.4892107 178.476842,24.5849883 178.929814,24.6807658 L178.876855,24.6345673" id="Fill-42" sketch:type="MSShapeGroup"></path>
                <path d="M83.1004179,2.06486614 C84.6497609,0.689049606 86.1810751,1.92852396 87.8002793,1.82147844 L87.8002793,9.67185826 C87.7259108,9.67749224 87.6504156,9.68312621 87.5760471,9.68876018 C87.1681474,7.63123276 86.7591208,5.57257855 86.2971349,3.24011318 C85.3314717,2.97531639 84.3973588,2.71840716 83.4643727,2.46262472 C83.3460592,2.32740934 83.2254921,2.19444754 83.1004179,2.06486614" id="Fill-43" sketch:type="MSShapeGroup"></path>
                <path d="M142.638005,26.2222212 C140.399064,22.8418366 140.448643,21.098685 142.951254,19.2620093 C144.663982,21.6294054 141.850375,23.8536984 142.752938,26.1241901 L142.638005,26.2222212" id="Fill-44" sketch:type="MSShapeGroup"></path>
                <path d="M208.621985,23.5753801 C210.410209,24.65823 210.836137,25.5483979 209.854699,26.9895685 C207.623645,26.7168842 208.304229,25.3579696 208.621985,23.5753801" id="Fill-45" sketch:type="MSShapeGroup"></path>
                <path d="M51.493822,12.7637834 L51.493822,18.2264849 C51.3574798,18.2242313 51.2222644,18.2208509 51.087049,18.2174705 L51.087049,12.6770202 C51.2222644,12.7063168 51.3574798,12.7344867 51.493822,12.7637834" id="Fill-46" sketch:type="MSShapeGroup"></path>
                <path d="M178.929814,24.6807658 C178.960237,23.9945478 178.990661,23.3094565 179.019958,22.6232384 C179.229541,22.6863389 179.437998,22.7494395 179.647582,22.8114132 C179.390673,23.4187556 179.133764,24.0272248 178.876855,24.6345673 L178.929814,24.6807658" id="Fill-47" sketch:type="MSShapeGroup"></path>
                <path d="M155.201768,26.3980012 C154.296951,27.3985951 153.420305,27.4278917 152.576336,26.322506 C152.677747,26.2132069 152.780286,26.1039078 152.883951,25.997989 C153.54876,26.0193981 154.214695,26.041934 154.879504,26.0633431 C154.98655,26.1748958 155.093595,26.2864485 155.201768,26.3980012" id="Fill-48" sketch:type="MSShapeGroup"></path>
            </g>
        </g>
    </g>
</svg>