<?xml version="1.0" encoding="UTF-8" standalone="no"?>
<svg width="173px" height="29px" viewBox="0 0 173 29" version="1.1" xmlns="http://www.w3.org/2000/svg" xmlns:xlink="http://www.w3.org/1999/xlink">
    <g id="Page-1" stroke="none" stroke-width="1" fill="none" fill-rule="evenodd">
        <g id="schmpost" fill="#000000">
            <g id="Page-1">
                <g id="lantern_home_desktop">
                    <g id="schmpost">
                        <path d="M54.6477208,0.454159214 L54.6477208,4.29765649 C55.1547785,4.29765649 55.8229678,4.50047957 56.1339632,4.2537115 C56.7322913,3.77933086 57.3610428,3.61256522 57.8681005,4.01370419 C58.5565722,4.55681931 59.3013836,5.09317367 59.2022256,6.27518148 C59.0557423,8.03185467 59.1650414,9.80993697 59.1650414,11.6612609 L56.3412935,11.6612609 C56.3412935,9.88317864 56.3705901,8.03523506 56.3097432,6.19067187 C56.3007289,5.92925546 55.8511377,5.68248738 55.2494293,5.06162341 L55.2494293,12.2471943 L51.845382,12.2471943 L51.845382,2.25139702 C51.7146738,2.23674869 51.5839656,2.22097356 51.4532574,2.20407164 C51.3439583,2.9150792 51.235786,3.62608676 51.0960634,4.53541021 C50.7005584,4.34610867 50.3343501,4.27850098 50.1484289,4.05990278 C49.7506703,3.59115612 49.5129166,2.97592612 49.0847346,2.54549048 C48.4818993,1.93927484 47.2874968,2.00237536 46.6136734,2.56126561 C45.0417946,3.86384047 44.5493852,6.44983468 45.4711034,8.49947454 C45.7550557,9.13160646 46.0108382,9.77725992 46.3623982,10.6155953 L50.131527,10.6155953 C50.049271,11.0178611 50.3411108,11.468579 49.7022181,11.7683064 C48.0480833,12.5457949 46.3308479,12.6922782 44.858127,11.6973184 C43.3673774,10.6899638 42.2191735,9.3423171 42.1797356,7.24084468 C42.139171,5.07514495 42.6405947,3.28917509 44.3938875,1.96406433 C45.962386,0.77754934 47.7179324,0.81473357 49.5196774,1.25418357 C49.9433522,1.3567219 50.565343,1.70602831 50.752391,1.54376985 C51.7124202,0.715575622 52.8673849,1.21587254 53.8815003,0.916145108 C53.9851654,0.885721647 54.0178425,0.614164084 54.0831966,0.454159214 L54.6477208,0.454159214" id="Fill-94"></path>
                        <path d="M0.45001464,24.7309546 C1.3368022,23.800222 1.58920425,22.6587788 1.58244348,21.4181777 C1.57117553,19.1826166 1.57906309,16.9459288 1.57906309,14.6405066 L4.25294731,14.6405066 C4.91550269,16.472675 5.59383319,18.3499152 6.32061588,20.3612441 C7.17810677,18.3882263 7.97024356,16.5650722 8.78266266,14.6945927 L11.7979657,14.6945927 C10.4413047,18.1842764 11.3990803,21.6536778 11.8745878,25.2098424 L8.41532753,25.2098424 L8.41532753,19.2243081 C8.2913801,19.2040258 8.16855946,19.1837434 8.04461202,19.1634611 C7.29642023,21.1973259 6.54597485,23.2311906 5.77975435,25.3112539 C4.95381371,25.2898448 4.53126564,24.7771531 4.4073182,23.9827628 C4.18984679,22.5889175 3.26024103,21.4080365 3.23545154,19.9432032 C3.23094436,19.6795332 2.73064744,19.4260043 2.29795822,19.0135974 C2.1695036,21.1353521 1.68948899,23.1342862 2.95826001,25.2954788 L0.45001464,25.2954788 L0.45001464,24.7309546" id="Fill-95"></path>
                        <path d="M35.4527703,0.454159214 L35.4527703,4.39118047 C35.8956007,4.35174265 36.2629358,4.4272379 36.3789957,4.28976893 C36.8939409,3.6824265 37.6060753,3.61031163 38.0883435,4.00581662 C38.678784,4.49033842 39.4709208,4.9106329 39.4269758,5.96193251 C39.3492269,7.82114403 39.4055667,9.68373594 39.4055667,11.644359 L37.2432473,11.644359 C36.9750702,9.76261158 37.2770512,7.73100045 37.0945104,5.73431995 C35.3299497,5.62952802 34.866837,5.86728174 34.9164159,7.14394032 C34.9705021,8.5749698 34.4611908,10.0916357 35.4629114,11.6297107 C34.5716167,11.6792896 33.7141258,11.7277418 32.6301492,11.787462 C32.6301492,9.28147018 32.6718406,6.87463635 32.6109936,4.47005611 C32.5839506,3.4198833 32.3439433,2.37421766 32.174924,1.13925049 C32.5828238,0.437257291 33.9642743,1.75560728 34.3237218,0.454159214 L35.4527703,0.454159214" id="Fill-96"></path>
                        <path d="M158.992306,3.89539073 L161.508439,3.89539073 C162.029018,4.58048201 162.438044,5.11908995 162.971018,5.81882956 C163.586248,5.24754457 164.040347,4.8227429 164.533883,4.36413739 C165.950264,4.98274777 167.324954,5.37036521 168.892325,4.55118534 C169.986443,3.97877355 170.889006,4.66273803 170.930697,5.87854969 C170.950979,6.49941366 170.89802,7.16760301 170.686183,7.74226839 C170.208422,9.03132172 170.120532,10.1547362 171.213523,11.2342057 C171.489587,11.50689 171.506489,12.2787445 171.347611,12.7125605 C170.900274,13.929499 170.298565,15.0912245 169.69235,16.4174621 C170.077713,16.8039527 170.431527,17.2174864 170.845061,17.560032 C172.454124,18.8986643 172.464265,18.8919036 171.156056,20.2812416 C170.973515,20.4761772 170.751537,20.636182 170.401104,20.9370363 C169.659673,20.2812416 168.930636,19.6355882 168.358224,19.1307841 C167.493973,19.9961625 166.713104,20.7759046 166.210553,21.2784551 L163.667377,21.2784551 L163.667377,16.384785 L161.951269,16.384785 L161.951269,20.5066006 C161.307869,20.8187228 160.760247,21.0846464 160.081916,21.4136705 C158.159604,20.1110956 159.617677,17.9803265 158.904416,16.2991486 L156.524625,16.2991486 C156.158417,15.6287056 156.060385,15.1520714 156.962948,15.1351695 C157.713393,15.121648 158.4706,15.1881289 159.210904,15.0991121 C159.429502,15.072069 159.597394,14.6371262 160.000787,14.1142933 C158.778215,14.0433053 157.888047,13.9925995 157.000132,13.9418937 C157.028302,12.9705966 157.028302,12.9705966 158.652014,12.6843907 C158.391724,11.8483089 158.141575,11.0437773 157.86213,10.1457218 L155.864323,10.1457218 C155.798969,9.75021684 155.74601,9.42908031 155.673895,8.9907571 L159.355134,8.9907571 C159.774301,8.34735724 159.910643,7.85945506 159.006954,7.80086173 C158.360174,7.75917032 157.708886,7.79297416 157.07112,7.79297416 C156.722941,7.1698566 156.619276,6.69434917 157.520711,6.6661793 C157.979317,6.65265776 158.436796,6.66392571 158.992306,6.66392571 L158.992306,3.89539073 L158.992306,3.89539073 L158.992306,3.89539073 Z M166.579015,6.09940148 L166.579015,8.26059403 L168.144133,8.26059403 C168.100188,7.46507686 168.061877,6.7766052 168.023566,6.09940148 L166.579015,6.09940148 L166.579015,6.09940148 L166.579015,6.09940148 Z M168.46189,14.5210663 C168.650064,12.2787445 168.650064,12.2787445 166.708597,12.6460796 C167.249458,13.226379 167.685528,13.6917453 168.46189,14.5210663 L168.46189,14.5210663 L168.46189,14.5210663 Z M164.09894,8.26510121 C163.755267,7.25211263 163.025104,7.07971301 162.205925,7.26676096 C162.033525,7.30507199 161.969298,7.81889044 161.796898,8.26510121 L164.09894,8.26510121 L164.09894,8.26510121 L164.09894,8.26510121 Z M164.025698,9.98120979 C163.846538,10.1231859 163.772169,10.1660041 163.71921,10.2268511 C163.385679,10.6054541 162.781717,10.8837725 163.145671,11.5452011 C163.208772,11.6601341 163.447652,11.743517 163.598643,11.7345026 C164.516981,11.6815432 164.058375,10.9570141 164.167674,10.5096766 C164.184576,10.4375617 164.12711,10.3474181 164.025698,9.98120979 L164.025698,9.98120979 L164.025698,9.98120979 Z M161.649288,10.7372891 C161.256036,10.3688272 161.025044,10.0465639 160.928139,10.0837481 C160.662216,10.1817793 160.416574,10.4071382 160.248682,10.6426384 C160.209244,10.6978513 160.511225,11.1485693 160.654328,11.1474425 C160.920252,11.1451889 161.183922,10.9446194 161.649288,10.7372891 L161.649288,10.7372891 L161.649288,10.7372891 Z M166.52831,11.073074 C166.695075,11.0719472 166.861841,11.0708204 167.028607,11.0685668 C166.959872,10.5615091 166.892264,10.056705 166.82353,9.55077415 C166.724372,9.55753492 166.626341,9.56429569 166.52831,9.57105646 L166.52831,11.073074 L166.52831,11.073074 L166.52831,11.073074 Z M163.108487,14.3464131 C162.042539,13.9869655 161.699994,14.2292264 161.93324,14.7678344 C162.280293,14.6427601 162.693827,14.49515 163.108487,14.3464131 L163.108487,14.3464131 L163.108487,14.3464131 Z M166.902406,16.3588687 C166.734513,16.3690099 166.566621,16.3780242 166.397601,16.3870386 C166.46859,16.8862087 166.537324,17.3853788 166.608312,17.884549 C166.706343,17.8766614 166.804374,17.867647 166.902406,17.8586327 L166.902406,16.3588687 L166.902406,16.3588687 L166.902406,16.3588687 Z" id="Fill-97"></path>
                        <path d="M18.8066298,8.77441249 C17.349684,12.133388 17.0736193,12.3114216 13.6537969,12.2753641 C12.7534878,11.1587104 11.3821784,10.4093918 10.8908958,8.925403 C10.0762232,11.787462 9.13196907,12.309168 4.77465333,12.309168 C3.33010231,10.9130691 3.33010231,10.9130691 3.39432962,9.0347021 C4.35773923,8.66849377 4.73521551,9.30625967 4.95381371,10.0375495 C5.25128756,11.0370166 5.95666114,11.1654712 6.85246306,11.2060358 C7.66600895,11.2420932 8.14489677,10.7778538 8.30039446,10.1953008 C8.41420074,9.77162594 8.14038959,9.13160646 7.84066215,8.74060864 C7.47445382,8.26172083 7.1071187,7.69945019 6.27441729,7.75353634 C5.80341704,7.7850866 5.27156986,7.47521801 4.8253591,7.21943558 C3.06079834,6.2041934 2.76895847,4.09370662 4.15829654,2.67169151 C5.50256281,1.29700177 6.92345113,0.351620881 8.89421535,1.56179857 C9.14999778,1.71954985 9.5860674,1.58320767 10.0694624,1.58320767 C10.0255174,2.45985407 9.98945996,3.15846689 9.93762739,4.17821624 C8.73533727,3.36354355 8.48518881,1.54376985 6.8423219,2.15223907 C6.51780498,2.27393292 6.09187652,2.38435882 5.93525204,2.63563407 C5.66820166,3.0683233 5.57693127,3.61031163 5.44734986,3.99905586 C7.16909241,5.37937956 9.58268701,5.21036033 10.7230034,7.11239006 C11.5703532,6.19067187 12.3050234,5.19233162 13.2368828,4.43512547 C14.1957852,3.65651022 15.3800466,3.51453406 16.4031763,4.41709675 C17.3271481,5.23402303 18.8009958,5.60811892 19.0015653,7.23295712 C19.0455103,6.33940879 19.0905821,5.44586046 19.1334003,4.58724277 C20.0348362,4.32920675 20.85965,4.09370662 21.7148873,3.85031893 C22.4202609,6.07123161 21.12332,8.52877121 22.6005481,10.6606671 C23.8253741,9.2544271 23.9527019,7.10112212 22.9408401,4.56696047 C23.6935391,4.50949393 24.3775036,4.43625226 25.0637216,4.41146278 C25.8096598,4.38554649 26.5578516,4.4058288 27.1866032,4.4058288 C28.2469171,3.6598906 28.7990466,2.47224882 30.038521,2.04406677 C30.8284042,2.79113176 29.6385088,4.52977624 31.8628019,4.63006098 C31.1957393,4.86105393 30.9129138,4.95908508 30.5354375,5.08979328 C30.548959,5.07627175 30.4250116,5.14275264 30.4238848,5.20923354 C30.4137437,6.96928712 30.4159973,8.72934069 30.4159973,10.5119302 C30.9647464,10.5761575 31.4087035,10.62799 31.8549143,10.6809494 C31.8639287,10.8184184 31.9326631,11.0156075 31.8706894,11.0753276 C29.9596453,12.9356659 29.6632983,12.9232712 27.5494311,10.9006744 C27.5494311,9.35020466 27.5821082,7.75691673 27.5145005,6.16813597 C27.5043593,5.91348033 27.0401198,5.679107 26.5263014,5.18895123 L26.5263014,11.4043517 C25.523454,11.7998567 24.7223028,12.7846754 23.616917,11.7739404 C23.452405,11.6240767 22.9261918,11.8167586 22.5858997,11.9181702 C20.1756855,12.6370653 19.2742496,12.0218353 19.0748069,9.51133633 C19.0612854,9.3434439 18.9587471,9.18456582 18.8066298,8.77441249 L18.8066298,8.77441249 L18.8066298,8.77441249 Z M14.0932469,5.01880521 L14.0932469,11.1316673 L15.6008984,11.1316673 L15.6008984,5.01880521 L14.0932469,5.01880521 L14.0932469,5.01880521 L14.0932469,5.01880521 Z" id="Fill-98"></path>
                        <path d="M124.653232,17.3245319 L119.013624,17.3245319 C120.815369,16.6563426 122.661059,16.9628308 124.560835,16.7566273 L124.560835,15.203904 L119.806887,15.203904 C119.411382,14.3328916 119.545471,13.9373866 120.365778,14.006121 C121.072278,14.0658412 121.456515,13.8686521 121.124111,12.8793262 L118.498679,12.8793262 L118.498679,11.8776055 C119.645756,11.3964641 121.50046,12.4894552 121.863288,10.413899 C121.154534,9.34682428 119.366311,10.9998323 118.88855,8.99413749 L122.881911,8.99413749 L122.881911,7.26901455 L119.085739,7.26901455 C119.063203,6.81716981 119.050808,6.56364097 119.032779,6.20193981 L122.810923,6.20193981 C122.895432,5.41656379 122.970927,4.71457059 123.067832,3.81200791 C123.776586,3.89764432 124.51351,3.86046009 125.147895,4.09708701 C125.864537,4.36413739 125.800309,5.11120239 125.823972,5.78051854 C125.828479,5.9191143 126.360326,6.03968135 126.821185,6.24363122 L126.821185,4.21540047 C127.335004,3.70158201 129.135622,3.74552701 129.777895,4.16244111 C130.652288,4.72921893 130.271431,5.32191303 129.772261,5.93714302 C130.897929,5.77037738 130.897929,5.77037738 131.84331,4.97147982 C133.301383,5.90446597 133.995488,6.51744238 134.24451,7.22844994 L131.999935,7.22844994 L129.789163,7.22844994 L129.789163,8.80145557 C129.982972,8.75638377 130.147484,8.76652493 130.238754,8.68877608 C131.824155,7.36028493 131.821901,7.35803135 133.794919,9.43246069 C133.584208,9.76486517 133.352088,10.1299467 133.008416,10.6741886 C133.380258,11.0956099 133.793792,11.5643566 134.336907,12.1807134 C133.492938,12.2697302 132.732351,12.3486058 131.327238,12.4962159 C133.482797,13.7199151 132.612911,16.000548 134.53635,17.2817137 C132.704181,17.4755224 131.167233,17.3560822 129.64268,17.389886 C127.812765,17.4304506 127.59642,17.6220058 127.479234,19.3888201 C127.460078,19.669392 127.594167,20.0536291 127.455571,20.2181411 C126.944006,20.8198496 126.416666,21.4643762 125.757491,21.8677688 C125.319168,22.135946 124.679148,21.0778856 124.656612,20.0006697 C124.639711,19.1736023 124.653232,18.3454081 124.653232,17.3245319 L124.653232,17.3245319 L124.653232,17.3245319 Z M132.220786,15.2230595 L127.543461,15.2230595 C127.516418,15.5723659 127.462332,15.8405431 127.487121,16.1008327 C127.509657,16.3521079 127.614449,16.5954956 127.678676,16.8231082 C131.107513,16.8287422 131.107513,16.8287422 132.220786,15.2230595 L132.220786,15.2230595 L132.220786,15.2230595 Z M124.894366,8.78117326 L127.906289,8.78117326 C127.225705,8.02171352 126.80541,7.55184006 126.257788,6.93999045 C125.763125,7.60705301 125.419453,8.0701657 124.894366,8.78117326 L124.894366,8.78117326 L124.894366,8.78117326 Z M124.181105,12.3835364 L124.181105,14.6855783 C124.628443,14.5131787 125.141134,14.4500782 125.181699,14.2765518 C125.368747,13.4584987 125.19522,12.7260821 124.181105,12.3835364 L124.181105,12.3835364 L124.181105,12.3835364 Z M127.617829,12.127754 L127.617829,14.6179707 C128.926038,14.0241498 128.927165,13.8156927 127.617829,12.127754 L127.617829,12.127754 L127.617829,12.127754 Z M127.572758,10.062339 C127.623463,10.7992629 126.928231,11.7852084 128.510251,11.7345026 C128.458418,10.9975788 129.153651,10.0105065 127.572758,10.062339 L127.572758,10.062339 L127.572758,10.062339 Z M125.488187,11.0820884 C125.119725,10.6302436 124.884225,10.3406574 124.647598,10.0510711 C124.461677,10.2888248 124.156316,10.5096766 124.116878,10.7699662 C124.058284,11.1632176 123.911801,11.7897155 124.656612,11.7198543 C124.901127,11.6973184 125.119725,11.3773086 125.488187,11.0820884 L125.488187,11.0820884 L125.488187,11.0820884 Z M132.289521,10.7046121 C131.891762,10.4060115 131.676544,10.1491022 131.412874,10.0837481 C131.272025,10.0476907 131.050047,10.3406574 130.864125,10.4848871 C131.054554,10.7170068 131.208925,11.0099735 131.452312,11.1519497 C131.553724,11.2116698 131.842183,10.9536338 132.289521,10.7046121 L132.289521,10.7046121 L132.289521,10.7046121 Z M131.34752,13.2376469 C131.282166,13.1193335 131.214559,12.9976396 131.145824,12.874819 C131.082724,12.9379195 130.959903,13.0134148 130.970044,13.0596134 C130.999341,13.1925752 131.082724,13.314269 131.145824,13.4382164 C131.208925,13.3762427 131.270898,13.314269 131.34752,13.2376469 L131.34752,13.2376469 L131.34752,13.2376469 Z" id="Fill-99"></path>
                        <path d="M105.458282,16.8828283 L103.273426,16.8828283 L103.273426,20.4942059 C102.562419,20.8412587 101.939301,21.1432397 101.364636,21.4226848 C100.78997,20.9595721 100.748279,11.9384525 101.231674,8.78906082 C101.958457,9.17442467 102.619885,9.60260671 103.336527,9.88768581 C104.982774,10.5401 105.752375,10.0003653 106.052102,7.87748378 C105.043621,7.84931391 104.048661,7.80987609 103.052575,7.79635455 C102.019304,7.78283301 100.983779,7.84255314 99.9572691,7.76142391 C99.6631756,7.73888801 99.3995056,7.33549545 98.5837061,6.66392571 L102.530869,6.66392571 L106.129851,6.66392571 C105.897732,5.679107 105.706176,4.86894149 105.458282,3.8142615 C106.701136,4.04638124 108.08484,3.19001714 108.863456,4.91288649 C108.648238,5.34557572 108.419499,5.80418123 108.208788,6.2278561 C108.334989,6.39800212 108.390202,6.5343443 108.440908,6.53209071 C109.513616,6.49490648 110.719287,6.74054776 111.630864,6.33264802 C113.707547,5.40304226 113.648953,5.27233405 115.154351,7.5428257 C114.066994,8.00030442 112.964989,7.7400148 111.909182,7.7839598 C110.788021,7.8290316 109.66348,7.79297416 108.410484,7.79297416 L108.410484,9.92937722 C109.999265,10.2234707 111.50579,10.36432 112.043271,8.05213698 C113.314295,9.15414236 114.748705,9.86176953 113.362748,11.6421054 C113.362748,13.9892191 113.243307,16.3453472 113.410073,18.6800661 C113.500217,19.9555979 112.812872,20.6147729 112.021862,21.1961991 C111.646639,21.4722638 110.895067,21.7573429 110.496181,20.7815386 C110.209976,20.0829257 109.521504,19.548825 108.827398,18.7228843 C108.445415,19.4012149 108.22569,19.8282701 107.973288,20.2339163 C107.552993,20.9099932 106.843112,20.9640793 106.271827,20.6835074 C105.843645,20.4727968 105.348983,20.0863061 105.439126,19.3606502 C105.52927,18.6214728 105.458282,17.8608863 105.458282,16.8828283 L105.458282,16.8828283 L105.458282,16.8828283 Z M111.01,18.4727359 L111.01,16.9673379 L108.375554,16.9673379 L108.375554,18.4727359 L111.01,18.4727359 L111.01,18.4727359 L111.01,18.4727359 Z M104.763049,14.0838699 C105.022212,12.6122758 105.035734,11.3536459 103.5078,10.4679852 C103.04018,13.1666589 103.04018,13.1666589 104.763049,14.0838699 L104.763049,14.0838699 L104.763049,14.0838699 Z M111.058452,10.7079925 L108.442034,10.7079925 C109.064025,11.0077199 109.28037,11.0572989 109.415585,11.1891339 C109.629676,11.3998445 109.855035,11.6409786 109.956447,11.913663 C110.04659,12.1570507 109.972222,12.4624121 109.975602,12.7396036 C109.98687,13.6173768 110.444349,13.5599103 111.058452,13.2387737 L111.058452,10.7079925 L111.058452,10.7079925 L111.058452,10.7079925 Z M108.241465,14.6607889 C108.303439,15.1340427 108.296678,15.4472917 108.354144,15.4596864 C108.658379,15.5261673 109.091068,15.6512415 109.269102,15.5025046 C109.60376,15.2241863 109.743482,15.1419303 110.098423,15.4856027 C110.259555,15.6411004 110.722667,15.5656051 111.004366,15.4687008 C111.096763,15.4371505 111.051691,15.0055881 111.076481,14.6607889 L108.241465,14.6607889 L108.241465,14.6607889 L108.241465,14.6607889 Z M105.372645,14.764454 C103.492025,14.6033223 103.492025,14.6033223 103.285821,15.500251 C105.167569,15.6625095 105.167569,15.6625095 105.372645,14.764454 L105.372645,14.764454 L105.372645,14.764454 Z M105.653217,10.6595403 C105.561947,10.8060236 105.471803,10.9513802 105.380533,11.0978635 C105.932662,11.3130813 106.47127,11.6578805 107.038048,11.7153471 C107.896666,11.8021103 107.826804,11.260122 107.514682,10.6595403 L105.653217,10.6595403 L105.653217,10.6595403 L105.653217,10.6595403 Z" id="Fill-100"></path>
                        <path d="M143.886494,21.2502852 L143.886494,15.7211028 L137.129105,15.7211028 L137.129105,14.6630424 L143.756912,14.6630424 C143.794096,13.8787932 143.826774,13.1835608 143.871845,12.2235316 C143.373802,12.3677613 142.943366,12.358747 142.790122,12.5604432 C142.061086,13.5193457 141.13148,13.6049821 139.987783,13.3153958 L139.987783,4.56808726 C140.679635,4.35624983 141.387263,4.51287431 142.212076,4.66273803 C143.922551,4.97260662 145.705141,4.89260418 147.458433,4.96359226 C147.529421,4.96697264 147.609424,4.87344867 147.673651,4.81260175 C148.204372,4.3179388 148.667484,3.50551971 149.513707,3.87623522 C150.158234,4.15793393 150.664165,4.75400841 151.218548,5.19909239 C150.083865,7.6532516 150.933469,10.1806525 150.551485,12.4984695 C151.467569,13.6680826 153.290724,13.6759701 153.46087,15.5385621 C152.40619,15.8394163 151.299677,15.6613827 150.219081,15.6906794 C149.102427,15.7211028 147.984647,15.6974401 146.670804,15.6974401 C146.670804,16.9684647 146.685452,18.1673745 146.667423,19.3651574 C146.643761,20.9798545 146.384598,21.2446512 144.768774,21.3370484 C144.507358,21.3516968 144.241434,21.2874695 143.886494,21.2502852 L143.886494,21.2502852 L143.886494,21.2502852 Z M147.750273,9.013293 L142.702232,9.013293 C142.742797,9.80542979 142.777727,10.4984086 142.808151,11.0899759 L147.750273,11.0899759 L147.750273,9.013293 L147.750273,9.013293 L147.750273,9.013293 Z M142.76984,8.26622801 L147.817881,8.26622801 C147.777316,7.47183763 147.741259,6.78111237 147.711962,6.19067187 L142.76984,6.19067187 L142.76984,8.26622801 L142.76984,8.26622801 L142.76984,8.26622801 Z M146.806019,14.4726141 L150.341901,14.4726141 C149.919353,13.96781 149.672585,13.4596255 149.48103,13.4799078 C148.48607,13.5858266 147.75478,13.396525 147.469701,12.3159287 C147.458433,12.270857 147.124902,12.309168 146.806019,12.309168 L146.806019,14.4726141 L146.806019,14.4726141 L146.806019,14.4726141 Z" id="Fill-101"></path>
                        <path d="M64.4091447,19.9071457 C63.0096655,20.3815264 61.7916002,20.6395624 60.3515564,20.9449238 C60.3109918,22.2204556 60.1104223,23.6323296 60.6186068,25.2436462 C59.4174435,25.3777348 57.9785264,25.2537874 56.5136931,25.3033663 C57.2156863,23.4813391 56.8607459,21.6739601 56.8855354,19.900385 C56.9103249,18.1932908 57.2145595,16.4366176 56.1519919,14.5683917 C58.1317705,14.5683917 59.8997117,14.4376835 61.6349758,14.6179707 C62.6321892,14.7227626 63.7679984,15.121648 64.4868936,15.7763158 C65.1246594,16.3577419 65.2722696,17.4755224 65.6396047,18.3668172 C66.582732,18.0558218 67.4954358,17.0022686 68.6650489,17.4315774 C69.7253629,17.8214485 70.6572222,18.5572455 71.5857012,19.103741 C71.5857012,20.3488493 71.5180935,21.3809934 71.5992227,22.399616 C71.75134,24.3027725 70.1681933,25.0115265 69.0301304,25.7371824 C68.0577065,26.3569195 66.7540048,25.7135197 65.841301,24.8965934 C64.8778914,24.0357221 64.1781518,23.0069584 64.2423791,21.6210007 C64.2637882,21.1533809 64.2457595,20.6835074 64.4091447,19.9071457 C64.4654845,19.7831983 64.3550586,19.8722151 64.2457595,19.9612319 C64.3291423,20.0457415 64.4136519,20.1302511 64.4981615,20.2136339 C64.5849247,20.1020813 64.6818291,19.9961625 64.74831,19.8733419 C64.7595779,19.8530596 64.6401377,19.7606624 64.4091447,19.9071457 L64.4091447,19.9071457 L64.4091447,19.9071457 Z M68.4396899,24.8210981 C68.7619533,24.4188324 69.2949272,24.0605116 69.2836593,23.7190928 C69.2329535,22.1641159 69.6712767,20.5606868 68.9918194,19.0609228 C68.8644916,18.7792241 68.4712402,18.6180924 68.2289793,18.4231569 C66.286385,19.460935 67.3117683,21.1488737 67.0897897,22.4976471 C66.9387992,23.4182385 66.9973925,24.3669998 68.4396899,24.8210981 L68.4396899,24.8210981 L68.4396899,24.8210981 Z M59.782525,15.6918062 C60.0101376,17.2681922 58.8889767,19.0721908 60.7718509,20.2981436 C62.5882442,19.4406527 62.9071272,18.0084964 62.451902,16.5098592 C62.1206243,15.4213754 60.9205878,15.7177224 59.782525,15.6918062 L59.782525,15.6918062 L59.782525,15.6918062 Z" id="Fill-102"></path>
                        <path d="M68.8115322,11.7446438 L68.8115322,5.80643482 C68.1467233,5.42445136 67.6498067,5.31177187 67.6396656,6.21771494 C67.6182565,7.99354365 67.6329048,9.76937235 67.6329048,11.644359 L64.9883173,11.644359 C64.9522598,11.5170312 64.824932,11.2680095 64.8204248,11.0189879 C64.7990157,9.79641543 64.8643698,8.57046262 64.792255,7.35239737 C64.7392956,6.47800456 64.5161902,5.61487969 64.3347762,4.54442457 C64.6345037,4.50724034 65.050291,4.45766137 65.4649515,4.4058288 C66.7078062,4.24695073 67.9765772,4.71795098 69.2306999,3.92018022 C69.6735303,3.6384815 70.6932797,4.26385265 71.630773,4.52526906 L71.630773,9.42231954 C71.9192325,9.46175736 72.0567015,9.5180971 72.0893785,9.47978607 C72.5322089,8.98174274 72.8826421,8.35862518 73.4122357,7.99354365 C73.9688723,7.61043339 74.7181909,7.52367019 75.3401817,7.21943558 C76.8816371,6.46448302 76.8658619,6.4464543 76.1120362,4.61541265 C76.0489357,4.46554893 76.1311917,4.25709188 76.1672491,3.80862752 C76.7633236,3.94722329 77.4179914,3.93370175 77.8563146,4.23455598 C78.7656381,4.86218072 79.3143872,5.83347789 79.4665045,6.92646891 C79.5814376,7.75691673 79.4236863,8.62342198 79.5104495,9.46063056 C79.57355,10.0555782 79.842854,10.6302436 80.095256,11.4674522 C79.2501599,11.5925264 78.7780328,13.0111612 77.4574292,11.8032371 C77.0495295,11.4291412 75.7356867,11.4381555 75.3131386,11.8111246 C74.514241,12.517625 74.1446523,12.1570507 73.4415323,11.7897155 C72.7654554,11.4381555 72.0116297,10.8691241 71.059488,11.6837968 C70.6346863,12.0466248 69.6431069,11.7446438 68.8115322,11.7446438 L68.8115322,11.7446438 L68.8115322,11.7446438 Z M76.4624694,7.67128032 C74.8049541,8.74624262 74.8049541,8.74624262 75.3739855,10.6493991 C76.9627663,10.2268511 76.7937471,9.09442223 76.4624694,7.67128032 L76.4624694,7.67128032 L76.4624694,7.67128032 Z" id="Fill-103"></path>
                        <path d="M30.8430525,25.1535026 L30.8430525,19.0913463 C29.7117505,19.0586692 29.2542717,19.5837556 29.2463842,20.5651939 C29.2339894,22.0604507 29.2430038,23.5568343 29.2430038,25.1726581 L26.4598205,25.1726581 L26.4598205,19.2783942 C25.8175474,19.4158632 25.2609107,19.6581241 24.7279368,19.6119255 C24.2524293,19.5713609 23.8028382,19.2119133 23.0907038,18.8750016 L23.0907038,25.2211103 L20.3278028,25.2211103 L20.3278028,18.1020204 C22.0889832,17.2366419 24.0135488,16.9493092 26.0676959,17.8496183 C26.4339042,18.01075 26.9499763,17.9048313 27.3781583,17.823702 C27.7083092,17.7594747 28.0294457,17.384252 28.3167784,17.4236899 C28.9105993,17.5036923 29.5754083,18.0411735 30.0306334,17.8811686 C30.510648,17.7098958 30.9151674,17.3448142 31.5123687,17.3786181 C32.2954911,17.4236899 32.2966179,17.3887592 33.6735612,18.719504 L33.6735612,25.1535026 L30.8430525,25.1535026" id="Fill-104"></path>
                        <path d="M50.6960512,17.955537 L53.49839,17.955537 C53.2876794,18.9076787 53.0499257,19.6513633 52.9687965,20.4130766 C52.7693538,22.2598934 52.103418,22.9348435 50.2498404,23.0396355 C49.8363067,23.0621714 49.4250266,23.1230183 49.0295216,23.6019061 C49.7461631,23.6019061 50.4729458,23.5241573 51.1783194,23.6176812 C52.4662459,23.7889541 54.0403784,25.1771653 54.0831966,26.0774744 C54.1316488,27.0600395 52.4290617,28.6026217 51.0273289,28.6589615 C49.4126319,28.7231888 47.7314539,28.9846052 46.2328168,27.8995017 C46.2170416,27.6628748 46.0987282,27.3473722 46.1978861,27.1321544 C46.5257834,26.4222736 47.0407287,25.7822542 47.2784824,25.0498375 C47.5184897,24.3061529 46.9855157,23.3686596 47.8508942,22.7320205 C47.9297698,22.6734271 47.8294851,22.1348192 47.6660998,22.0131253 C46.0649243,20.8153424 46.8367788,19.4800905 47.5027146,17.955537 L49.5670028,17.955537 C48.4649974,20.3296938 48.7207798,21.3325412 50.6960512,21.8204434 L50.6960512,17.955537 L50.6960512,17.955537 L50.6960512,17.955537 Z M51.9941189,26.9800371 C50.1484289,25.854369 50.1484289,25.854369 47.934277,26.0245151 L47.934277,27.3259631 C49.2695289,28.2161311 50.5811181,28.4313489 51.9941189,26.9800371 L51.9941189,26.9800371 L51.9941189,26.9800371 Z" id="Fill-105"></path>
                        <path d="M41.6636636,25.244773 L38.931186,25.244773 L38.931186,18.1515993 C39.3999327,18.0073696 40.0388254,17.9296208 40.5379955,17.6242594 C41.0315317,17.3222783 41.3244983,17.345941 41.7267641,17.7098958 C41.9014173,17.8687738 42.227061,17.9758193 42.458054,17.9397619 C44.8896773,17.5667928 44.8885505,17.5566517 46.1066157,18.7307719 L46.1066157,25.2267443 L43.3955473,25.2267443 L43.3955473,19.1285305 C42.1369174,18.9843008 41.7076086,19.5837556 41.6760583,20.509981 C41.6276061,22.0074914 41.6636636,23.5061285 41.6636636,25.244773" id="Fill-106"></path>
                        <path d="M94.7390821,16.5707062 C94.3638594,16.7453594 93.9886367,16.9188858 93.4917201,17.1498787 C93.9413113,17.3065032 94.2658282,17.4191827 94.7604912,17.5927091 C94.5644289,18.219207 94.2996321,18.840071 94.1801918,19.4868513 C93.8477873,21.2818355 93.8049691,21.3494432 92.1621022,21.3426824 C90.6150129,21.3370484 90.4910654,21.2119742 90.0166848,19.0079634 C89.6628712,19.8767223 89.3642706,20.6113925 89.0679235,21.3438092 C87.9084516,20.9077396 87.8509851,20.0975741 87.9715521,19.2716334 C88.0718369,18.5865422 88.2994494,17.9217332 88.4808634,17.2062185 C88.1000067,16.7025412 87.6785854,16.1436509 87.2042048,15.5148994 C87.7495735,15.2512294 88.1293034,15.0686886 88.4155093,14.9300928 C88.2442365,14.4726141 88.081978,14.0387981 87.9208463,13.6061089 C88.0447938,13.5114581 88.169868,13.4168073 88.2938154,13.3221566 C88.8515789,13.7018864 89.4104692,14.0804895 90.015558,14.4917696 C90.0944336,14.2585231 90.2026059,13.9418937 90.3096515,13.627518 C93.382421,13.3514532 93.4556627,13.3987786 94.7390821,16.5707062 L94.7390821,16.5707062 L94.7390821,16.5707062 Z M91.4510946,19.1826166 C91.4556018,19.3482555 91.4589822,19.5150211 91.4623626,19.68066 C91.9660399,19.6141791 92.4697172,19.5454446 92.9745213,19.4767101 C92.9666337,19.378679 92.9587462,19.2806478 92.9508586,19.1826166 L91.4510946,19.1826166 L91.4510946,19.1826166 L91.4510946,19.1826166 Z" id="Fill-107"></path>
                        <path d="M93.1886123,3.7049624 C93.7982084,4.63569495 94.2804766,5.371492 94.9024673,6.32138007 C94.4675245,6.50166725 94.1092037,6.64927738 93.5412991,6.8847775 C93.9491989,7.29267724 94.4089312,7.5867707 94.6264026,8.00706519 C95.01402,8.75525698 94.4889336,8.94568531 93.651725,8.96033364 L93.651725,11.4516771 C92.1271716,12.578472 91.9750543,10.4803799 91.2257357,10.6933441 C90.5778286,10.8781385 90.449374,12.3812828 89.136658,11.5497082 L89.136658,9.21386249 C88.5552318,8.74173544 88.5203012,9.45950377 88.2397293,9.47077172 C87.9873272,9.48203966 87.6380208,9.4302071 87.5039322,9.26569505 C87.3833652,9.11808492 87.3935063,8.6628598 87.5264681,8.54454634 C88.0312722,8.09833557 88.6104448,7.73325403 89.6437157,6.98844263 C89.169335,6.83181814 88.916933,6.74730853 88.6634042,6.66392571 C88.4211433,6.58617686 88.1788824,6.5129352 87.9569038,6.44194712 C87.9569038,5.73093956 88.9811603,4.39568765 89.6493497,4.44301303 C90.8696685,4.53090303 91.9581523,4.13427124 93.1886123,3.7049624 L93.1886123,3.7049624 L93.1886123,3.7049624 Z M92.1790041,9.02005377 C91.8139226,8.7282139 91.5941976,8.40707736 91.3474295,8.38341467 C90.6026181,8.3124266 90.7479747,8.94005133 90.8076948,9.33442954 C90.8471326,9.59359236 91.152494,9.81331735 91.339542,10.0510711 C91.5750421,9.76148479 91.811669,9.4730253 92.1790041,9.02005377 L92.1790041,9.02005377 L92.1790041,9.02005377 Z M93.0162127,5.65093713 C92.7085977,5.60586533 92.4573225,5.53825764 92.2116812,5.55403277 C92.1339323,5.55853995 92.069705,5.78277213 91.998717,5.90784636 C92.2443582,5.97094687 92.4888727,6.06334405 92.7378944,6.08137276 C92.8055021,6.08587994 92.8877581,5.85826738 93.0162127,5.65093713 L93.0162127,5.65093713 L93.0162127,5.65093713 Z" id="Fill-108"></path>
                        <path d="M14.3659312,25.3788616 C13.5174547,24.5303851 12.9213802,23.9343106 12.263332,23.2762624 C12.6193992,22.0289005 11.862193,20.6778734 12.8222222,19.3302268 C13.8194357,17.9273672 14.7265056,17.2219936 16.5012075,17.3910128 C17.8691364,17.521721 19.2505869,18.6361211 19.623556,19.9093993 C20.2185037,21.9387569 19.1795989,24.4199592 17.3136266,25.0385696 C16.3840208,25.3461846 15.3304676,25.2797037 14.3659312,25.3788616 L14.3659312,25.3788616 L14.3659312,25.3788616 Z M15.3789198,24.8503948 C16.2589466,24.4988348 16.8505139,24.2002342 16.8313584,23.2830232 C16.7986813,21.7302998 16.822344,20.1775765 16.822344,18.5752742 L15.4386399,18.5752742 C13.8228161,20.6001246 14.7096036,22.6170874 15.3789198,24.8503948 L15.3789198,24.8503948 L15.3789198,24.8503948 Z" id="Fill-109"></path>
                        <path d="M72.7519339,21.0981679 C72.5400964,19.642349 72.6246061,18.3025899 74.2415567,17.4327042 C74.2393031,17.4327042 74.4173367,17.3932664 74.5953703,17.3932664 C77.5779963,17.39552 77.563348,17.3989004 77.8112428,20.284622 C77.8461735,20.7004093 78.1537885,21.0869 78.2259033,21.5049409 C78.4264728,22.6700468 78.7431022,23.8926192 77.502501,24.7354617 C76.332888,25.5309789 75.1948251,26.513544 73.6668913,25.420553 C73.3987141,25.2289979 73.0234914,25.1873065 72.8082736,25.112938 L72.8082736,23.3235878 C73.7514009,24.5946124 74.7181909,25.0825146 75.9745672,24.5765837 C76.3238736,23.54782 76.096261,22.569762 74.9638322,22.5348314 C73.7874584,22.4999007 73.4561807,21.5894505 72.7519339,21.0981679 L72.7519339,21.0981679 L72.7519339,21.0981679 Z M77.1486874,20.0615166 C76.887271,19.5240355 76.6393762,19.0169778 76.3621846,18.4479464 C75.6985025,18.5369632 75.0359471,18.6237264 74.3125448,18.7206308 C74.8173489,20.5066006 75.9430169,20.3387082 77.1486874,20.0615166 L77.1486874,20.0615166 L77.1486874,20.0615166 Z" id="Fill-110"></path>
                        <path d="M81.6130487,23.4745783 C82.6282909,23.5883846 83.3269037,23.6661334 84.313976,23.7765593 C83.8294542,24.4188324 83.6007148,25.0036389 83.1838007,25.212096 C82.4953291,25.5557684 81.6885439,25.8059169 80.9279574,25.8183116 C80.1110311,25.8329599 78.9662076,24.1720643 78.9335305,23.1061164 C78.8952195,21.8914315 78.95832,20.6722395 78.9053606,19.4586814 C78.8873319,19.0462745 78.6518318,18.6417551 78.4411211,18.0073696 C78.8884587,17.5994699 79.441715,16.950436 80.1290599,16.51662 C80.6845697,16.16506 81.3854361,15.7357512 81.8012234,16.9245197 C81.9939054,17.4766492 82.7668866,17.8282092 83.297607,18.2879415 C80.4761127,19.1319109 82.2474342,21.5793093 81.6130487,23.4745783" id="Fill-111"></path>
                        <path d="M34.2640017,18.0513146 C34.9738825,17.9701854 35.4167129,17.9183528 36.0218017,17.8484915 C35.5992536,17.3098836 35.1124782,16.9042374 34.9265571,16.390419 C34.7496503,15.9058972 34.8882461,15.3064423 34.8882461,14.5683917 C35.42122,14.5683917 35.871938,14.5120519 36.3046272,14.5785328 C37.4066326,14.7475521 38.0263698,15.2872868 37.6364987,16.1515385 C37.17902,17.1690342 37.8336878,17.92286 37.7367835,18.8096475 C37.6263576,19.8271433 37.711994,20.8660482 37.711994,21.8948119 L37.711994,25.1839261 C36.8477423,25.2278711 35.9710959,25.2740697 35.0076863,25.3236487 C34.5626024,22.9111809 35.4336148,20.4626556 34.2640017,18.0513146" id="Fill-112"></path>
                        <path d="M59.9876017,4.46667572 L63.6012328,4.46667572 L63.6012328,11.606048 L60.9904491,11.606048 C60.392121,9.35583864 61.6259614,6.88027032 59.9876017,4.46667572" id="Fill-113"></path>
                        <path d="M60.8586141,1.12910934 C62.0823133,0.924032672 63.0840339,0.823747929 63.7770128,2.13871754 C63.3071393,2.68633984 62.7888137,3.29368227 62.155555,4.0328597 C61.6789208,3.65087624 61.0918606,3.39960099 60.9059395,2.97367253 C60.6986092,2.49929189 60.8586141,1.86603318 60.8586141,1.12910934" id="Fill-114"></path>
                        <path d="M73.8990111,7.31183276 C72.8037664,6.85210045 72.421783,6.06785123 72.7643286,5.27120726 C73.0877188,4.51738149 73.866334,4.0982138 74.8128417,4.50273316 C75.096794,5.58896341 75.2320094,6.61772712 73.8990111,7.31183276" id="Fill-115"></path>
                        <path d="M49.5670028,17.955537 C49.8013761,17.7673623 50.0357494,17.5791876 50.268996,17.3910128 C50.4120989,17.5791876 50.5540751,17.7673623 50.6960512,17.955537 L49.5670028,17.955537" id="Fill-116"></path>
                        <path d="M50.1168787,10.1783989 C50.477453,10.1468486 50.8380274,10.1164252 51.1986017,10.0848749 C51.2143769,10.2065688 51.230152,10.3271358 51.2448003,10.4499565 C50.8774652,10.5209445 50.5101301,10.5941862 50.1416681,10.6651743 C50.1337806,10.5029158 50.1247662,10.3406574 50.1168787,10.1783989" id="Fill-117"></path>
                    </g>
                </g>
            </g>
        </g>
    </g>
</svg>