<?xml version="1.0" encoding="UTF-8" standalone="no"?>
<svg width="124px" height="124px" viewBox="0 0 124 124" version="1.1" xmlns="http://www.w3.org/2000/svg" xmlns:xlink="http://www.w3.org/1999/xlink">
    <!-- Generator: Sketch 3.6.1 (26313) - http://www.bohemiancoding.com/sketch -->
    <title>Page 1</title>
    <desc>Created with Sketch.</desc>
    <defs>
        <path id="path-1" d="M0,123.752 L123.751,123.752 L123.751,-1.42108547e-14 L0,-1.42108547e-14 L0,123.752 Z"></path>
    </defs>
    <g id="Page-1" stroke="none" stroke-width="1" fill="none" fill-rule="evenodd">
        <g>
            <path d="M122.251,61.876 C122.251,95.221 95.22,122.252 61.875,122.252 C28.531,122.252 1.5,95.221 1.5,61.876 C1.5,28.531 28.531,1.5 61.875,1.5 C95.22,1.5 122.251,28.531 122.251,61.876 L122.251,61.876 Z" id="Stroke-1" stroke="#00BCD4" stroke-width="3" stroke-linecap="square" stroke-linejoin="round"></path>
            <mask id="mask-2" fill="white">
                <use xlink:href="#path-1"></use>
            </mask>
            <g id="Clip-4"></g>
            <path d="M44.4,54.442 L78.868,54.442 L78.868,19.974 L44.4,19.974 L44.4,54.442 Z" id="Stroke-3" stroke="#00BCD4" stroke-width="2.068" stroke-linecap="square" stroke-linejoin="round" mask="url(#mask-2)"></path>
            <path d="M63.3125,45.1856 L61.1025,45.1856 L61.1025,31.2476 L56.6685,32.7966 L56.6685,30.8976 L62.9675,28.6476 L63.3125,28.6476 L63.3125,45.1856 Z" id="Fill-5" fill="#00BCD4" mask="url(#mask-2)"></path>
            <path d="M25.489,92.587 L59.957,92.587 L59.957,58.119 L25.489,58.119 L25.489,92.587 Z" id="Stroke-6" stroke="#00BCD4" stroke-width="2.068" stroke-linecap="square" stroke-linejoin="round" mask="url(#mask-2)"></path>
            <path d="M48.5142,83.3301 L37.1752,83.3301 L37.1752,81.8271 L43.1652,75.4971 C44.0532,74.5391 44.6652,73.7611 45.0022,73.1621 C45.3382,72.5631 45.5072,71.9431 45.5072,71.3031 C45.5072,70.4431 45.2332,69.7391 44.6872,69.1881 C44.1402,68.6391 43.4112,68.3631 42.5002,68.3631 C41.4062,68.3631 40.5562,68.6591 39.9502,69.2511 C39.3442,69.8431 39.0412,70.6661 39.0412,71.7211 L36.8422,71.7211 C36.8422,70.2061 37.3552,68.9811 38.3812,68.0471 C39.4072,67.1131 40.7802,66.6451 42.5002,66.6451 C44.1082,66.6451 45.3802,67.0461 46.3152,67.8491 C47.2502,68.6521 47.7182,69.7201 47.7182,71.0541 C47.7182,72.6741 46.6322,74.6031 44.4612,76.8411 L39.8262,81.6231 L48.5142,81.6231 L48.5142,83.3301 Z" id="Fill-7" fill="#00BCD4" mask="url(#mask-2)"></path>
            <path d="M63.794,92.587 L98.262,92.587 L98.262,58.119 L63.794,58.119 L63.794,92.587 Z" id="Stroke-8" stroke="#00BCD4" stroke-width="2.068" stroke-linecap="square" stroke-linejoin="round" mask="url(#mask-2)"></path>
            <path d="M78.6768,74.0835 L80.3288,74.0835 C81.3668,74.0685 82.1828,73.8085 82.7778,73.3035 C83.3718,72.7985 83.6688,72.1165 83.6688,71.2575 C83.6688,69.3285 82.6588,68.3635 80.6378,68.3635 C79.6868,68.3635 78.9278,68.6215 78.3618,69.1375 C77.7958,69.6545 77.5118,70.3375 77.5118,71.1895 L75.3138,71.1895 C75.3138,69.8855 75.8148,68.8025 76.8168,67.9395 C77.8198,67.0765 79.0928,66.6455 80.6378,66.6455 C82.2708,66.6455 83.5508,67.0565 84.4768,67.8775 C85.4048,68.6985 85.8678,69.8405 85.8678,71.3025 C85.8678,72.0185 85.6238,72.7115 85.1368,73.3825 C84.6498,74.0535 83.9858,74.5545 83.1458,74.8855 C84.0968,75.1725 84.8318,75.6465 85.3508,76.3105 C85.8698,76.9735 86.1298,77.7835 86.1298,78.7405 C86.1298,80.2175 85.6218,81.3895 84.6078,82.2565 C83.5938,83.1235 82.2748,83.5565 80.6498,83.5565 C79.0258,83.5565 77.7038,83.1375 76.6858,82.3015 C75.6678,81.4645 75.1588,80.3605 75.1588,78.9895 L77.3698,78.9895 C77.3698,79.8555 77.6668,80.5495 78.2608,81.0695 C78.8558,81.5895 79.6518,81.8495 80.6498,81.8495 C81.7118,81.8495 82.5238,81.5855 83.0868,81.0585 C83.6488,80.5305 83.9308,79.7725 83.9308,78.7855 C83.9308,77.8295 83.6218,77.0945 83.0038,76.5815 C82.3848,76.0695 81.4938,75.8055 80.3288,75.7905 L78.6768,75.7905 L78.6768,74.0835 Z" id="Fill-9" fill="#00BCD4" mask="url(#mask-2)"></path>
        </g>
    </g>
</svg>