<?xml version="1.0" encoding="UTF-8" standalone="no"?>
<svg width="124px" height="124px" viewBox="0 0 124 124" version="1.1" xmlns="http://www.w3.org/2000/svg" xmlns:xlink="http://www.w3.org/1999/xlink">
    <!-- Generator: Sketch 3.8.3 (29802) - http://www.bohemiancoding.com/sketch -->
    <title>Artboard 1</title>
    <desc>Created with Sketch.</desc>
    <defs>
        <polygon id="path-1" points="0 123.751 123.751 123.751 123.751 0 0 0"></polygon>
    </defs>
    <g id="Page-1" stroke="none" stroke-width="1" fill="none" fill-rule="evenodd">
        <g id="Artboard-1">
            <g id="Page-1">
                <path d="M122.2515,61.8753 C122.2515,95.2203 95.2205,122.2513 61.8755,122.2513 C28.5315,122.2513 1.5005,95.2203 1.5005,61.8753 C1.5005,28.5303 28.5315,1.4993 61.8755,1.4993 C95.2205,1.4993 122.2515,28.5303 122.2515,61.8753 L122.2515,61.8753 Z" id="Stroke-1" stroke="#FF4081" stroke-width="3" stroke-linecap="square" stroke-linejoin="round"></path>
                <mask id="mask-2" fill="white">
                    <use xlink:href="#path-1"></use>
                </mask>
                <g id="Clip-4"></g>
                <polygon id="Stroke-3" stroke="#FF4081" stroke-width="2.25" stroke-linecap="square" stroke-linejoin="round" mask="url(#mask-2)" points="34.542 67.548 89.209 67.548 89.209 56.371 34.542 56.371"></polygon>
                <polygon id="Stroke-5" stroke="#FF4081" stroke-width="2.25" stroke-linecap="square" stroke-linejoin="round" mask="url(#mask-2)" points="34.542 82.631 89.209 82.631 89.209 71.454 34.542 71.454"></polygon>
                <polygon id="Stroke-6" stroke="#FF4081" stroke-width="2.25" stroke-linecap="square" stroke-linejoin="round" mask="url(#mask-2)" points="34.542 97.639 89.209 97.639 89.209 86.462 34.542 86.462"></polygon>
                <path d="M49.5578,52.8187 L42.8338,52.8187 L42.8338,39.3357 C42.8338,28.7357 51.4578,20.1117 62.0578,20.1117 C72.6578,20.1117 81.2818,28.7357 81.2818,39.3357 L81.2818,52.3427 L74.5578,52.3427 L74.5578,39.3357 C74.5578,32.4427 68.9508,26.8357 62.0578,26.8357 C55.1648,26.8357 49.5578,32.4427 49.5578,39.3357 L49.5578,52.8187 L49.5578,52.8187 Z" id="Stroke-7" stroke="#FF4081" stroke-width="2.25" stroke-linecap="square" stroke-linejoin="round" mask="url(#mask-2)"></path>
            </g>
        </g>
    </g>
</svg>