<?xml version="1.0" encoding="UTF-8" standalone="no"?>
<svg width="175px" height="46px" viewBox="0 0 175 46" version="1.1" xmlns="http://www.w3.org/2000/svg" xmlns:xlink="http://www.w3.org/1999/xlink">
    <!-- Generator: Sketch 3.8.3 (29802) - http://www.bohemiancoding.com/sketch -->
    <title>Artboard 1</title>
    <desc>Created with Sketch.</desc>
    <defs>
        <polygon id="path-1" points="0.4813 18 18.5783 18 18.5783 0.0845529357 0.4813 0.0845529357 0.4813 18"></polygon>
        <polygon id="path-3" points="8.622 14.1252265 8.622 0.859 0.456432712 0.859 0.456432712 14.1252265 8.622 14.1252265"></polygon>
    </defs>
    <g id="Page-1" stroke="none" stroke-width="1" fill="none" fill-rule="evenodd">
        <g id="Artboard-1">
            <g id="Page-1">
                <path d="M83.6603,10.5171 L85.4203,10.5171 L85.4203,9.5481 C85.0833,9.6311 84.8113,9.6981 84.5613,9.7591 C84.2603,9.7031 83.9843,9.6501 83.6603,9.5891 L83.6603,10.5171 Z M83.6143,4.3121 L83.6143,7.6681 C83.6143,7.8461 83.5893,8.0281 83.6213,8.2001 C83.6683,8.4511 83.7553,8.6951 83.8193,8.9171 C84.1253,9.0181 84.3543,9.0931 84.5543,9.1591 C84.7033,9.1121 84.8103,9.0831 84.9133,9.0431 C85.0353,8.9961 85.1543,8.9391 85.2513,8.8971 C85.5033,8.3751 85.5853,6.0481 85.3953,4.9591 C84.9803,4.6321 84.7213,4.0521 84.0523,3.9641 C83.8943,4.0901 83.7403,4.2121 83.6143,4.3121 L83.6143,4.3121 Z M83.6703,17.8421 C84.0843,18.0361 84.4063,17.9511 84.7143,17.7261 C85.2663,17.3221 85.4703,16.7551 85.4723,16.0991 C85.4773,14.7641 85.4793,13.4281 85.4693,12.0931 C85.4673,11.8561 85.4033,11.6201 85.3673,11.3771 C85.0753,11.2341 84.8203,11.1081 84.6083,11.0041 C83.7683,11.2881 83.6183,11.4781 83.6163,12.2651 C83.6113,13.9351 83.6123,15.6041 83.6173,17.2741 C83.6173,17.4671 83.6523,17.6601 83.6703,17.8421 L83.6703,17.8421 Z M88.5223,3.1041 C89.0213,3.0871 89.1583,2.4081 89.6703,2.6271 C89.7683,2.9191 89.5663,3.0481 89.4203,3.1481 C88.9153,3.4961 88.8263,3.9761 88.8293,4.5491 C88.8453,8.4061 88.8363,12.2621 88.8383,16.1191 C88.8393,16.7811 88.7053,17.4081 88.3113,17.9461 C87.9253,18.4731 87.3973,18.7601 86.7303,18.8081 C85.3963,18.9041 84.1223,18.6651 82.8683,18.2221 C82.5013,18.0931 82.0743,18.1441 81.6893,18.0521 C80.6943,17.8151 79.7123,17.7251 78.7303,18.1331 C78.5593,18.2741 78.3883,18.4151 78.2253,18.5491 C77.9433,19.3791 77.9843,19.5441 78.6413,20.1041 C79.5463,20.1241 80.4823,20.1601 81.4413,19.9511 C82.4783,19.7251 83.5113,19.4201 84.5933,19.4171 C85.0803,19.4151 85.5683,19.3061 86.0543,19.3141 C87.2303,19.3341 88.1413,19.8221 88.7363,20.8771 C88.9383,21.2351 88.9563,21.5951 88.9423,21.9721 C88.8943,23.3121 87.7273,24.5101 86.3833,24.5951 C86.0833,24.2241 86.5143,24.0631 86.6483,23.7321 L86.6483,22.9751 C86.2193,22.5381 85.7053,22.6531 85.2323,22.6871 C84.0333,22.7731 82.8763,23.1071 81.7053,23.3531 C81.4883,23.3981 81.2693,23.4521 81.0493,23.4591 C80.3813,23.4811 79.7123,23.4891 79.0433,23.4891 C77.8933,23.4881 77.1173,22.8921 76.6203,21.9021 C76.4613,21.5881 76.3313,21.2421 76.2723,20.8971 C76.0633,19.6731 76.7553,18.5321 77.7433,17.9971 C77.8783,17.9241 78.0173,17.8531 78.1433,17.7651 C78.2143,17.7161 78.2623,17.6351 78.3363,17.5511 L78.3363,11.4471 C77.7573,11.2581 77.7133,11.2771 77.2383,11.9041 C77.3173,12.1351 77.3983,12.3731 77.5043,12.6811 C76.6193,12.8371 76.2963,12.2451 75.8223,11.6551 L75.8223,10.0361 C76.4603,9.0531 77.2353,8.5131 78.3243,8.4431 C78.3443,8.1391 78.3723,7.9001 78.3743,7.6611 C78.3793,6.7471 78.3503,5.8321 78.3843,4.9201 C78.4093,4.2801 78.2083,3.7891 77.6373,3.4181 C76.9733,3.2811 76.7973,3.8621 76.5293,4.3011 C76.2043,3.9571 76.1543,3.6631 76.3353,3.2801 C76.7953,2.3071 77.5733,1.6741 78.6043,1.4851 C80.0843,1.2141 81.7263,2.1471 81.7293,3.9251 C81.7363,8.1611 81.7313,12.3961 81.7313,16.6321 L81.7313,17.5341 C82.1973,17.5841 82.5843,17.6271 83.0503,17.6771 C83.0693,17.4061 83.0983,17.1701 83.0993,16.9351 C83.1033,15.3751 83.0923,13.8141 83.1043,12.2541 C83.1113,11.2341 83.1683,10.2141 83.1663,9.1941 C83.1623,7.7471 83.1203,6.3001 83.1023,4.8521 C83.0933,4.0521 83.0953,3.2521 83.1053,2.4531 C83.1083,2.2461 83.1623,2.0401 83.1963,1.8061 C83.6603,1.8861 83.6023,2.1791 83.6143,2.4311 C83.6263,2.6901 83.6373,2.9481 83.6533,3.3291 C83.9283,3.2111 84.1203,3.1681 84.2623,3.0601 C84.7413,2.6981 85.1973,2.3061 85.6723,1.9391 C85.9153,1.7511 86.1793,1.5921 86.4733,1.3931 C87.1923,1.9941 87.8833,2.5711 88.5223,3.1041 L88.5223,3.1041 Z" id="Fill-1" fill="#008390"></path>
                <path d="M4.937,7.435 C4.37,7.684 3.855,7.91 3.398,8.111 C2.398,10.452 3.295,12.95 4.303,13.978 C4.529,13.842 4.768,13.698 4.982,13.569 C5.105,12.833 5.083,8.042 4.937,7.435 M5.888,4.874 C5.195,5.685 4.197,6.111 3.808,7.265 C5.381,6.785 6.673,6.003 8.081,5.474 C8.393,5.665 8.305,5.982 8.306,6.253 C8.314,8.059 8.312,9.865 8.308,11.67 C8.308,11.935 8.281,12.199 8.264,12.494 C7.082,13.178 5.817,13.685 4.644,14.385 C5.737,15.788 8.122,16.481 10.175,15.292 C10.205,15.095 10.273,14.84 10.277,14.584 C10.291,13.715 10.25,12.844 10.293,11.977 C10.324,11.345 10.066,10.911 9.588,10.556 C9.29,10.334 8.939,10.159 8.798,9.667 C8.987,9.479 9.172,9.221 9.42,9.065 C10.098,8.637 10.372,8.06 10.292,7.262 C10.239,6.737 10.282,6.203 10.282,5.649 C9.774,5.479 9.34,5.31 8.893,5.19 C7.541,4.829 6.185,4.483 4.828,4.139 C4.376,4.024 3.922,3.874 3.462,3.849 C3.108,3.83 2.744,3.98 2.492,4.033 C1.922,4.684 2.148,5.262 2.349,5.843 C2.032,5.994 1.793,5.875 1.586,5.706 C0.751,5.023 0.435,3.978 0.755,2.94 C1.225,1.416 2.409,0.759 3.863,0.463 C4.055,0.424 4.271,0.422 4.462,0.467 C5.477,0.702 6.49,0.939 7.478,1.29 C8.397,1.616 9.352,1.843 10.3,2.08 C10.907,2.232 11.251,2.028 11.575,1.416 C11.422,0.941 11.422,0.941 10.947,0.543 C10.678,0.387 10.299,0.572 10.095,0.243 C10.719,-0.157 11.821,-0.024 12.581,0.564 C12.911,0.82 13.224,1.092 13.399,1.51 C13.577,1.935 13.686,2.362 13.617,2.807 C13.553,3.219 13.412,3.62 13.314,3.99 C12.529,4.945 12.442,5.002 10.81,5.622 L10.81,8.4 C11.219,8.955 11.829,9.21 12.228,9.791 C11.743,10.219 11.301,10.609 10.87,10.99 C10.736,11.786 10.768,14.251 10.931,14.75 C11.046,14.678 11.167,14.629 11.255,14.545 C11.885,13.943 12.456,13.294 12.851,12.505 C12.911,12.386 13.036,12.299 13.168,12.156 C13.505,12.682 13.402,13.186 13.291,13.633 C13.006,14.783 12.563,15.876 11.774,16.791 C11.27,17.374 10.629,17.78 9.943,18.104 C9.443,18.34 8.923,18.553 8.39,18.695 C7.988,18.801 7.553,18.791 7.132,18.808 C5.437,18.875 3.936,18.322 2.626,17.281 C1.69,16.538 1.053,15.568 0.581,14.453 C0.206,13.566 0.206,12.632 0.016,11.725 C-0.04,11.462 0.065,11.153 0.137,10.876 C0.28,10.322 0.301,9.754 0.536,9.201 C1.324,7.351 2.648,6.046 4.4,5.135 C4.712,4.973 5.053,4.857 5.392,4.76 C5.509,4.727 5.662,4.818 5.888,4.874" id="Fill-3" fill="#008390"></path>
                <path d="M127.1599,13.5469 C127.3099,12.4069 127.2539,7.9069 127.0729,7.4169 C126.5129,7.6699 125.9569,7.9209 125.4609,8.1449 C124.7339,10.2489 125.2509,13.1369 126.4589,13.9269 C126.6839,13.8049 126.9139,13.6799 127.1599,13.5469 M132.3119,11.0989 C131.8549,10.7219 131.4439,10.3829 130.9989,10.0149 C130.9889,9.8709 130.9769,9.6989 130.9649,9.5159 C131.4129,9.1569 131.8449,8.8099 132.2449,8.4899 C132.4569,7.7179 132.4839,6.2359 132.2979,5.5589 C131.7429,5.4209 131.1619,5.2769 130.5819,5.1309 C129.9359,4.9679 129.2909,4.8069 128.6469,4.6369 C127.6389,4.3719 126.6369,4.0789 125.6229,3.8409 C125.1289,3.7259 124.6909,3.9529 124.3759,4.3289 C124.0919,4.6679 124.1079,5.0639 124.3169,5.4579 C124.3739,5.5649 124.3769,5.7009 124.4019,5.8139 C124.1419,5.9999 123.9499,5.8869 123.7629,5.7589 C122.9869,5.2269 122.6059,4.0149 122.8339,3.0859 C123.2689,1.3099 124.6639,0.6339 126.0899,0.4869 C126.7889,0.4149 127.5389,0.6689 128.2429,0.8599 C129.1419,1.1039 130.0139,1.4479 130.9059,1.7229 C131.4149,1.8789 131.9399,1.9829 132.4579,2.1099 C132.5009,2.1209 132.5449,2.1309 132.5889,2.1349 C133.0669,2.1729 133.6019,1.8099 133.6599,1.4079 C133.7109,1.0579 133.3609,0.6489 132.9069,0.5009 C132.6719,0.4239 132.3559,0.5509 132.1839,0.2159 C132.2549,0.1599 132.3129,0.0779 132.3859,0.0619 C133.5799,-0.2091 134.9479,0.4429 135.4369,1.3649 C136.0229,2.4699 135.7449,4.3799 134.2549,5.0989 C133.8379,5.3009 133.3929,5.4429 132.8639,5.6499 C132.8599,6.0709 132.8539,6.5539 132.8519,7.0369 C132.8499,7.5039 132.8509,7.9699 132.8509,8.4479 C133.3069,8.8189 133.7369,9.1679 134.1959,9.5419 C134.1839,9.6989 134.1719,9.8689 134.1609,10.0039 C133.7069,10.3699 133.2929,10.7029 132.8619,11.0489 C132.8509,12.2859 132.8339,13.5009 132.8739,14.8399 C133.5479,14.5529 133.8699,14.0799 134.1979,13.6249 C134.5179,13.1819 134.8149,12.7229 135.1669,12.2039 C135.2599,12.3679 135.3829,12.4879 135.3879,12.6109 C135.4079,13.1879 135.4349,13.7649 135.2049,14.3239 C134.9509,14.9389 134.7009,15.5459 134.3449,16.1179 C133.7919,17.0069 133.0169,17.6139 132.1059,18.0599 C131.5709,18.3209 131.0049,18.5349 130.4329,18.7009 C130.0769,18.8039 129.6839,18.7839 129.3079,18.8069 C127.3699,18.9289 125.7299,18.1889 124.3259,16.9439 C123.5459,16.2519 123.0489,15.3209 122.6249,14.3479 C122.2729,13.5399 122.2269,12.6939 122.1859,11.8669 C122.1349,10.8279 122.3029,9.7899 122.7899,8.8259 C123.6009,7.2189 124.8219,6.0339 126.4029,5.2069 C126.7369,5.0319 127.0939,4.8979 127.4499,4.7739 C127.5519,4.7379 127.6899,4.8049 127.8709,4.8339 C127.6219,5.3759 127.1089,5.5739 126.7949,5.9549 C126.5009,6.3139 126.0359,6.5809 126.0489,7.2019 C126.2079,7.1809 126.3429,7.1919 126.4509,7.1439 C127.0779,6.8619 127.6949,6.5579 128.3229,6.2789 C128.9269,6.0099 129.5409,5.7629 130.0979,5.5279 C130.4399,5.6479 130.4499,5.8769 130.4499,6.1019 C130.4519,8.0419 130.4559,9.9819 130.4459,11.9229 C130.4449,12.1349 130.3609,12.3479 130.3159,12.5579 C129.1349,13.1549 127.9919,13.7319 126.8599,14.3039 C127.1269,15.5109 130.1369,16.6209 132.2659,15.3019 C132.3049,15.1799 132.4099,15.0109 132.4009,14.8479 C132.3359,13.5869 132.5659,12.3149 132.3119,11.0989" id="Fill-5" fill="#008390"></path>
                <path d="M39.3761,6.1487 L39.3761,14.1767 C40.3371,14.6947 41.2871,15.2067 42.2621,15.7327 C42.4711,15.5717 42.7131,15.3847 43.0491,15.1257 C43.0791,15.3367 43.1451,15.4837 43.1041,15.5887 C43.0411,15.7477 42.9151,15.8877 42.7961,16.0177 C42.0451,16.8377 41.2881,17.6527 40.5311,18.4727 C40.2001,18.6087 39.9461,18.4877 39.6861,18.2657 C39.1751,17.8277 38.6001,17.5677 37.7971,17.8027 C37.6261,17.9607 37.3831,18.1857 37.1401,18.4097 C37.0361,18.9637 37.3351,19.2867 37.5911,19.6217 C37.8031,19.8707 38.2771,19.7557 38.3661,20.1777 C38.2981,20.4237 38.1161,20.4807 37.9001,20.4547 C35.6081,20.1807 34.3931,17.9177 35.6961,15.9067 C36.3041,14.9697 37.2411,14.6117 38.2621,14.3877 C38.4321,14.3507 38.6071,14.3417 38.8331,14.3137 C38.9741,13.1817 38.8821,12.0717 38.8861,10.9667 C38.8861,10.8307 38.7751,10.6947 38.6901,10.5017 C38.4291,10.5667 38.2031,10.6237 38.0471,10.6627 C37.6661,11.0717 37.9111,11.4387 37.9811,11.8147 C37.6411,12.0377 37.3521,12.0017 37.0631,11.7587 C36.3161,11.1327 36.0131,10.3467 36.1851,9.3837 C36.2201,9.1867 36.2621,8.9907 36.2951,8.8237 C36.9071,7.9287 37.7411,7.4927 38.8021,7.4957 C38.8431,7.3137 38.8951,7.1887 38.8971,7.0627 C38.9061,6.4607 38.8991,5.8587 38.9051,5.2567 C38.9111,4.6307 38.5701,4.1997 38.0831,3.8907 C37.9021,3.7747 37.6321,3.8007 37.5001,3.7787 C37.0291,4.0427 37.0941,4.6767 36.5501,4.6887 C36.5051,4.6547 36.4421,4.6307 36.4401,4.6017 C36.3361,3.1677 36.7851,2.0227 37.8571,1.3857 C38.7111,0.8787 40.2091,0.9547 41.0911,1.9357 C41.6831,2.5937 42.0371,3.3857 42.4651,4.1327 C43.3931,5.7507 44.2711,7.3977 45.1671,9.0347 C45.5061,9.6547 45.8351,10.2817 46.1781,10.9007 C46.3021,11.1247 46.4511,11.3347 46.6501,11.6487 C46.9121,11.0087 46.7771,10.4757 46.8001,9.9607 C46.8241,9.4047 46.8051,8.8467 46.8051,8.2887 C46.8051,7.7537 46.8201,7.2187 46.8011,6.6837 C46.7821,6.1587 46.9041,5.6167 46.6951,5.1357 C45.9621,4.8247 45.2731,4.5317 44.5001,4.2037 C44.2911,4.3737 44.0221,4.5927 43.7211,4.8387 C43.6311,4.7427 43.5501,4.6547 43.4271,4.5237 C44.3531,3.4707 45.2581,2.4407 46.1241,1.4557 C46.4641,1.3147 46.6871,1.3907 46.9231,1.5727 C47.3871,1.9337 47.6601,2.0237 48.3271,2.1307 C49.0211,1.9597 49.4831,1.5167 49.7261,0.8527 C50.0801,0.9267 50.0801,1.1847 50.1251,1.3817 C50.4371,2.7567 49.5341,4.3377 48.1811,4.7867 C47.8411,4.8997 47.4891,4.9777 47.2681,5.3377 C47.2591,5.3997 47.2331,5.4867 47.2331,5.5747 C47.2301,7.6477 47.2141,9.7217 47.2321,11.7947 C47.2491,13.7537 47.3011,15.7127 47.3361,17.6717 C47.3431,18.0327 47.3361,18.3907 46.9931,18.6247 C46.6291,18.7087 46.4691,18.4917 46.3171,18.2177 C45.7581,17.2077 45.1811,16.2077 44.6201,15.1977 C43.5421,13.2567 42.4661,11.3127 41.3971,9.3667 C40.8841,8.4317 40.3921,7.4857 39.8821,6.5507 C39.7921,6.3837 39.6571,6.2417 39.5421,6.0887 C39.4871,6.1087 39.4311,6.1287 39.3761,6.1487" id="Fill-7" fill="#008390"></path>
                <path d="M67.4117,8.802 C67.8077,8.416 68.1977,8.026 68.5997,7.647 C68.8417,7.42 69.1057,7.215 69.3527,6.992 C69.7477,6.636 69.9877,6.623 70.4027,6.96 C70.8507,7.324 71.2937,7.696 71.7437,8.059 C71.8267,8.126 71.9337,8.164 72.0497,8.226 C72.3177,8.031 72.5777,7.842 72.8647,7.634 C73.1127,7.969 73.0157,8.162 72.7707,8.352 C72.5257,8.543 72.2997,8.76 72.0647,8.965 C71.8317,9.17 71.5977,9.376 71.3017,9.636 L71.3017,15.43 C69.5697,16.562 67.8447,17.642 66.0327,18.663 C65.1657,17.998 64.3427,17.367 63.4967,16.717 C62.6687,17.359 61.8837,17.967 61.0907,18.581 C60.0867,18.234 59.5517,17.299 58.6537,16.923 C58.2227,16.763 58.0047,17.484 57.5097,17.198 C57.5737,16.773 57.9527,16.645 58.2357,16.333 C58.2587,16.161 58.3157,15.923 58.3167,15.684 C58.3247,14.079 58.3117,12.474 58.3247,10.87 C58.3307,10.251 58.1327,9.758 57.6627,9.338 C57.3187,9.031 57.0337,8.654 56.7477,8.288 C56.2167,7.608 56.3657,6.333 57.0017,5.563 C57.5247,4.93 58.2057,4.598 58.9627,4.375 C59.0227,4.358 59.0957,4.372 59.1587,4.386 C59.1997,4.395 59.2337,4.43 59.3067,4.476 C59.1647,5.019 58.5047,5.413 58.8397,6.261 C59.1027,6.479 59.4577,6.862 59.8887,7.113 C60.9827,7.749 61.4637,8.634 61.3997,9.918 C61.3247,11.43 61.3797,12.948 61.3837,14.464 C61.3847,14.728 61.4107,14.992 61.4267,15.278 C61.9217,15.668 62.4037,16.047 62.8277,16.381 C63.2217,16.292 63.2557,16.075 63.2557,15.841 C63.2567,13.947 63.2677,12.052 63.2417,10.158 C63.2387,9.92 63.0717,9.667 62.9327,9.452 C62.8027,9.252 62.6087,9.094 62.4637,8.94 C62.5907,8.366 62.5907,8.366 64.5987,6.73 C64.7587,6.77 65.0357,6.759 65.1977,6.891 C65.8147,7.394 66.3947,7.942 66.9527,8.441 C67.0117,9.055 66.4637,9.22 66.2627,9.64 L66.2627,15.336 C66.8517,15.812 67.4497,16.297 68.1227,16.842 C68.1877,16.613 68.2487,16.497 68.2487,16.381 C68.2537,14.264 68.2527,12.147 68.2497,10.029 C68.2487,9.942 68.2197,9.855 68.1757,9.611 C67.9627,9.474 67.6427,9.268 67.3227,9.062 L67.4117,8.802 Z" id="Fill-9" fill="#008390"></path>
                <g id="Group-13" transform="translate(107.000000, 27.261500)">
                    <mask id="mask-2" fill="white">
                        <use xlink:href="#path-1"></use>
                    </mask>
                    <g id="Clip-12"></g>
                    <path d="M8.4563,7.6844 C8.5883,6.5174 8.5673,6.1674 8.3543,5.6054 C7.5193,5.4734 7.4903,5.4754 6.8283,5.7394 C6.7663,6.4964 6.7023,7.2794 6.8923,8.1234 C7.4763,7.9594 7.9543,7.8254 8.4563,7.6844 L8.4563,7.6844 Z M12.4153,8.3374 C12.3793,9.5494 12.9013,10.4374 13.6173,11.4424 C14.2643,10.4344 14.1723,9.4604 14.2733,8.5484 C13.6723,8.1404 13.1153,8.2674 12.4153,8.3374 L12.4153,8.3374 Z M12.7343,14.1064 C12.4473,13.1394 12.0903,12.2454 11.9303,11.3174 C11.7663,10.3594 11.7923,9.3694 11.7303,8.3154 C11.5673,8.3864 11.3783,8.4084 11.3113,8.5104 C11.2273,8.6394 11.2193,8.8334 11.2183,8.9994 C11.2143,11.0964 11.2143,13.1934 11.2243,15.2904 C11.2253,15.4334 11.3173,15.5754 11.3933,15.7954 C12.0213,15.3134 12.2493,14.6414 12.7343,14.1064 L12.7343,14.1064 Z M13.0563,7.0314 C12.9623,6.7724 12.8213,6.5254 12.7903,6.2654 C12.7333,5.7864 12.5743,5.4024 12.1633,5.1174 C12.0363,5.0294 11.9963,4.8174 11.8463,4.5284 L13.5123,4.5284 C14.0113,3.7404 14.1633,2.7354 13.9323,2.0434 C13.0783,1.8374 11.8813,1.8684 11.2933,2.1114 C11.1323,3.2184 11.1873,7.1734 11.3953,7.8324 C12.2843,7.9744 13.2083,7.9904 14.1233,7.8184 C14.5003,7.7484 14.8083,7.4834 15.0283,7.0314 L13.0563,7.0314 Z M15.3423,0.2044 C16.0243,0.6814 16.6873,1.1464 17.4143,1.6554 C17.3363,1.9264 17.3183,2.1854 17.1943,2.3774 C16.8583,2.8964 16.7143,3.4494 16.6853,4.0624 C16.6413,4.9774 16.4213,5.8514 15.8313,6.5614 C16.4373,7.3134 17.4383,7.5664 17.7783,8.4884 C17.5183,8.8164 17.3083,9.0804 17.1583,9.2694 C16.9093,10.0844 16.7203,10.8274 16.4533,11.5404 C16.2033,12.2094 15.6383,12.7594 15.6583,13.6414 C16.6053,14.2204 17.5573,14.8034 18.5783,15.4284 C17.9833,15.8014 17.4093,16.0574 16.9773,16.4634 C16.5343,16.8804 16.2313,17.4454 15.8263,18.0004 C14.7303,17.5334 14.3343,16.3974 13.4783,15.6034 C12.6823,16.1264 11.8893,16.6454 11.0983,17.1684 C10.3683,17.6504 9.6123,18.0404 8.6143,17.9804 C8.5823,17.5854 8.5333,17.2554 8.5323,16.9264 C8.5263,14.4814 8.5303,12.0364 8.5273,9.5914 C8.5273,9.2884 8.5003,8.9854 8.4793,8.5354 C7.8873,8.9144 7.4193,9.2134 6.8833,9.5554 C6.8503,9.8604 6.7863,10.1904 6.7833,10.5214 C6.7703,11.7154 6.7483,12.9104 6.7883,14.1024 C6.8183,15.0284 6.6773,15.9094 6.3403,16.7654 C5.3773,17.6804 4.1173,18.0854 3.3593,17.7594 C3.1253,17.1804 2.9893,16.5764 2.6613,16.1074 C2.3523,15.6654 1.8403,15.3654 1.3443,14.9404 C2.1553,14.4984 3.0193,14.9854 3.7723,14.6684 C4.0663,14.0684 4.1113,12.0764 3.8233,11.2274 C3.2213,11.6614 2.6353,12.0844 1.9763,12.5584 C1.3603,11.8544 0.9453,11.0594 0.5463,10.2604 C0.4583,10.0844 0.4993,9.8454 0.4813,9.6384 C1.6323,9.1414 2.8743,9.2794 3.9603,8.6344 C4.0103,7.6424 4.0933,6.6394 3.8833,5.5714 C2.9083,5.5444 1.9933,5.5184 1.0773,5.4934 C1.0733,5.4244 1.0703,5.3554 1.0663,5.2864 C1.4833,5.0684 1.9613,5.2104 2.4073,5.1854 C2.8563,5.1584 3.3083,5.1794 3.8033,5.1794 C4.1773,4.3104 3.9613,3.4524 3.9983,2.6234 C4.0343,1.8124 4.0063,0.9974 4.0063,0.0944 C5.1153,-0.0236 5.8453,0.9554 6.8993,1.0814 C7.0533,2.0024 6.5083,2.8664 6.9153,3.7714 C7.0413,3.7044 7.1573,3.6464 7.2693,3.5794 C7.3623,3.5234 7.4503,3.4554 7.5643,3.3764 C7.8333,3.6114 8.0853,3.8314 8.4173,4.1214 C8.4623,3.8844 8.5223,3.7114 8.5243,3.5374 C8.5353,2.7414 8.5143,1.9454 8.5373,1.1504 C8.5453,0.8564 8.6413,0.5654 8.7213,0.1504 C9.1303,0.3574 9.4383,0.4834 9.7143,0.6594 C10.5983,1.2204 11.5243,1.5844 12.6023,1.4584 C12.9943,1.4134 13.3953,1.4514 13.7853,1.4514 C14.2943,1.0434 14.7763,0.6574 15.3423,0.2044 L15.3423,0.2044 Z" id="Fill-11" fill="#008390" mask="url(#mask-2)"></path>
                </g>
                <path d="M151.3749,9.008 C151.1959,9.09 151.0799,9.144 150.9339,9.211 L150.9339,15.344 C151.1109,15.539 151.3199,15.769 151.5919,16.068 C151.5439,16.22 151.5359,16.463 151.4109,16.603 C150.8509,17.235 150.2579,17.839 149.6569,18.473 C149.4159,18.362 149.2359,18.322 149.1159,18.216 C148.3209,17.508 147.5809,16.54 147.4619,16.065 C147.5669,15.92 147.6819,15.76 147.8259,15.561 L147.8259,10.411 C147.3389,10.014 147.1379,9.261 146.3719,9.115 C146.1759,9.65 146.1109,13.461 146.2449,15.288 C146.4129,15.72 147.0909,15.889 146.8569,16.586 C146.2429,17.191 145.6369,17.9 144.8839,18.487 C144.7149,18.398 144.5499,18.356 144.4539,18.252 C143.8289,17.567 143.2179,16.868 142.5799,16.148 C142.7929,15.831 142.9629,15.577 143.1469,15.301 L143.1469,10.311 C142.7379,9.931 142.4919,9.409 141.9799,9.109 C141.7209,9.271 141.4849,9.42 141.1969,9.601 C141.1189,9.427 141.0629,9.303 141.0039,9.172 C141.9119,8.391 142.7869,7.639 143.6849,6.867 C143.8479,6.878 144.0199,6.89 144.1919,6.902 C144.1589,6.946 144.1249,6.99 144.0909,7.034 C144.7199,7.565 145.3489,8.096 146.0449,8.684 C146.7709,8.12 147.5719,7.498 148.3419,6.899 C148.8829,6.751 149.1009,7.139 149.3689,7.423 C149.7039,7.779 150.0249,8.149 150.3569,8.508 C150.4299,8.586 150.5279,8.641 150.6549,8.738 C151.1199,8.385 151.5559,8.005 152.0379,7.699 C152.5159,7.396 152.8309,6.841 153.5169,6.733 C154.0999,7.356 154.6869,7.984 155.3209,8.661 C155.6789,8.505 156.0279,8.354 156.3799,8.201 C156.5039,8.537 156.5039,8.537 155.6599,9.323 L155.6599,14.82 C155.8799,15.19 156.1139,15.616 156.5359,15.821 C156.8749,15.837 157.0379,15.39 157.3929,15.637 C157.4799,15.85 157.3409,16.018 157.2049,16.144 C156.3889,16.898 155.5609,17.639 154.7339,18.38 C154.6879,18.422 154.6139,18.433 154.5589,18.457 C154.0429,18.184 152.8879,16.98 152.2719,16.076 C152.3959,15.75 152.5659,15.433 152.6309,15.096 C152.6929,14.773 152.6459,14.429 152.6459,14.095 C152.6459,13.07 152.6369,12.044 152.6499,11.019 C152.6559,10.589 152.5269,10.247 152.2099,9.947 C151.9229,9.675 151.6799,9.355 151.3749,9.008" id="Fill-14" fill="#008390"></path>
                <path d="M20.3741,6.5574 C20.5791,6.6934 20.7851,6.7834 20.9271,6.9334 C21.4481,7.4804 21.9481,8.0474 22.3871,8.5324 C22.9281,8.8504 23.2391,8.0934 23.7081,8.4064 C23.7951,8.7094 23.5341,8.8294 23.3801,8.9284 C22.9201,9.2264 22.8421,9.6374 22.8471,10.1394 C22.8641,12.0334 22.8981,13.9284 22.8351,15.8214 C22.8051,16.7164 22.8121,17.6314 22.4111,18.4974 C21.9681,19.4554 21.2911,20.1394 20.3691,20.6034 C19.6551,20.9624 18.8851,21.0594 18.0981,21.0154 C17.8701,21.0024 17.6451,20.9184 17.2891,20.8374 C17.5031,20.6674 17.5861,20.5614 17.6921,20.5244 C18.8961,20.1024 19.5031,19.2034 19.6671,17.9924 C19.7601,17.3114 19.7821,16.6174 19.7891,15.9284 C19.8061,14.3234 19.7401,12.7164 19.8121,11.1154 C19.8591,10.0744 19.2661,9.4924 18.6421,8.8814 C18.0531,9.0764 17.9131,9.4704 17.9171,9.9904 C17.9321,11.6174 17.9251,13.2444 17.9211,14.8714 C17.9201,15.3184 17.9791,15.7224 18.5261,15.9144 C18.7351,15.8364 18.9791,15.7464 19.2471,15.6474 C19.4381,15.9194 19.2791,16.0974 19.0841,16.2534 C18.2001,16.9604 17.3111,17.6624 16.3981,18.3874 C15.4811,18.1504 15.1571,17.0974 14.2431,16.8374 C14.0241,16.8724 13.7641,17.2404 13.4951,16.7414 C13.8721,16.4114 14.2641,16.0674 14.6891,15.6954 L14.6891,4.2594 C14.6011,4.0084 14.1371,3.8534 14.4021,3.3954 C15.2961,2.7064 16.2321,1.9924 17.1601,1.2674 C17.3771,1.0984 17.5851,1.0504 17.8971,1.2084 C17.9761,3.5994 17.8661,6.0144 17.9591,8.4974 C18.5321,8.2974 18.8011,7.8734 19.1611,7.5694 C19.5341,7.2544 19.9111,6.9434 20.3741,6.5574" id="Fill-16" fill="#008390"></path>
                <path d="M115.927,18.3356 C114.681,16.3546 113.41,14.3326 112.138,12.3106 C112.092,12.3186 112.045,12.3266 111.998,12.3356 C111.937,12.8256 111.98,13.3236 111.972,13.8176 C111.964,14.3066 111.971,14.7966 111.971,15.4106 C112.18,15.6086 112.435,15.8486 112.673,16.0726 C112.965,15.9186 113.189,15.7986 113.413,15.6796 C113.453,15.7106 113.493,15.7416 113.533,15.7716 C113.482,15.9196 113.476,16.1156 113.374,16.2066 C112.548,16.9496 111.704,17.6726 110.862,18.3976 C110.815,18.4386 110.739,18.4456 110.63,18.4856 C109.792,18.1996 109.407,17.2506 108.576,16.9216 C108.214,16.8866 108.03,17.4256 107.588,17.2096 C107.831,16.5166 108.564,16.2876 108.934,15.6706 L108.934,15.1846 C108.933,11.8636 108.941,8.5436 108.923,5.2226 C108.921,4.8346 108.825,4.4316 108.692,4.0646 C108.609,3.8346 108.376,3.6586 108.141,3.3746 C108.21,3.2596 108.273,3.0276 108.425,2.9176 C109.398,2.2126 110.389,1.5326 111.379,0.8526 C111.481,0.7826 111.621,0.7696 111.716,0.7396 C112.039,0.9046 111.967,1.1746 111.969,1.4086 C111.974,2.3446 111.971,3.2806 111.971,4.2166 C111.97,6.1786 111.97,8.1396 111.97,10.1006 L111.97,10.9016 C112.149,10.7076 112.24,10.6296 112.306,10.5336 C113.081,9.4216 113.849,8.3036 114.628,7.1946 C114.789,6.9656 114.993,6.7686 115.208,6.5206 C115.546,6.7426 115.82,6.9226 116.141,7.1336 L117.438,7.1336 C117.73,6.9256 117.974,6.7516 118.245,6.5586 C118.508,6.9256 118.471,7.2686 118.353,7.5676 C118.133,8.1236 117.881,8.6606 117.469,9.1266 C116.823,9.8566 115.627,9.9846 114.892,9.6626 C114.678,9.5686 114.456,9.4906 114.102,9.3526 C114.181,9.6296 114.188,9.7816 114.26,9.8906 C114.969,10.9676 115.692,12.0356 116.404,13.1106 C116.857,13.7946 117.298,14.4876 117.747,15.1746 C117.891,15.3956 118.046,15.6106 118.24,15.8926 C118.454,15.7826 118.646,15.7026 118.819,15.5916 C119.052,15.4426 119.252,15.3856 119.45,15.7096 C118.676,16.3906 117.912,17.0616 117.149,17.7346 C116.982,17.8816 116.811,18.0246 116.653,18.1816 C116.461,18.3716 116.248,18.4456 115.927,18.3356" id="Fill-18" fill="#008390"></path>
                <path d="M93.3169,34.2283 C93.5819,33.4823 93.5709,30.7503 93.3189,30.1323 L92.0319,30.1323 C91.8219,31.1713 91.8769,33.6463 92.1169,34.2283 L93.3169,34.2283 Z M91.9629,34.7033 C91.8979,36.2513 91.8629,37.7213 91.9819,39.2233 L93.4549,39.2233 C93.5199,37.6893 93.5539,36.2193 93.4349,34.7033 L91.9629,34.7033 Z M101.2779,32.4103 C101.2999,31.9953 101.3249,31.7173 101.3269,31.4393 C101.3309,30.3593 101.3169,29.2783 101.3359,28.1973 C101.3409,27.9123 101.4389,27.6283 101.4949,27.3393 C102.6139,27.6013 104.0099,28.3553 104.3889,28.8923 C104.0439,29.7133 103.9589,30.5823 104.3979,31.6003 C104.5229,31.3493 104.6469,31.0993 104.7529,30.8853 C105.8439,31.1193 106.1629,31.9813 106.8049,32.6153 C105.9899,33.2713 105.0279,32.7053 104.1559,33.1093 C104.1339,33.3903 104.0859,33.7193 104.0859,34.0483 C104.0799,36.6653 104.0829,39.2813 104.0829,41.8983 C104.0829,42.1253 104.0919,42.3533 104.0789,42.5803 C104.0189,43.6033 103.5949,44.3833 102.5759,44.7283 C102.0669,44.9003 101.5469,45.0423 101.0249,45.1703 C100.9059,45.1993 100.7599,45.1103 100.6109,45.0723 C100.5529,44.9273 100.4909,44.8023 100.4529,44.6693 C100.1759,43.6923 99.6359,42.9343 98.6769,42.5253 C98.4219,42.4173 98.2109,42.2933 98.3509,41.9183 L101.1509,41.9183 C101.3709,41.2223 101.4019,33.7763 101.2099,32.9593 C100.6239,32.7583 97.5419,32.7113 96.4619,32.9113 C96.4429,33.1883 96.4229,33.4953 96.4009,33.8303 C97.6039,34.0963 98.4889,34.7463 99.3459,35.4543 C99.8719,35.8893 100.1839,36.4523 100.3859,37.0773 C100.5929,37.7193 100.1929,38.2193 99.8919,38.7213 C99.7789,38.9083 99.5679,39.0373 99.3529,39.2383 L98.5099,39.2383 C98.0109,38.7663 97.8979,38.1403 97.8159,37.5803 C97.6399,36.3743 97.1409,35.3153 96.5899,34.2073 C96.2539,34.4503 96.3619,34.7813 96.3609,35.0603 C96.3519,36.9653 96.3569,38.8713 96.3569,40.7763 L96.3569,41.6533 C95.7399,42.4933 95.4749,42.6283 93.7379,42.9953 C93.1939,41.9903 93.7359,40.8323 93.3999,39.7973 C92.9569,39.5523 92.5229,39.5973 91.9919,39.7693 C91.9349,40.6143 91.8769,41.4723 91.8169,42.3533 C90.9249,42.6733 90.1989,43.2463 89.1599,42.9493 C89.1259,42.6743 89.0649,42.4043 89.0649,42.1333 C89.0589,37.8383 89.0589,33.5443 89.0639,29.2493 C89.0649,28.9823 89.1179,28.7153 89.1519,28.4053 C89.9569,28.5063 90.5009,28.9353 91.1069,29.2173 C91.4879,29.3943 91.8799,29.5753 92.2869,29.6633 C92.9319,29.8023 93.5249,29.6783 93.9849,29.1333 C94.1829,28.9003 94.4369,28.7153 94.6629,28.5113 C95.6059,28.6033 96.1189,29.3163 96.7649,29.7163 C97.0669,30.2593 96.6389,30.5393 96.3969,30.9013 L96.3969,32.1853 C96.5119,32.2613 96.6259,32.3993 96.7399,32.4003 C98.2109,32.4153 99.6819,32.4103 101.2779,32.4103 L101.2779,32.4103 Z" id="Fill-20" fill="#008390"></path>
                <path d="M80.718,44.9049 C80.595,44.7079 80.38,44.5119 80.351,44.2919 C80.227,43.3439 79.616,42.7909 78.873,42.3229 C78.619,42.1619 78.369,41.9949 78.018,41.7659 C78.256,41.6379 78.393,41.4999 78.517,41.5099 C79.023,41.5499 79.526,41.6349 80.029,41.7049 C80.472,41.7669 80.914,41.8309 81.365,41.8959 C81.869,41.1379 81.947,40.3039 81.985,39.5559 C82.11,37.0739 82.378,34.5859 82.143,32.0219 C81.001,31.8369 79.913,31.9079 78.814,31.9719 C78.331,32.6479 77.873,33.2879 77.413,33.9329 C77.71,34.5299 78.284,34.7179 78.728,35.0399 C79.221,35.3969 79.639,35.8049 79.951,36.3209 C80.776,37.6819 80.259,38.9739 78.651,39.4399 C78.474,39.3469 78.254,39.2309 78.069,39.1339 C77.914,38.3229 77.77,37.5749 77.629,36.8259 C77.492,36.1029 77.296,35.4039 76.849,34.7019 C76.377,35.1529 75.939,35.5719 75.483,36.0089 C75.267,35.5369 75.267,35.5369 75.954,33.5449 C75.685,33.4319 75.524,33.6039 75.391,33.7719 C74.396,35.0309 73.168,36.0359 71.911,37.0119 C71.768,37.1229 71.667,37.2879 71.419,37.5769 C72.938,37.4689 74.275,37.3739 75.62,37.2779 C75.755,37.7039 75.509,37.8309 75.252,37.9719 C74.133,38.5829 73.016,39.1959 71.905,39.8209 C71.562,40.0139 71.243,40.2489 70.909,40.4679 C70.548,40.5179 70.317,40.3379 70.166,40.0289 C69.859,39.3969 69.556,38.7629 69.244,38.1139 C69.766,37.6069 70.311,37.1539 70.757,36.6199 C71.183,36.1089 71.506,35.5119 71.772,34.8209 C71.023,35.2329 70.274,35.6449 69.51,36.0649 C68.648,35.4619 68.782,34.4409 68.37,33.6509 C68.707,33.2999 69.095,33.0269 69.303,32.6539 C69.785,31.7909 70.206,30.8909 70.601,29.9839 C70.972,29.1309 71.278,28.2489 71.64,27.3089 C72.619,27.4249 73.398,27.9549 74.233,28.3099 C74.429,28.3939 74.55,28.6539 74.716,28.8449 C73.204,30.3049 71.763,31.6969 70.259,33.1489 C71.121,33.3989 71.912,33.2639 72.77,33.1059 C72.932,32.8489 73.143,32.5789 73.283,32.2759 C73.421,31.9739 73.489,31.6389 73.598,31.2819 C74.667,31.2479 75.381,32.0569 76.356,32.3079 C76.991,30.7089 77.36,29.0999 77.619,27.3919 C78.747,27.2619 79.501,28.1759 80.51,28.2639 C80.624,28.4839 80.725,28.6789 80.799,28.8219 C80.281,29.6629 79.797,30.4469 79.282,31.2819 C79.501,31.3639 79.601,31.4329 79.701,31.4339 C80.438,31.4439 81.175,31.4389 81.835,31.4389 C82.555,31.0199 82.865,30.1899 83.719,30.0029 C84.41,30.5349 85.076,31.0479 85.802,31.6079 C85.507,32.0259 85.267,32.3659 84.948,32.8199 C84.948,34.1819 85.017,35.6629 84.93,37.1349 C84.827,38.8589 84.675,40.5909 84.383,42.2919 C84.071,44.1139 82.923,44.8609 80.718,44.9049" id="Fill-22" fill="#008390"></path>
                <path d="M95.8077,16.4273 C95.8577,16.2283 95.9047,16.1263 95.9047,16.0253 C95.9107,14.3103 95.9197,12.5943 95.8977,10.8803 C95.8947,10.6623 95.7677,10.4033 95.6157,10.2393 C95.1927,9.7833 94.7307,9.3633 94.2717,8.9403 C94.1717,8.8483 94.0247,8.8083 93.8867,8.7373 C93.7467,9.2743 93.7057,13.6673 93.8247,14.7353 C94.4157,15.2783 94.9387,15.9983 95.8077,16.4273 L95.8077,16.4273 Z M99.6747,9.0053 C99.0847,9.1703 98.8877,9.5963 98.8887,10.1663 C98.8927,11.7473 98.8897,13.3293 98.8897,14.9103 L98.8897,15.7273 C97.2767,16.6533 95.7047,17.5613 94.1237,18.4543 C94.0017,18.5243 93.8217,18.4923 93.6537,18.5093 C92.8017,17.7923 91.9557,17.0793 91.1307,16.3853 C90.7497,16.3553 90.5057,16.8763 90.0797,16.5283 C90.1397,16.4273 90.1777,16.2843 90.2697,16.2253 C90.6367,15.9903 90.7157,15.6533 90.7127,15.2483 C90.7027,13.5333 90.7087,11.8183 90.7087,10.1033 L90.7087,9.2503 C92.3197,8.3683 93.9067,7.4993 95.5537,6.5973 C96.5667,7.3123 97.4217,8.2213 98.4937,9.0133 C98.6117,8.9653 98.7867,8.9013 98.9557,8.8233 C99.1077,8.7523 99.2527,8.6653 99.4527,8.5573 C99.5427,8.7523 99.6027,8.8843 99.6637,9.0163 L99.6747,9.0053 Z" id="Fill-24" fill="#008390"></path>
                <g id="Group-28" transform="translate(166.000000, 5.261500)">
                    <mask id="mask-4" fill="white">
                        <use xlink:href="#path-3"></use>
                    </mask>
                    <g id="Clip-27"></g>
                    <path d="M3.7164,3.476 L3.7164,5.596 C3.9964,5.913 4.2324,6.3 4.6824,6.412 C5.2874,6.021 6.2844,4.998 6.5384,4.508 C6.0604,4.442 5.5644,4.449 5.1274,4.291 C4.6674,4.125 4.2634,3.802 3.7164,3.476 M5.7704,10.8 L5.7704,7.932 C5.4794,7.663 5.1764,7.382 4.8454,7.076 C4.0224,7.866 3.1744,8.535 2.4644,9.424 C3.0604,9.622 3.6384,9.435 4.1994,9.669 C4.7704,9.907 5.1684,10.338 5.7704,10.8 M6.8804,5.113 C7.4214,5.557 7.9654,6.005 8.5944,6.521 C8.6484,7.799 8.6044,9.15 8.6174,10.413 C8.3394,10.9 7.9004,10.991 7.5474,11.211 C6.5864,11.809 5.6404,12.432 4.6884,13.044 C4.5964,13.104 4.4994,13.156 4.3314,13.253 C4.1354,13.124 3.9014,13.006 3.7134,12.837 C3.3154,12.479 2.8754,12.351 2.2894,12.513 C2.1864,12.634 2.0474,12.799 1.8794,12.997 C2.1224,13.361 2.3484,13.698 2.6034,14.08 C2.1334,14.223 1.8064,13.996 1.5434,13.828 C0.4794,13.146 0.1584,11.738 0.7504,10.724 C1.0724,10.173 1.5024,9.684 1.8934,9.175 C2.0394,8.985 2.2114,8.816 2.3604,8.649 C2.1614,7.874 1.3434,7.731 0.9834,7.044 L0.9834,3.877 C2.3754,3.04 3.7604,2.207 5.2094,1.334 C5.6644,1.598 6.1544,1.883 6.6664,2.181 C7.0184,2.059 7.3494,1.944 7.6714,1.832 C7.7694,1.522 7.8544,1.257 7.9804,0.859 C8.1984,1.117 8.3434,1.289 8.4534,1.42 C8.5214,2.561 8.2114,3.283 6.8804,5.113" id="Fill-26" fill="#008390" mask="url(#mask-4)"></path>
                </g>
                <path d="M60.3082,29.6872 C60.0992,30.8122 59.8832,35.1322 60.0072,35.5382 C60.8132,35.7542 60.9132,35.7432 61.5072,35.3602 C61.8892,33.5332 61.9372,31.6802 61.8862,29.8392 C61.3422,29.5632 60.8652,29.4612 60.3082,29.6872 M60.8932,43.8072 C61.1102,41.2292 61.3212,38.7242 61.5312,36.2322 C60.9282,35.9192 60.4072,36.0052 59.8952,36.1052 C59.6652,36.7562 59.1722,43.0802 59.3002,43.7442 C59.7702,43.9792 60.2642,43.8922 60.8932,43.8072 M57.0722,36.1362 C56.7282,36.0952 56.4342,36.0532 56.1382,36.0282 C55.8382,36.0022 55.5372,35.9932 55.2372,35.9772 C55.2312,35.9092 55.2242,35.8412 55.2182,35.7732 C55.8182,35.6892 56.4182,35.6052 57.0832,35.5122 C57.1542,35.1622 57.2502,34.8702 57.2672,34.5732 C57.3592,33.0492 57.4302,31.5242 57.5152,29.8552 C56.9502,29.1392 55.9262,29.8462 55.1782,29.2822 C55.4062,29.2572 55.6352,29.2102 55.8642,29.2092 C57.4552,29.2032 59.0462,29.1832 60.6362,29.2182 C61.3432,29.2332 61.9092,29.0502 62.3692,28.5042 C62.5462,28.2942 62.7902,28.1412 63.0852,27.8932 C63.7832,28.4132 64.4512,28.9092 65.1752,29.4482 C65.0232,29.7342 64.9502,29.9942 64.7832,30.1582 C64.3792,30.5572 64.3412,31.0332 64.3122,31.5602 C64.2252,33.1152 64.0872,34.6662 63.9682,36.2182 C63.8442,37.8292 63.7242,39.4402 63.5952,41.0512 C63.5462,41.6712 63.4722,42.2892 63.4242,42.9082 C63.4112,43.0662 63.4562,43.2292 63.4982,43.5932 C63.8732,42.9962 64.1492,42.5562 64.4612,42.0592 C65.4912,42.3862 65.8252,43.3752 66.4942,43.9682 C66.4032,44.3742 66.1362,44.4042 65.8832,44.3952 C64.1282,44.3322 62.3662,44.5572 60.6152,44.2612 C60.2842,44.2052 59.9272,44.2082 59.5962,44.2622 C58.3812,44.4622 57.1782,44.4452 55.9582,44.2652 C55.2622,44.1622 54.5402,44.2452 53.8302,44.2372 C53.5552,44.2342 53.2812,44.2132 52.8132,44.1902 C53.4862,43.7112 54.0612,43.9342 54.5902,43.8942 C55.1202,43.8552 55.6562,43.8862 56.2972,43.8862 C56.4192,42.5382 56.5252,41.2792 56.6512,40.0232 C56.7742,38.7852 56.9182,37.5502 57.0722,36.1362" id="Fill-29" fill="#008390"></path>
                <path d="M52.4239,9.0143 C52.3879,9.0113 52.3519,9.0093 52.3159,9.0063 L52.3159,13.2373 C52.8899,12.8273 53.4049,12.4603 53.9809,12.0483 C53.9239,11.8113 53.9179,11.5603 53.8089,11.3673 C53.3639,10.5733 52.8879,9.7973 52.4239,9.0143 M57.1809,14.5653 C56.9809,14.8213 56.8759,15.0233 56.7139,15.1533 C55.3099,16.2753 53.8949,17.3843 52.4149,18.5503 C52.2209,18.4493 51.9889,18.3773 51.8209,18.2323 C51.2169,17.7073 50.6389,17.1543 50.0429,16.6213 C49.8829,16.4783 49.6949,16.3673 49.5259,16.2453 C49.2419,16.4293 49.0079,16.5823 48.7329,16.7613 C48.6449,16.6033 48.5869,16.4993 48.5179,16.3763 C48.7549,16.1633 48.9659,15.9733 49.2329,15.7333 L49.2329,9.5473 C50.9119,8.5783 52.5519,7.6313 54.1409,6.7153 C54.7659,6.8893 54.8349,7.4263 55.0739,7.8013 C55.5499,8.5463 55.9649,9.3313 56.3949,10.1053 C56.4869,10.2693 56.5379,10.4573 56.6369,10.7053 C55.1809,11.7873 53.7599,12.8433 52.3639,13.8803 C52.1839,14.2603 52.3439,14.5093 52.5889,14.7363 C53.1109,15.2193 53.6309,15.7033 54.2169,16.2493 C54.3769,16.1783 54.5869,16.1263 54.7489,16.0073 C55.3049,15.6023 55.8449,15.1763 56.3889,14.7553 C56.6459,14.5563 56.6439,14.5543 57.1809,14.5653" id="Fill-31" fill="#008390"></path>
                <path d="M163.1031,11.8359 C162.6751,10.7529 161.8851,9.5699 161.4301,9.3559 C161.3381,9.9689 161.3751,10.5659 161.3871,11.1569 C161.3991,11.7609 161.2901,12.3809 161.4941,13.0679 C162.1741,12.7289 162.7231,12.4019 163.1031,11.8359 M163.2741,16.2169 C163.8201,16.2009 164.0991,15.8489 164.4291,15.6029 C164.7851,15.3389 165.1031,15.0219 165.4611,14.7619 C165.6781,14.6049 165.9081,14.3619 166.3081,14.6149 C165.6201,15.4399 164.7271,15.9779 163.9341,16.6269 C163.1311,17.2849 162.3071,17.9169 161.4521,18.5909 C161.1851,18.4069 160.9551,18.2799 160.7631,18.1099 C160.2461,17.6539 159.7511,17.1749 159.2371,16.7169 C159.0421,16.5439 158.8191,16.4039 158.6081,16.2479 C158.3121,16.4299 158.0591,16.5849 157.7701,16.7619 C157.6901,16.5969 157.6451,16.5059 157.5951,16.4019 C157.8541,16.1589 158.0951,15.9329 158.3991,15.6479 L158.3991,9.5199 C160.0361,8.5699 161.6411,7.6389 163.2891,6.6829 C163.4631,6.8349 163.6501,6.9349 163.7441,7.0899 C164.3381,8.0799 164.9191,9.0769 165.4861,10.0819 C165.5891,10.2649 165.6091,10.4939 165.6801,10.7479 C164.7601,11.4259 163.8691,12.0839 162.9761,12.7389 C162.6191,13.0009 162.2531,13.2539 161.8951,13.5159 C161.6981,13.6589 161.5091,13.8129 161.3001,13.9759 C161.6971,15.1009 162.6641,15.5259 163.2741,16.2169" id="Fill-33" fill="#008390"></path>
                <path d="M29.6659,11.8207 C29.3599,11.3157 29.1069,10.9017 28.8579,10.4857 C28.6159,10.0797 28.4689,9.6087 28.0319,9.2607 C27.9549,9.4157 27.8699,9.5197 27.8539,9.6337 C27.7529,10.3197 27.8409,12.6227 27.9929,13.0447 C28.6609,12.7897 29.1769,12.3557 29.6659,11.8207 M32.1659,10.7357 C30.6819,11.8367 29.2619,12.8907 27.7879,13.9847 C28.2559,15.0687 29.1249,15.6477 29.9779,16.3137 C30.5889,15.8357 31.1449,15.3977 31.7039,14.9657 C31.9149,14.8027 32.1279,14.6387 32.3579,14.5067 C32.4459,14.4577 32.5849,14.4987 32.7539,14.4987 C32.6179,15.0027 32.2449,15.2327 31.9299,15.4817 C30.9369,16.2667 29.9209,17.0217 28.9169,17.7917 C28.5879,18.0447 28.2669,18.3077 27.9429,18.5647 C26.8439,17.9257 26.1429,16.9367 25.1849,16.2837 C24.8029,16.3217 24.5579,16.9237 24.0559,16.4567 C24.3159,16.1897 24.5679,15.9297 24.8649,15.6247 L24.8649,9.5737 C25.1129,9.3967 25.3169,9.2237 25.5439,9.0917 C26.7929,8.3677 28.0489,7.6547 29.2989,6.9337 C29.5649,6.7797 29.8239,6.6807 30.1789,6.9377 C30.7519,8.1767 31.7289,9.2997 32.1659,10.7357" id="Fill-35" fill="#008390"></path>
                <path d="M99.6637,9.0163 C99.9887,8.7953 100.3337,8.5973 100.6327,8.3463 C101.0757,7.9753 101.4757,7.5553 101.9137,7.1783 C102.1237,6.9983 102.3787,6.8703 102.6567,6.6893 C103.1907,7.2863 103.6717,7.8243 104.2137,8.4303 C104.7967,7.8723 105.3197,7.3713 105.8897,6.8253 C106.2697,6.9493 106.6567,7.1683 107.0507,7.1793 C107.4367,7.1903 107.8287,6.9893 108.2467,6.8743 C108.4897,7.2993 108.4407,7.7553 108.3007,8.1603 C107.9687,9.1173 107.3437,9.7983 106.3057,10.0333 C105.7697,10.1543 105.3657,9.8583 104.9317,9.6513 C104.8187,9.5973 104.7217,9.5103 104.6077,9.4323 C104.4277,9.9253 104.3657,13.8573 104.5057,15.4553 C104.7867,15.7003 105.1137,15.9853 105.4457,16.2753 C105.7997,16.0513 106.0877,15.8693 106.4107,15.6653 C106.4997,15.8263 106.5497,15.9163 106.5937,15.9953 C106.1517,16.5443 103.9007,18.3413 103.4157,18.5113 C102.7457,17.8943 102.0517,17.2543 101.3437,16.6033 C101.0487,16.8203 100.8237,16.9863 100.5557,17.1833 C100.4637,17.0263 100.3937,16.9073 100.3017,16.7493 C100.6677,16.4133 101.0077,16.1003 101.3697,15.7683 C101.3807,15.6063 101.4017,15.4313 101.4027,15.2553 C101.4117,13.8503 101.4187,12.4463 101.4227,11.0423 C101.4257,10.0033 101.4157,9.9853 100.5857,9.1733 C100.3527,9.3183 100.1137,9.4673 99.8817,9.6113 C99.5987,9.4603 99.6957,9.2143 99.6747,9.0053 L99.6637,9.0163 Z" id="Fill-37" fill="#008390"></path>
                <path d="M138.9827,18.3362 C138.4517,17.7372 137.9087,17.1242 137.3247,16.4652 C137.0527,16.6602 136.8277,16.8222 136.6047,16.9822 C136.2097,16.6552 136.2167,16.6362 136.9787,16.0152 L136.9787,10.1792 C136.6857,9.8412 136.3587,9.4622 136.1027,9.1672 C135.6437,9.0892 135.3927,9.6692 134.9717,9.2052 C135.3447,8.8502 135.6967,8.4922 136.0737,8.1602 C136.5067,7.7792 136.9707,7.4312 137.4027,7.0482 C137.6107,6.8632 137.8157,6.8012 138.1137,6.9092 C138.6517,7.5372 139.2147,8.1942 139.8027,8.8812 C139.9957,8.7702 140.1597,8.6652 140.3337,8.5772 C140.4967,8.4952 140.6707,8.4322 140.9047,8.3332 C140.9037,8.9952 140.3467,9.1462 140.1057,9.5812 L140.1057,15.1072 C140.4137,15.4482 140.7337,15.8022 141.0427,16.1462 C141.3947,15.9822 141.6797,15.8492 141.9907,15.7032 C142.1187,16.0562 141.9337,16.2032 141.7767,16.3482 C141.1727,16.9062 140.5747,17.4732 139.9467,18.0032 C139.7067,18.2072 139.4637,18.5002 138.9827,18.3362" id="Fill-39" fill="#008390"></path>
                <path d="M50.689,33.0784 C51.448,33.3604 51.938,33.3474 53.028,33.0304 C53.276,32.4774 53.541,31.8874 53.831,31.2414 C54.974,31.3254 55.792,32.0624 56.883,32.5424 C55.923,33.4084 55.055,34.1944 54.185,34.9774 C53.306,35.7684 52.424,36.5574 51.479,37.4044 C52.029,37.7054 52.523,37.5124 53.005,37.4824 C53.627,37.4444 54.249,37.3874 54.872,37.3704 C55.045,37.3654 55.221,37.4734 55.558,37.5824 C53.925,38.7574 52.185,39.4474 50.674,40.6334 C50.043,39.8024 49.689,38.9194 49.289,38.0444 C49.86,37.5154 50.427,37.0584 50.909,36.5244 C51.373,36.0114 51.75,35.4184 52.112,34.8014 C51.053,34.9304 50.413,35.9914 49.23,36.0154 C49.081,35.1314 48.38,34.4384 48.661,33.4584 C49.932,32.9234 50.284,31.6864 50.786,30.6014 C51.258,29.5814 51.565,28.4864 51.976,27.3384 C53.055,27.2504 53.854,28.0544 54.941,28.3554 C54.844,28.6594 54.836,28.9734 54.676,29.1424 C53.72,30.1514 52.732,31.1304 51.748,32.1124 C51.588,32.2714 51.385,32.3854 51.218,32.5374 C51.039,32.6994 50.878,32.8824 50.689,33.0784" id="Fill-41" fill="#008390"></path>
                <path d="M138.0695,2.3588 C138.6385,2.9618 139.1655,3.5208 139.7535,4.1428 C139.6525,4.3468 139.5955,4.5968 139.4425,4.7468 C138.9205,5.2568 138.3645,5.7318 137.7595,6.2768 C137.5545,6.1818 137.3035,6.1308 137.1495,5.9808 C136.7855,5.6268 136.4765,5.2158 136.1265,4.8458 C135.9375,4.6458 135.8775,4.4358 135.9645,4.0958 C136.6005,3.5738 137.1275,2.8148 138.0695,2.3588" id="Fill-43" fill="#008390"></path>
                <path d="M76.7267,40.41 C74.5347,41.801 72.4767,43.106 70.3467,44.457 C69.5707,43.711 69.0827,42.799 68.6987,41.773 C68.8867,41.659 68.9957,41.547 69.1197,41.525 C70.2327,41.33 71.3527,41.178 72.4607,40.959 C73.4577,40.762 74.4437,40.507 75.4287,40.255 C75.8137,40.156 76.1797,40.035 76.7267,40.41" id="Fill-45" fill="#008390"></path>
                <path d="M55.9189,40.3997 C54.3039,41.9967 52.4349,43.1247 50.7559,44.4777 C50.0669,44.1617 49.0939,42.7667 48.8249,41.7027 C48.9039,41.6477 48.9869,41.5497 49.0849,41.5297 C50.0259,41.3397 50.9729,41.1777 51.9119,40.9777 C52.9319,40.7617 53.9489,40.5237 54.9609,40.2737 C55.2649,40.1977 55.5469,40.0717 55.9189,40.3997" id="Fill-47" fill="#008390"></path>
            </g>
        </g>
    </g>
</svg>