<?xml version="1.0" encoding="UTF-8" standalone="no"?>
<svg width="176px" height="25px" viewBox="0 0 176 25" version="1.1" xmlns="http://www.w3.org/2000/svg" xmlns:xlink="http://www.w3.org/1999/xlink" xmlns:sketch="http://www.bohemiancoding.com/sketch/ns">
    <!-- Generator: Sketch 3.3.2 (12043) - http://www.bohemiancoding.com/sketch -->
    <title>nytimes</title>
    <desc>Created with Sketch.</desc>
    <defs></defs>
    <g id="Page-1" stroke="none" stroke-width="1" fill="none" fill-rule="evenodd" sketch:type="MSPage">
        <g id="lantern_home_desktop" sketch:type="MSArtboardGroup" transform="translate(-200.000000, -1680.000000)" fill="#FFFFFF">
            <g id="nytimes" sketch:type="MSLayerGroup" transform="translate(200.000000, 1680.000000)">
                <path d="M0.563397432,10.4105795 C1.60568268,9.4043517 1.85019717,7.77951351 3.17981511,7.00991262 C3.51672677,6.81385031 3.93927484,6.76765172 4.3223851,6.65271864 L4.3223851,7.19019979 C2.65022152,10.1581775 2.92065229,12.972911 5.21255304,15.7020082 C5.75454137,15.9701854 6.4948456,16.3352669 7.53825764,16.8479586 C10.0972088,17.2547315 11.974449,15.5521445 13.7423902,13.5025046 C13.2995598,16.5504847 11.6623268,18.4435001 8.91858135,19.4024025 C6.92866162,19.9241086 5.02212471,19.4339528 3.39390613,18.2733541 C2.22767345,17.4429063 1.15158435,16.3499152 1.10087858,14.7070483 C0.895801917,14.1785815 1.59779512,13.3481337 0.563397432,13.0957317 L0.563397432,10.4105795" id="Fill-49" sketch:type="MSShapeGroup"></path>
                <path d="M12.375588,0.746059967 C13.4325216,1.69144086 14.3779025,2.68640072 13.9271845,4.29659058 C13.3637871,4.85886122 12.7970093,5.42676583 12.2189635,6.0048116 C8.97041391,6.71469236 6.20638611,4.38448058 2.93530062,4.44194712 C2.58712101,4.99069622 2.23556101,5.54507929 1.88512781,6.09608198 C0.946507686,5.31746673 0.929605763,4.50279404 1.37807012,3.33430777 C1.80625217,2.21427367 2.68064498,1.86609406 3.68011203,1.2869215 C6.36639098,0.944375863 8.76646404,3.10444162 11.590212,2.88246303 C12.2809372,2.02722573 11.5372526,1.42439048 11.3028793,0.746059967 L12.375588,0.746059967" id="Fill-50" sketch:type="MSShapeGroup"></path>
                <path d="M134.260988,1.81989547 C134.081828,1.4627015 133.902668,1.10438073 133.723507,0.746059967 L135.334824,0.746059967 L135.334824,1.28241432 C134.976503,1.4627015 134.619309,1.64186188 134.260988,1.81989547" id="Fill-51" sketch:type="MSShapeGroup"></path>
                <path d="M0.563397432,13.0957317 C1.59779512,13.3481337 0.895801917,14.1785815 1.10087858,14.7070483 L0.563397432,14.7070483 L0.563397432,13.0957317" id="Fill-52" sketch:type="MSShapeGroup"></path>
                <path d="M113.267673,17.1375449 C112.661458,17.9792606 112.252431,18.548292 111.965098,18.9483042 C110.599423,19.2615532 110.282794,18.1809569 109.561645,17.6738992 C109.561645,16.0975132 109.476009,14.4907037 109.586434,12.8985426 C109.69348,11.363848 109.032051,9.72999542 110.126169,8.34178415 C109.083884,6.86793646 109.787004,5.23408391 109.498544,3.55290597 C110.443925,2.92415444 111.417476,2.27624739 112.698642,1.42439048 L112.698642,11.270324 C114.077839,11.5768122 113.383733,9.70520593 114.498133,9.87422516 C114.856454,9.16096401 115.214775,8.44770286 115.546053,7.78852787 L119.225038,7.78852787 C119.254334,9.12716017 117.977676,9.44604311 117.493154,10.3711417 L114.84744,10.3711417 C116.3765,12.6912123 117.774853,14.8095867 119.014327,16.6902073 C118.304446,17.4102292 117.591185,18.1347583 116.811443,18.9257683 C115.63845,17.0812051 114.365172,15.082271 113.051329,13.016856 C112.343702,14.7093019 113.052455,16.1685013 113.267673,17.1375449" id="Fill-53" sketch:type="MSShapeGroup"></path>
                <path d="M96.6429419,7.42569992 C97.7122702,8.49502825 98.4706032,9.25336119 99.2942902,10.0759214 L99.2942902,16.6811929 C97.8091746,17.5037532 96.2880015,18.3454689 94.725137,19.2119742 C93.4924235,18.3172991 92.3949253,17.5217819 91.3323577,16.752181 L91.3323577,10.6821371 C92.6518345,8.95814094 94.8231682,8.61108812 96.6429419,7.42569992 L96.6429419,7.42569992 Z M96.62604,11.1587713 C95.911652,10.6269241 96.1020804,9.18011952 94.6316131,9.39421055 L94.6316131,14.9335341 C95.6062906,15.9070849 96.1854632,16.4873842 96.62604,16.927961 L96.62604,11.1587713 L96.62604,11.1587713 Z" id="Fill-54" sketch:type="MSShapeGroup"></path>
                <path d="M47.7084945,13.3537677 L47.7084945,18.9212611 C47.5203198,18.9640793 47.4358102,19.0091511 47.3591881,18.9967564 C47.1958029,18.9708401 46.9467812,18.9652061 46.8904415,18.8637946 C44.2875453,14.1504117 41.7004243,9.42914119 39.0006238,4.50617443 L37.1876109,4.50617443 C37.1301444,4.15123405 37.0185917,3.91009995 37.0884529,3.82897071 C37.7183313,3.11345598 38.3808867,2.42611111 39.0197793,1.74552701 C40.7032109,2.0779315 41.855922,2.76189598 42.6074942,4.33940879 C43.8514757,6.95357287 45.3388449,9.45167709 46.7484653,11.9847119 C47.035798,12.5030376 47.4290494,12.9616431 47.7084945,13.3537677" id="Fill-55" sketch:type="MSShapeGroup"></path>
                <path d="M82.0430608,18.4649092 L79.6880596,18.4649092 C79.6272127,18.246311 79.5077724,18.0108109 79.5021384,17.7719304 C79.4807293,16.7882384 79.3793178,15.7865178 79.5224207,14.824235 C79.6925668,13.6827918 78.9680377,12.9312196 78.6908461,11.5813194 C78.0699822,12.325004 77.7049006,12.764454 76.9848787,13.6275789 C76.8823404,12.3103557 76.8192399,11.4911758 76.7505054,10.605515 C77.4468646,10.0759214 78.1263219,9.56210298 78.90043,8.97391606 L78.90043,4.14334648 C78.6874657,4.07235841 78.5274609,4.02841341 78.3742168,3.96531289 C78.2220995,3.90333918 78.0767429,3.81995636 77.7781423,3.67234623 C78.0316711,3.24416418 78.2784392,2.82837688 78.5285877,2.4058288 L80.8835889,2.4058288 C81.311771,2.83401085 81.6915008,3.21148713 82.0430608,3.56530072 L82.0430608,18.4649092" id="Fill-56" sketch:type="MSShapeGroup"></path>
                <path d="M126.827523,7.13836723 C126.475963,8.40826504 126.143558,9.60492119 125.751434,11.0235559 C126.029752,11.9531617 126.168348,13.280526 126.80386,14.296895 C127.459655,15.3470678 128.597717,16.093006 129.146467,16.6124584 C132.671081,17.5262891 134.497615,15.7076422 136.024422,13.2455954 C136.161891,13.4281362 136.298234,13.6106769 136.435703,13.7932177 C136.199076,14.5594382 135.963575,15.3245319 135.681877,16.2394893 C134.852556,17.0676836 133.906048,18.0141913 133.21645,18.7037897 C130.791587,19.8193166 128.701383,19.7562161 126.610051,18.6260409 C124.939015,17.7234782 124.058988,16.2755468 123.539535,14.5752133 C122.99642,12.7914971 123.014449,11.0100344 124.057861,9.35477273 C124.706895,8.32375543 125.362689,7.30851325 126.827523,7.13836723" id="Fill-57" sketch:type="MSShapeGroup"></path>
                <path d="M15.0607402,4.06897802 C15.9159775,3.48755187 16.8793871,2.83513764 18.1244954,1.9900415 C18.1977371,2.8238697 18.2754859,3.30839149 18.2766127,3.79404007 C18.2878806,7.53274543 18.2619644,11.2737044 18.2980218,15.0124097 C18.3070362,15.8372236 18.51662,16.6620374 18.6664837,17.7257318 C18.4873233,17.8237629 18.0535073,18.0141913 17.6771578,18.2823684 C17.3402462,18.5223757 17.066435,18.850273 16.5109251,19.3821202 C16.0782359,18.5888566 15.7345635,17.9578515 15.3920178,17.3291 C15.2815919,17.4372723 15.171166,17.5454446 15.0607402,17.6547437 L15.0607402,4.06897802" id="Fill-58" sketch:type="MSShapeGroup"></path>
                <path d="M85.3997827,3.43121213 C85.9507854,3.05373585 86.5017881,2.67513277 86.9896903,2.3404747 C87.6454849,3.03345354 88.2449398,3.67121943 89.0979235,4.57378212 L89.0979235,18.2395502 C88.6877702,18.6564643 88.2505737,19.1015483 87.8212649,19.5398715 L85.9372639,19.5398715 C85.7569767,19.1804239 85.5789431,18.82323 85.3997827,18.4649092 C85.7434552,18.2361698 86.0882544,18.0074305 86.4736182,17.7516481 L86.4736182,12.0218962 L86.4736182,9.87422516 L86.4736182,6.04312262 C85.9789553,5.33436865 85.689369,4.91970814 85.3997827,4.50504763 L85.3997827,3.43121213" id="Fill-59" sketch:type="MSShapeGroup"></path>
                <path d="M30.3930379,7.46739133 C31.1322153,8.84884183 31.7880099,10.0725411 32.3063355,11.0404578 C32.0899909,12.4117672 31.4037729,12.626985 30.2409206,12.5368414 C29.7913294,11.7661137 29.2594822,10.8545367 28.6712953,9.8426749 C28.2724099,10.7756611 28.5529819,11.7334367 28.4966421,12.6495209 C28.4414292,13.5351817 28.4842474,14.4276032 28.4842474,15.2726994 C29.0825754,15.8158145 29.6640016,16.3431545 30.0696477,16.7104896 L30.0696477,18.2744809 C29.398078,18.5449116 28.6498862,18.8457659 28.0729672,19.0778856 C27.1174452,18.1189832 26.3129137,17.3099445 25.3033055,16.2958291 L25.3033055,10.699039 C26.448129,9.00659311 28.5969269,8.73841594 30.3930379,7.46739133" id="Fill-60" sketch:type="MSShapeGroup"></path>
                <path d="M102.04705,16.7442934 C102.329876,15.214106 101.505062,13.3188371 102.583404,11.4923026 C102.257761,10.8556635 101.881411,10.12212 101.478019,9.33336363 C102.07522,8.90180119 102.691577,8.45671722 103.419486,7.93050402 C103.74513,8.1333271 104.440362,8.56488953 105.493916,9.21955734 C105.661808,8.49277466 105.793643,7.91585569 105.926605,7.33893672 C106.108019,7.49105402 106.289433,7.64317133 106.470847,7.79416184 L108.912611,7.79416184 L108.912611,9.18913388 C108.405553,9.64323221 107.746378,10.2347995 106.949735,10.9491875 C106.611696,10.792563 106.099004,10.5570628 105.621243,10.3373378 C105.479267,10.4725532 105.359827,10.5322734 105.359827,10.5931203 C105.350813,12.6179707 105.351939,14.6416942 105.351939,16.6710518 C105.649413,16.7916188 105.953648,16.9166931 106.348026,17.0778247 C106.32211,18.5730815 104.868544,18.4198374 104.082042,19.1128162 C103.457797,18.3871604 102.886512,17.7212246 102.04705,16.7442934" id="Fill-61" sketch:type="MSShapeGroup"></path>
                <path d="M166.531267,11.7492118 C165.893501,12.0624608 165.301933,12.3543007 164.554868,12.7227626 C163.983583,11.7232955 163.455117,10.7993237 162.92665,9.87197157 C162.753123,9.88549311 162.580724,9.90014144 162.412831,9.91366298 C161.553087,11.8292142 162.794815,13.6253253 162.724953,15.7583479 C163.157643,16.1741352 163.728928,16.7251379 164.42416,17.3944541 C163.793155,18.0919401 163.437088,19.17479 162.284377,19.026053 C161.370546,18.108842 160.563761,17.2975497 159.537251,16.2654056 L159.537251,10.6539672 C160.818417,9.16209081 162.724953,8.48826748 164.495148,7.49105402 C165.483347,8.94011222 166.384783,10.1547971 166.531267,11.7492118" id="Fill-62" sketch:type="MSShapeGroup"></path>
                <path d="M134.260988,1.81989547 C134.619309,1.64186188 134.976503,1.4627015 135.334824,1.28241432 C135.687511,1.52016804 136.040198,1.75792175 136.542748,2.09596021 C136.348939,3.15402059 136.15175,4.23236328 135.980477,5.16760301 C133.980417,6.95808005 131.995004,5.7625507 130.088467,5.3895816 C128.521095,5.0819666 127.040487,4.33152122 125.265785,4.54335866 C125.189163,5.00309096 125.106907,5.49662711 125.015637,6.03636185 C124.762108,6.06002455 124.519847,6.08143365 124.166033,6.1129839 L124.166033,3.06838418 C124.991974,2.15455355 126.002709,1.12691663 127.528389,1.31734496 C128.583069,1.45030676 129.591551,1.93032137 130.632709,2.21089329 C131.75387,2.51400111 132.888552,2.76640316 134.260988,3.09993444 L134.260988,1.81989547" id="Fill-63" sketch:type="MSShapeGroup"></path>
                <path d="M87.7243605,24.9496136 C87.6297098,24.4391756 87.5373126,23.9512734 87.4043508,23.2436462 C85.7502159,23.4509765 83.9563585,23.3484381 82.4453266,23.9546538 C80.8216152,24.6036876 79.5032652,24.3411444 78.0519534,23.728168 C77.1099529,22.4684114 77.351087,21.0328747 77.3646086,19.6356491 C78.933107,19.2198618 78.2491425,21.0734393 79.2497364,21.3314753 C81.9258742,20.8728698 84.602012,20.4153911 86.7181327,20.0525632 C88.5638227,20.5844103 89.3142681,21.5252841 89.7007587,22.8132106 C89.1260934,23.5490076 89.1655312,24.8448217 87.7243605,24.9496136" id="Fill-64" sketch:type="MSShapeGroup"></path>
                <path d="M61.8249806,8.97053568 L61.8249806,16.1854032 C62.3849976,16.5504847 62.926986,16.9054251 63.5670055,17.323466 C62.833462,18.2327895 62.3466866,19.2063402 60.9336859,18.9854884 C60.4007119,18.3815264 59.812525,17.7155906 59.1048978,16.9133127 L59.1048978,10.9086228 C58.3048734,9.83366054 57.5927391,8.87701171 56.9053942,7.95191312 C57.4969615,6.7068048 57.9104952,6.15129493 58.8446082,5.42451224 C58.9629216,5.9822757 59.059826,6.43524724 59.1871538,7.03695569 C59.9545011,7.60035312 60.8514298,8.25727453 61.8249806,8.97053568" id="Fill-65" sketch:type="MSShapeGroup"></path>
                <path d="M19.3560822,21.1489346 C20.1549797,19.9004459 20.5200613,18.5674475 20.4535804,17.054162 C20.3611832,14.9256465 20.4299177,12.7892435 20.4299177,10.6742495 C19.8068001,10.0443712 18.9763523,9.53393311 19.4383382,8.45559043 C19.9566638,8.21107594 20.4783699,7.96543466 21.1713487,7.63866415 C21.686294,8.38460235 22.2361698,9.18011952 23.1150698,10.4522709 L23.1150698,18.7477347 C22.5257561,19.5624074 21.9274281,20.3928552 21.3809325,21.1489346 L19.8935633,21.1489346 L19.3560822,21.1489346" id="Fill-66" sketch:type="MSShapeGroup"></path>
                <path d="M152.389991,9.19589465 C152.957896,8.62799004 153.397346,8.18741325 153.84919,7.7366953 L154.739358,7.7366953 C155.442478,8.59756658 156.087005,9.38632298 156.776603,10.2302923 C157.059429,12.5323342 156.266165,15.0225509 157.566487,17.5454446 C156.854352,17.9341888 156.168134,18.3082847 155.564172,18.6373088 C155.221626,18.2474378 154.592875,17.5296695 153.605803,16.4073818 L153.605803,10.82524 C153.17086,10.2426871 152.771974,9.70858632 152.389991,9.19589465" id="Fill-67" sketch:type="MSShapeGroup"></path>
                <path d="M152.633379,16.9921883 C151.885187,17.7460141 151.259816,18.3770192 150.640079,19.0012636 C149.282291,19.1083091 149.488494,17.6671384 148.767346,17.1352913 L148.767346,10.7497448 C148.360573,10.2956464 147.961687,9.85281606 147.585338,9.43364837 C148.881152,7.90796812 148.881152,7.90796812 149.917803,7.75134364 C150.618669,8.60658094 151.26545,9.39759093 151.979838,10.2697302 C151.979838,11.2917331 151.952795,12.4500782 151.987725,13.6039162 C152.021529,14.7070483 151.697012,15.8766614 152.633379,16.9921883" id="Fill-68" sketch:type="MSShapeGroup"></path>
                <path d="M68.754769,17.3899469 L68.754769,18.2733541 C68.1023548,18.5404045 67.4217707,18.8198496 66.7254115,19.1060555 C65.7620019,18.4525145 64.8628195,17.8429184 63.9996947,17.2569851 C63.6458811,14.5357755 64.4808361,11.79203 63.2515029,9.29730619 C64.052654,8.71700683 64.7185898,8.23473863 65.5377697,7.64204453 C66.0515881,8.08374812 66.6239999,8.57503068 67.2583854,9.1203994 C66.2510308,11.3931446 66.7051292,13.7549067 66.5969568,16.054695 C67.3192324,16.5549919 67.6257206,17.636715 68.754769,17.3899469" id="Fill-69" sketch:type="MSShapeGroup"></path>
                <path d="M174.268967,11.4911758 C174.705036,11.9283722 175.147867,12.3700758 175.597458,12.8207937 L175.597458,16.5358364 C174.332067,17.3707914 173.074564,18.2001124 171.781004,19.0542229 C170.994501,18.8288639 170.204618,18.6012514 169.43389,18.3792728 C169.206278,18.8829501 169.046273,19.2345101 168.908804,19.5398715 C167.887928,19.5398715 167.608482,18.9460506 167.598341,17.0857123 C168.67443,15.8248288 170.084051,15.6366541 172.043547,15.8620131 C172.151719,15.9713122 172.502153,16.3206186 172.808641,16.6282336 C173.178229,15.2884745 172.894277,13.8811077 172.328626,12.6303654 C172.726385,11.6263912 173.372038,11.3266637 174.268967,11.4911758" id="Fill-70" sketch:type="MSShapeGroup"></path>
                <path d="M146.23093,18.955065 C145.486119,18.2170143 144.808915,17.5454446 144.069738,16.8152815 C144.931736,15.181429 144.224109,13.1408035 144.505807,11.2680704 C143.898465,10.6134026 143.115342,10.1840937 143.464649,8.99081799 C143.871422,8.61334171 144.423551,8.09952325 144.986949,7.57669043 C145.719365,8.50967658 146.341356,9.29955978 147.012926,10.1525435 C147.159409,12.5267003 147.311527,15.0191705 147.476039,17.6829136 C147.196593,17.9691195 146.725593,18.4502609 146.23093,18.955065" id="Fill-71" sketch:type="MSShapeGroup"></path>
                <path d="M138.018849,16.5144273 L138.018849,10.7339696 C137.67405,10.3508594 137.277418,9.91253619 136.753459,9.33223683 C137.320236,8.73728914 137.838562,8.19192043 138.481962,7.5169703 C139.25607,8.22572427 139.953556,8.86349017 140.704001,9.55083503 C140.704001,10.8500295 140.741186,12.1728867 140.69386,13.4934903 C140.643155,14.8952231 140.708509,16.2406161 142.026859,17.3358607 C141.403741,17.9916554 140.885415,18.5358973 140.192437,19.2638068 C139.444245,18.3172991 138.786197,17.4845977 138.018849,16.5144273" id="Fill-72" sketch:type="MSShapeGroup"></path>
                <path d="M68.754769,17.3910737 L68.754769,9.13730132 C69.3992957,8.49728184 69.8387457,7.51133633 71.2201962,7.760358 C71.5818973,8.14684863 72.0517708,8.64827235 72.5193907,9.14518888 C71.4128781,11.3931446 72.2872709,13.7932177 71.9086678,16.1110347 C70.6815882,17.0395137 70.073119,17.2885354 68.754769,17.3910737" id="Fill-73" sketch:type="MSShapeGroup"></path>
                <path d="M49.9620843,10.6821371 C50.6652043,10.0702875 51.1249366,9.02574863 52.5987843,9.40773209 C52.7182245,11.407793 52.5954039,13.5070118 52.655124,15.3448142 C53.522756,16.0513146 54.2270028,16.6248532 55.1059028,17.3403679 C54.1796774,18.1618014 53.7785385,19.2649336 52.3677913,18.9888688 C51.6038244,18.196732 50.8038,17.3651574 49.9620843,16.4907646 L49.9620843,10.6821371" id="Fill-74" sketch:type="MSShapeGroup"></path>
                <path d="M5.33537368,7.74120248 C6.40920919,7.26118787 7.31289867,6.8589221 8.3811002,6.38116108 C8.76195686,7.63528377 8.57941609,8.68545658 8.61096635,9.70971311 C8.64138981,10.6900246 8.61772712,11.6725898 8.61772712,12.9492483 C7.81657597,13.5216601 6.87570226,14.1932299 5.67453893,15.0507208 C5.1336774,12.5086716 5.55735227,10.2426871 5.33537368,7.74120248" id="Fill-75" sketch:type="MSShapeGroup"></path>
                <path d="M175.067864,8.38910953 C175.067864,8.79362889 175.151247,9.16885158 175.044202,9.47533978 C174.937156,9.78182798 174.638556,10.0229621 174.3839,10.341845 L171.741566,10.341845 C171.622126,10.1311344 171.371977,9.69281119 171.071123,9.16659799 C170.302649,10.7508716 171.182676,11.9114703 171.39226,13.3977127 C171.101547,13.5374353 170.697027,13.7323708 170.291381,13.9273063 C170.366876,14.0050551 170.443498,14.0839308 170.518994,14.1616796 L169.406847,14.1616796 C169.009088,13.7413851 168.58316,13.2895404 168.107653,12.7847363 L168.107653,10.0635267 C169.224306,9.36378709 170.42547,8.61221491 171.918473,7.67810197 C172.727511,7.86064274 173.865574,8.11755197 175.067864,8.38910953" id="Fill-76" sketch:type="MSShapeGroup"></path>
                <path d="M42.432841,16.5718938 L42.432841,17.3336072 C41.8390201,17.8102414 41.2485796,18.2823684 40.4339069,18.9370363 C40.4733447,18.9505578 40.0868541,18.8006941 39.6947295,18.6711127 C39.3758465,18.5663207 39.0502028,18.4863183 38.8834372,18.4389929 C37.4411397,18.6553375 37.82425,19.9410105 37.2766277,20.8063889 C36.7842183,20.4480682 36.379699,20.1528479 36.0044763,19.8801636 L36.0044763,17.1375449 C38.4879322,14.7025412 39.8198037,14.5819741 42.432841,16.5718938" id="Fill-77" sketch:type="MSShapeGroup"></path>
                <path d="M128.448981,7.74458287 C129.227596,7.32654197 129.958886,6.93216377 130.973001,6.38679506 C130.998917,7.67021441 131.027087,8.70461209 131.037228,9.73900978 C131.047369,10.8015773 131.039482,11.8618913 131.039482,13.0596742 C130.223682,13.4687008 129.427038,13.8675862 128.448981,14.3588687 L128.448981,7.74458287" id="Fill-78" sketch:type="MSShapeGroup"></path>
                <path d="M86.4736182,9.87422516 L86.4736182,12.0218962 L85.118084,12.0218962 C84.8882179,12.2652839 84.645957,12.5210663 84.3259472,12.8602315 C84.3259472,13.7289904 84.3158061,14.6957804 84.3282008,15.6603168 C84.3417224,16.6011905 84.3777798,17.5409374 84.4036961,18.4649092 L85.3997827,18.4649092 C85.5789431,18.82323 85.7569767,19.1804239 85.9372639,19.5398715 L84.5862368,19.5398715 C84.3473563,19.2931034 84.1017151,19.0361942 83.8177628,18.7432275 L83.8177628,2.08469227 C84.2222821,2.78217829 84.4093301,3.107822 84.5986316,3.43233892 C84.865682,3.43121213 85.1327324,3.43121213 85.3997827,3.43121213 L85.3997827,4.50504763 L84.3687654,4.50504763 L84.3687654,9.03927017 C84.8645552,10.0049334 85.689369,9.88211272 86.4736182,9.87422516" id="Fill-79" sketch:type="MSShapeGroup"></path>
                <path d="M50.4071682,3.79178648 C49.8764479,4.31912648 49.2488231,4.93999045 48.4679543,5.71297173 C47.4572193,5.50451468 46.3191565,5.27126814 44.9433399,4.98844263 C45.4346225,3.99348277 45.8233667,3.20697995 46.3180297,2.20751291 C47.0988985,2.45766137 47.7693415,2.81936252 48.4555595,2.85091277 C49.0595216,2.88020944 49.6803856,2.54217098 50.4071682,2.33258714 L50.4071682,3.79178648" id="Fill-80" sketch:type="MSShapeGroup"></path>
                <path d="M52.7542819,8.55474837 C53.6906485,8.10065004 54.275455,7.81782453 54.8771635,7.52823825 C55.6771878,8.79926286 56.3634059,9.89563426 57.1555427,11.1565177 C56.5076356,11.5892069 55.9295899,11.9756976 55.1757641,12.4782481 C55.2940776,12.5267003 54.9605463,12.4974036 54.8613883,12.3295112 C54.198833,11.2106039 53.5858566,10.0612731 52.7542819,8.55474837" id="Fill-81" sketch:type="MSShapeGroup"></path>
                <path d="M39.6902223,11.2387737 C38.8113223,11.5599103 38.1870779,11.786396 37.3881804,12.0771091 C37.1087353,11.5599103 36.8090078,11.0044004 36.5092804,10.4500173 C36.7414001,9.98239747 36.9622519,9.54069388 37.2867688,8.88827965 C37.8388983,8.68432978 38.61526,8.39699709 39.5640213,8.04656389 C39.8693827,9.33111004 39.8029018,10.4060723 39.6902223,11.2387737" id="Fill-82" sketch:type="MSShapeGroup"></path>
                <path d="M141.319231,5.15858865 C140.786257,5.73550762 140.320891,6.23805813 139.950176,6.63694352 C138.586754,6.74849621 137.952368,6.25834044 138.023356,4.94675122 C138.512385,4.45659545 139.039725,3.92700187 139.670731,3.29486995 C140.19469,3.88756405 140.69048,4.4475811 141.319231,5.15858865" id="Fill-83" sketch:type="MSShapeGroup"></path>
                <path d="M12.4465761,10.3824096 C11.8110638,11.7965372 10.7946948,11.5385012 9.82001724,11.3807499 C9.3681725,10.4195939 9.81212968,9.69168439 10.5163765,9.3829426 C11.2758362,9.05053811 12.0116332,9.44266273 12.4465761,10.3824096" id="Fill-84" sketch:type="MSShapeGroup"></path>
                <path d="M132.107683,10.4117063 C132.374734,9.47646657 133.062079,9.26012196 133.89816,9.33561722 C134.248594,9.61731593 134.583252,9.8877467 135.04073,10.2562086 C134.613675,10.7677735 134.297046,11.1486302 134.023235,11.4754007 C133.063205,11.5632907 132.374734,11.3458193 132.107683,10.4117063" id="Fill-85" sketch:type="MSShapeGroup"></path>
                <path d="M56.9639876,15.7583479 C56.9369445,16.1031472 56.912155,16.4242837 56.8839851,16.7780973 C56.5617218,16.8062672 56.3284752,16.8254227 55.9712813,16.8558461 C55.9352238,16.5313292 55.9025468,16.2383626 55.8597286,15.8451111 C56.2980518,15.8113073 56.6191883,15.7865178 56.9639876,15.7583479" id="Fill-86" sketch:type="MSShapeGroup"></path>
                <path d="M19.3560822,21.1489346 L19.8935633,21.1489346 C19.5803144,22.2430524 18.862546,21.3945758 18.3115433,21.3078126 C18.6597229,21.2548533 19.0079026,21.2018939 19.3560822,21.1489346" id="Fill-87" sketch:type="MSShapeGroup"></path>
                <path d="M4.3223851,7.19019979 L4.3223851,6.65271864 C4.40238753,6.48031903 4.48238997,6.30791942 4.59844984,6.06115134 C4.94550266,6.64708467 5.0683233,7.06061838 4.3223851,7.19019979" id="Fill-88" sketch:type="MSShapeGroup"></path>
                <path d="M32.3345054,16.2327286 L32.3345054,15.3414338 C32.4201418,15.3279123 32.5046514,15.3143908 32.5902879,15.3008692 C32.6590223,15.5915823 32.7288836,15.8834222 32.7987449,16.1741352 C32.644374,16.1932908 32.4888763,16.2124463 32.3345054,16.2327286" id="Fill-89" sketch:type="MSShapeGroup"></path>
                <path d="M127.224155,6.60426646 C127.349229,6.45778313 127.474303,6.3112998 127.599377,6.16481647 C127.65459,6.22115621 127.712057,6.27749595 127.768396,6.33496249 C127.621913,6.45890993 127.47543,6.58398416 127.328946,6.70905839 C127.294016,6.67412775 127.259085,6.63807031 127.224155,6.60426646" id="Fill-90" sketch:type="MSShapeGroup"></path>
                <path d="M56.8862387,15.7324317 C57.0101861,15.5859483 57.1352604,15.439465 57.2603346,15.2929817 C57.3166743,15.3493214 57.3730141,15.4067879 57.4293538,15.4620009 C57.2828705,15.5870751 57.137514,15.7121494 56.9910306,15.8360968 C56.9561,15.8011661 56.9211693,15.7673623 56.8862387,15.7324317" id="Fill-91" sketch:type="MSShapeGroup"></path>
                <path d="M31.3485599,16.8547193 L31.3485599,16.3172382 L31.5265935,16.3172382 L31.5265935,16.8547193 L31.3485599,16.8547193" id="Fill-92" sketch:type="MSShapeGroup"></path>
                <path d="M127.280494,6.65271864 C127.101334,6.83075223 126.9233,7.00991262 126.74414,7.19019979 C126.9233,7.00991262 127.101334,6.83075223 127.280494,6.65271864" id="Fill-93" sketch:type="MSShapeGroup"></path>
            </g>
        </g>
    </g>
</svg>