<?xml version="1.0" encoding="UTF-8" standalone="no"?>
<svg width="154px" height="139px" viewBox="0 0 154 139" version="1.1" xmlns="http://www.w3.org/2000/svg" xmlns:xlink="http://www.w3.org/1999/xlink">
    <g id="Page-1" stroke="none" stroke-width="1" fill="none" fill-rule="evenodd">
        <g transform="translate(1.000000, 1.000000)">
            <path d="M42.2261,54.6724 L2.7201,44.0864 L2.7201,30.9184 L42.2261,41.5034 L42.2261,54.6724 L42.2261,54.6724 Z" id="Stroke-1" stroke="#ff4081" stroke-width="3.504" stroke-linejoin="round"></path>
            <path d="M81.7324,65.2583 L42.2264,54.6723 L42.2264,41.5043 L81.7324,52.0893 L81.7324,65.2583 L81.7324,65.2583 Z" id="Stroke-3" stroke="#ff4081" stroke-width="3.504" stroke-linejoin="round"></path>
            <path d="M121.2388,75.8442 L81.7328,65.2582 L81.7328,52.0902 L121.2388,62.6752 L121.2388,75.8442 L121.2388,75.8442 Z" id="Stroke-4" stroke="#ff4081" stroke-width="3.504" stroke-linejoin="round"></path>
            <path d="M121.2388,62.6753 L101.4858,57.3823 L101.4858,44.2133 L121.2388,49.5063 L121.2388,62.6753 L121.2388,62.6753 Z" id="Stroke-5" stroke="#ff4081" stroke-width="3.504" stroke-linejoin="round"></path>
            <path d="M121.2388,115.4155 L101.4858,110.1225 L101.4858,96.9535 L121.2388,102.2465 L121.2388,115.4155 L121.2388,115.4155 Z" id="Stroke-6" stroke="#ff4081" stroke-width="3.504" stroke-linejoin="round"></path>
            <path d="M121.2388,89.0776 L101.4858,83.7846 L101.4858,70.6156 L121.2388,75.9086 L121.2388,89.0776 L121.2388,89.0776 Z" id="Stroke-7" stroke="#ff4081" stroke-width="3.504" stroke-linejoin="round"></path>
            <g id="Group-16" transform="translate(2.000000, 17.563000)" stroke="#ff4081" stroke-width="3.504" stroke-linejoin="round">
                <path d="M20.4731,18.6475 L0.7201,13.3545 L0.7201,0.1855 L20.4731,5.4785 L20.4731,18.6475 L20.4731,18.6475 Z" id="Stroke-8"></path>
                <path d="M20.4731,71.3887 L0.7201,66.0957 L0.7201,52.9267 L20.4731,58.2197 L20.4731,71.3887 L20.4731,71.3887 Z" id="Stroke-10"></path>
                <path d="M20.4731,45.0508 L0.7201,39.7578 L0.7201,26.5888 L20.4731,31.8818 L20.4731,45.0508 L20.4731,45.0508 Z" id="Stroke-12"></path>
                <path d="M40.2261,63.5127 L0.7201,52.9267 L0.7201,39.7587 L40.2261,50.3437 L40.2261,63.5127 L40.2261,63.5127 Z" id="Stroke-14"></path>
            </g>
            <path d="M81.7324,91.6616 L42.2264,81.0746 L42.2264,67.9066 L81.7324,78.4926 L81.7324,91.6616 L81.7324,91.6616 Z" id="Stroke-17" stroke="#ff4081" stroke-width="3.504" stroke-linejoin="round"></path>
            <path d="M121.2388,102.2466 L81.7328,91.6606 L81.7328,78.4926 L121.2388,89.0776 L121.2388,102.2466 L121.2388,102.2466 Z" id="Stroke-18" stroke="#ff4081" stroke-width="3.504" stroke-linejoin="round"></path>
            <path d="M101.4854,83.7857 L61.9794,73.1997 L61.9794,60.0317 L101.4854,70.6167 L101.4854,83.7857 L101.4854,83.7857 Z" id="Stroke-19" stroke="#ff4081" stroke-width="3.504" stroke-linejoin="round"></path>
            <path d="M61.979,73.1997 L22.473,62.6137 L22.473,49.4457 L61.979,60.0307 L61.979,73.1997 L61.979,73.1997 Z" id="Stroke-20" stroke="#ff4081" stroke-width="3.504" stroke-linejoin="round"></path>
            <path d="M101.4854,110.1226 L61.9794,99.5366 L61.9794,86.3686 L101.4854,96.9536 L101.4854,110.1226 L101.4854,110.1226 Z" id="Stroke-21" stroke="#ff4081" stroke-width="3.504" stroke-linejoin="round"></path>
            <path d="M61.979,99.5366 L22.473,88.9506 L22.473,75.7826 L61.979,86.3676 L61.979,99.5366 L61.979,99.5366 Z" id="Stroke-22" stroke="#ff4081" stroke-width="3.504" stroke-linejoin="round"></path>
            <path d="M101.4854,57.3823 L61.9794,46.7963 L61.9794,33.6283 L101.4854,44.2133 L101.4854,57.3823 L101.4854,57.3823 Z" id="Stroke-23" stroke="#ff4081" stroke-width="3.504" stroke-linejoin="round"></path>
            <path d="M61.979,46.7964 L22.473,36.2104 L22.473,23.0424 L61.979,33.6274 L61.979,46.7964 L61.979,46.7964 Z" id="Stroke-24" stroke="#ff4081" stroke-width="3.504" stroke-linejoin="round"></path>
            <path d="M130.7148,110.1226 L121.2388,115.4156 L121.2388,102.2466 L130.7148,96.9536 L130.7148,110.1226 L130.7148,110.1226 Z" id="Stroke-25" stroke="#ff4081" stroke-width="3.504" stroke-linejoin="round"></path>
            <path d="M130.7148,96.8911 L121.2388,102.1841 L121.2388,89.0151 L130.7148,83.7221 L130.7148,96.8911 L130.7148,96.8911 Z" id="Stroke-26" stroke="#ff4081" stroke-width="3.504" stroke-linejoin="round"></path>
            <path d="M130.7148,83.7534 L121.2388,89.0464 L121.2388,75.8774 L130.7148,70.5844 L130.7148,83.7534 L130.7148,83.7534 Z" id="Stroke-27" stroke="#ff4081" stroke-width="3.504" stroke-linejoin="round"></path>
            <path d="M130.7148,70.522 L121.2388,75.815 L121.2388,62.645 L130.7148,57.352 L130.7148,70.522 L130.7148,70.522 Z" id="Stroke-28" stroke="#ff4081" stroke-width="3.504" stroke-linejoin="round"></path>
            <path d="M130.7148,57.3823 L121.2388,62.6753 L121.2388,49.5063 L130.7148,44.2133 L130.7148,57.3823 L130.7148,57.3823 Z" id="Stroke-29" stroke="#ff4081" stroke-width="3.504" stroke-linejoin="round"></path>
            <path d="M22.4731,23.0425 L31.9491,17.7495 L12.1961,12.4565 L2.7201,17.7495 L22.4731,23.0425 L22.4731,23.0425 Z" id="Stroke-30" stroke="#ff4081" stroke-width="3.504" stroke-linejoin="round"></path>
            <path d="M121.2388,49.4448 L130.7148,44.1518 L110.9618,38.8588 L101.4858,44.1518 L121.2388,49.4448 L121.2388,49.4448 Z" id="Stroke-32" stroke="#ff4081" stroke-width="3.504" stroke-linejoin="round"></path>
            <path d="M101.4854,44.1528 L110.9614,38.8598 L71.4554,28.2708 L61.9794,33.5638 L101.4854,44.1528 L101.4854,44.1528 Z" id="Stroke-33" stroke="#ff4081" stroke-width="3.504" stroke-linejoin="round"></path>
            <path d="M61.979,33.6304 L71.455,28.3374 L31.949,17.7484 L22.473,23.0414 L61.979,33.6304 L61.979,33.6304 Z" id="Stroke-34" stroke="#ff4081" stroke-width="3.504" stroke-linejoin="round"></path>
            <g id="Group-45" transform="translate(0.000000, 0.563000)">
                <path d="M5.0742,131.0342 C1.3872,35.4622 92.7912,-58.6208 146.8172,46.2332" id="Stroke-35" stroke="#ff4081" stroke-width="3.504" stroke-linejoin="round" stroke-dasharray="3.951,3.951"></path>
                <path d="M9.1802,131.0342 C9.1802,133.3612 7.2932,135.2482 4.9662,135.2482 C2.6392,135.2482 0.7522,133.3612 0.7522,131.0342 C0.7522,128.7072 2.6392,126.8202 4.9662,126.8202 C7.2932,126.8202 9.1802,128.7072 9.1802,131.0342" id="Fill-37" fill="#ff4081"></path>
                <path d="M9.1802,131.0342 C9.1802,133.3612 7.2932,135.2482 4.9662,135.2482 C2.6392,135.2482 0.7522,133.3612 0.7522,131.0342 C0.7522,128.7072 2.6392,126.8202 4.9662,126.8202 C7.2932,126.8202 9.1802,128.7072 9.1802,131.0342 L9.1802,131.0342 Z" id="Stroke-39" stroke="#ff4081" stroke-width="3.504" stroke-linejoin="round"></path>
                <path d="M151.0312,46.2334 C151.0312,48.5604 149.1442,50.4474 146.8172,50.4474 C144.4902,50.4474 142.6032,48.5604 142.6032,46.2334 C142.6032,43.9064 144.4902,42.0194 146.8172,42.0194 C149.1442,42.0194 151.0312,43.9064 151.0312,46.2334" id="Fill-41" fill="#ff4081"></path>
                <path d="M151.0312,46.2334 C151.0312,48.5604 149.1442,50.4474 146.8172,50.4474 C144.4902,50.4474 142.6032,48.5604 142.6032,46.2334 C142.6032,43.9064 144.4902,42.0194 146.8172,42.0194 C149.1442,42.0194 151.0312,43.9064 151.0312,46.2334 L151.0312,46.2334 Z" id="Stroke-43" stroke="#ff4081" stroke-width="3.504" stroke-linejoin="round"></path>
            </g>
        </g>
    </g>
</svg>