<?xml version="1.0" encoding="UTF-8" standalone="no"?>
<svg width="209px" height="44px" viewBox="0 0 209 44" version="1.1" xmlns="http://www.w3.org/2000/svg" xmlns:xlink="http://www.w3.org/1999/xlink">
    <!-- Generator: Sketch 3.8.3 (29802) - http://www.bohemiancoding.com/sketch -->
    <title>Artboard 1</title>
    <desc>Created with Sketch.</desc>
    <defs>
        <polygon id="path-1" points="208.209 1.8600526 208.209 0.860052595 0.0003 0.860052595 0.0003 1.8600526"></polygon>
        <polygon id="path-3" points="19.1059111 0.479 0.5195 0.479 0.5195 18.3277208 19.1059111 18.3277208 19.1059111 0.479"></polygon>
    </defs>
    <g id="Page-1" stroke="none" stroke-width="1" fill="none" fill-rule="evenodd">
        <g id="Artboard-1">
            <g id="Page-1">
                <g id="Group-3" transform="translate(0.000000, 20.521200)">
                    <mask id="mask-2" fill="white">
                        <use xlink:href="#path-1"></use>
                    </mask>
                    <g id="Clip-2"></g>
                    <path d="M208.2093,0.8608 C207.7523,1.4358 207.6643,1.6438 207.5753,1.6438 C138.6933,1.6808 69.8103,1.7048 0.9283,1.7158 C0.7443,1.7158 0.5603,1.5298 0.0003,1.2278 C0.7893,1.0568 1.2353,0.8788 1.6833,0.8768 C6.0653,0.8548 10.4473,0.8608 14.8293,0.8608 L204.4293,0.8608 L208.2093,0.8608 Z" id="Fill-1" fill="#008390" mask="url(#mask-2)"></path>
                </g>
                <path d="M15.938,1.6797 C15.402,2.1377 15.039,2.4477 14.639,2.7877 L14.639,9.2997 L17.915,9.2997 C18.321,7.3147 18.193,5.4017 18.026,3.5107 C17.973,2.9147 17.417,2.3637 17.036,1.6947 L21.943,1.6947 C21.671,1.9617 21.522,2.1297 21.351,2.2687 C21.174,2.4117 20.975,2.5257 20.697,2.7117 L20.697,17.4737 C21.077,17.7487 21.519,18.0707 22.306,18.6427 L16.359,18.6427 C17.107,18.0997 17.515,17.8047 17.988,17.4607 C18.104,15.1987 18.323,12.9297 17.946,10.5627 L14.708,10.5627 C14.342,12.8277 14.632,15.1067 14.531,17.4367 C14.965,17.7387 15.379,18.0267 15.804,18.3227 C15.689,18.4887 15.617,18.6877 15.542,18.6877 C13.953,18.7057 12.362,18.7017 10.338,18.7017 C11.068,18.1237 11.453,17.8197 11.989,17.3957 C12.035,15.9957 12.116,14.4717 12.128,12.9477 C12.152,10.1047 12.157,7.2607 12.123,4.4177 C12.111,3.4277 12.114,2.3417 10.512,2.1267 L10.512,7.3447 C9.059,5.8757 9.924,3.2467 7.576,2.3717 C7.041,3.8767 6.879,11.2557 7.242,17.4967 C7.655,17.7577 8.121,18.0517 8.843,18.5067 C8.233,18.6547 7.952,18.7787 7.669,18.7827 C6.223,18.8027 4.776,18.7917 2.783,18.7917 C3.651,18.1347 4.075,17.8127 4.611,17.4067 C4.829,12.5277 4.845,7.5867 4.532,2.3987 C1.965,3.3947 2.474,5.7157 1.739,7.8967 C0.905,5.5777 1.481,3.6817 1.269,1.6797 L15.938,1.6797 Z" id="Fill-4" fill="#008390"></path>
                <path d="M169.7363,2.4806 C169.5063,4.8856 169.5763,7.1346 169.6703,9.4176 C171.6303,9.1026 172.2583,8.6166 172.3743,7.0356 C172.4883,5.4726 172.8393,3.7366 171.1423,2.6816 C170.8083,2.4746 170.2973,2.5516 169.7363,2.4806 L169.7363,2.4806 Z M165.3583,18.6676 C166.1583,18.1436 166.5293,17.9006 166.8673,17.6786 C167.4083,15.4136 167.3033,4.5566 166.7073,2.4576 C166.3983,2.3796 166.0383,2.2206 165.6793,2.2216 C165.3993,2.2216 165.1203,2.4216 164.7283,2.5766 C164.6813,3.1756 164.5973,3.7726 164.5943,4.3686 C164.5803,7.4416 164.5883,10.5156 164.5883,13.5886 C164.5873,14.0496 164.5973,14.5106 164.5783,14.9706 C164.4603,17.8046 163.5243,18.8686 161.1673,18.8576 C158.5663,18.8446 157.1873,17.5326 157.1533,14.8976 C157.1083,11.3636 157.1423,7.8296 157.1423,4.2956 C157.1413,3.9126 157.1423,3.5296 157.1423,2.7706 C156.8303,2.5826 156.3143,2.2716 155.7973,1.9596 C155.8503,1.8656 155.9033,1.7706 155.9563,1.6766 L160.9103,1.6766 C160.4293,2.1266 160.0873,2.4456 159.5743,2.9266 C159.5743,6.9796 159.5503,11.1966 159.5893,15.4126 C159.6013,16.6456 160.1003,17.6546 161.4363,17.9916 C163.2853,17.3386 163.6303,16.9666 163.6513,15.0556 C163.6943,11.0636 163.6643,7.0696 163.6643,2.7606 C163.3613,2.4786 162.9333,2.0806 162.3783,1.5656 C165.3353,1.5656 168.2383,1.5276 171.1393,1.5796 C172.9223,1.6106 174.1883,2.5016 174.7973,4.2136 C175.4543,6.0596 175.0363,7.7966 173.6273,9.0336 C173.2863,9.3336 172.8683,9.5466 172.3013,9.9216 C174.3813,11.3546 174.2813,13.5106 174.2943,15.6486 C174.2973,16.2026 174.4743,16.7556 174.9593,17.3136 C175.1163,16.7326 175.2723,16.1506 175.4683,15.4236 C176.1413,16.7566 176.1413,16.7566 175.2803,18.6246 C174.6173,18.6836 173.8243,18.7526 173.2633,18.8026 C171.9903,17.9126 171.9793,16.8266 171.9063,15.7446 C171.7993,14.1506 171.6473,12.5586 171.5093,10.9106 C170.8493,10.7316 170.3833,10.6056 169.7353,10.4306 L169.7353,17.6046 C170.0383,17.8426 170.4393,18.1586 171.0853,18.6676 L165.3583,18.6676 Z" id="Fill-6" fill="#008390"></path>
                <path d="M52.7607,7.6116 C52.6507,7.5596 52.5417,7.5066 52.4317,7.4546 C52.0907,9.4326 51.7507,11.4106 51.3817,13.5526 L53.6997,13.5526 C53.3707,11.4726 53.0657,9.5416 52.7607,7.6116 M53.1277,18.4046 C53.4667,18.1536 53.8067,17.9026 54.3397,17.5096 C54.2347,16.6986 54.1117,15.7476 53.9807,14.7356 L51.2627,14.7356 C51.0487,15.6186 50.8537,16.4236 50.6267,17.3626 C51.0197,17.7186 51.4317,18.0926 52.0737,18.6746 L48.0587,18.6746 C48.6787,18.0976 49.0737,17.7316 49.5737,17.2666 C50.5657,12.1156 51.5807,6.8516 52.6137,1.4906 C52.8407,1.4076 53.1107,1.3086 53.4107,1.1986 C53.5847,1.4236 53.7947,1.5766 53.8347,1.7656 C54.4637,4.7646 55.0647,7.7696 55.6857,10.7706 C56.1647,13.0826 56.6607,15.3896 57.1667,17.7806 L58.8117,17.7806 C59.3067,15.8416 59.3707,5.1086 58.9237,2.7576 C58.5787,2.4586 58.2097,2.1396 57.6417,1.6476 L63.0317,1.6476 C62.4777,2.1196 62.1317,2.4136 61.7007,2.7806 L61.7007,17.6106 C63.9467,18.0036 64.8987,17.3776 65.3667,15.3046 C65.5427,14.5216 65.3097,13.6276 66.1577,12.5586 L66.1577,18.7656 C61.8797,18.8476 57.5507,18.7726 53.1277,18.4046" id="Fill-8" fill="#008390"></path>
                <g id="Group-12" transform="translate(184.000000, 0.521200)">
                    <mask id="mask-4" fill="white">
                        <use xlink:href="#path-3"></use>
                    </mask>
                    <g id="Clip-11"></g>
                    <path d="M5.4595,6.8797 C5.3715,6.8927 5.2825,6.9057 5.1945,6.9197 C4.8785,8.9257 4.5625,10.9327 4.2205,13.1087 C4.9305,13.1087 5.4505,13.1247 5.9675,13.0967 C6.0905,13.0907 6.2055,12.9357 6.5135,12.7127 C6.1735,10.8347 5.8165,8.8567 5.4595,6.8797 L5.4595,6.8797 Z M11.8485,2.2227 C11.4835,1.9367 11.0895,1.6287 10.4595,1.1367 L15.8105,1.1367 C15.3685,1.4937 15.1575,1.6537 14.9575,1.8277 C14.7865,1.9757 14.6295,2.1387 14.4125,2.3457 L14.4125,17.1097 C15.2245,17.5637 16.0095,17.3777 16.7855,17.1087 C18.3775,15.9127 18.2655,14.0527 18.7405,12.3977 C19.3225,14.2427 19.0175,16.0887 19.0845,17.8947 C17.3055,18.3707 9.8505,18.4817 5.9785,18.0897 C6.4605,17.6227 6.8395,17.2547 7.2785,16.8307 C7.1205,16.0487 6.9555,15.2307 6.7605,14.2647 L4.0465,14.2647 C3.8835,15.0437 3.7045,15.9047 3.5275,16.7537 C3.9175,17.2047 4.2355,17.5717 4.7335,18.1467 L0.5195,18.1467 C2.8405,17.1887 2.6725,15.4107 2.9825,13.8807 C3.7115,10.2797 4.3685,6.6637 5.0485,3.0527 C5.2015,2.2437 5.2665,1.4077 6.0095,0.4787 C6.3615,1.0167 6.7605,1.3767 6.8475,1.8007 C7.6665,5.7767 8.4315,9.7647 9.2125,13.7487 C9.3745,14.5757 9.4755,15.4207 9.7215,16.2227 C9.8665,16.6937 10.2405,17.0957 10.5525,17.5947 C11.0325,17.4527 11.3865,17.3477 11.8485,17.2107 L11.8485,2.2227 Z" id="Fill-10" fill="#008390" mask="url(#mask-4)"></path>
                </g>
                <path d="M40.9488,1.6487 L45.4368,1.6487 C45.0388,2.1647 44.7528,2.5347 44.3328,3.0797 C44.9008,6.0867 45.4978,9.2387 46.1958,12.9287 C47.2788,9.3777 47.4568,6.1557 48.2588,3.0267 C47.8228,2.6367 47.4408,2.2957 47.0508,1.9477 C47.1478,1.8167 47.2248,1.6237 47.3038,1.6227 C48.3638,1.6027 49.4238,1.6087 50.7688,2.0317 C50.2488,2.3167 49.7278,2.6017 49.4688,2.7437 C48.2568,8.2347 47.1208,13.3917 45.9678,18.5457 C45.9458,18.6447 45.7268,18.6997 45.5918,18.7797 C44.7578,18.7037 44.7468,18.0187 44.6318,17.4347 C44.1568,15.0387 43.6968,12.6407 42.9238,10.2437 C42.3418,13.0087 41.7598,15.7737 41.1638,18.6097 C40.8668,18.6877 40.5908,18.7597 40.1008,18.8877 C39.6008,16.5007 39.0978,14.1977 38.6378,11.8867 C38.1288,9.3327 37.7158,6.7577 37.1408,4.2187 C36.9518,3.3847 36.3858,2.6357 35.9448,1.7527 C37.2738,1.2897 38.6948,1.7297 40.6078,1.4497 C39.5898,2.5347 39.3908,3.3907 39.5938,4.3767 C40.1008,6.8537 40.5398,9.3437 41.0198,11.8257 C41.0418,11.9407 41.1958,12.0287 41.4558,12.3107 C42.4338,8.6317 43.1198,5.1587 40.9488,1.6487" id="Fill-13" fill="#008390"></path>
                <path d="M103.2108,2.7506 C102.6878,2.6206 102.1288,2.4816 101.3628,2.2916 C101.3628,3.6356 101.3248,4.7786 101.3738,5.9186 C101.4238,7.1006 101.1258,8.3256 101.6218,9.4656 C103.0428,9.5146 103.8328,8.7756 104.0278,7.6306 C104.2968,6.0556 104.5458,4.4086 103.2108,2.7506 M103.8938,10.0506 C105.7358,11.0746 106.0588,12.5516 106.0168,14.2816 C105.9928,15.2766 105.7738,16.3816 106.5898,17.6456 C106.8688,16.7316 107.0468,16.1506 107.2798,15.3916 C107.9398,17.0036 107.9398,17.0036 106.9298,18.6876 L104.6628,18.6876 C102.7468,16.2576 104.4418,13.2046 102.8398,10.7286 C102.5238,10.6566 102.1048,10.5616 101.5128,10.4276 L101.5128,17.5866 C101.5788,17.6326 101.8178,17.7906 102.0448,17.9656 C102.2498,18.1236 102.4408,18.3006 102.8958,18.6916 L97.2708,18.6916 C98.9588,17.7736 98.8958,16.5556 98.8958,15.3566 C98.8948,11.9046 98.9038,8.4536 98.8928,5.0016 C98.8858,3.1376 98.8708,3.1376 97.6668,1.5826 C99.5398,1.5826 101.2908,1.5426 103.0388,1.5946 C104.8418,1.6466 106.0688,2.5406 106.6068,4.3026 C107.1448,6.0666 106.8518,7.6416 105.4898,8.9336 C105.1108,9.2926 104.6288,9.5426 103.8938,10.0506" id="Fill-15" fill="#008390"></path>
                <path d="M151.2287,2.2783 C149.7767,2.6123 149.6627,3.7873 149.6427,4.8223 C149.5737,8.4083 149.6037,11.9973 149.6417,15.5853 C149.6487,16.1763 149.8847,16.7653 150.0547,17.5383 C150.6487,17.7193 151.2547,17.9043 152.0887,18.1583 C152.4537,17.2143 152.9767,16.4713 152.9927,15.7173 C153.0747,11.9733 153.0587,8.2263 152.9957,4.4823 C152.9777,3.3533 152.5177,2.3833 151.2287,2.2783 M151.6467,1.3353 C152.9597,1.5993 153.9837,2.4063 154.5237,3.6603 C156.4067,8.0303 156.4307,12.4293 154.4587,16.7833 C154.0047,17.7853 153.2547,18.5613 152.0947,18.7963 C150.5217,19.1163 149.3187,18.5663 148.3767,17.1333 C147.1917,15.3283 146.8747,13.2473 146.8147,11.2013 C146.7497,8.9983 146.7977,6.7343 147.6317,4.6223 C148.3057,2.9193 149.2187,1.4223 151.6467,1.3353" id="Fill-17" fill="#008390"></path>
                <path d="M31.1445,1.6422 L31.1445,7.5102 C30.1455,7.1132 30.5275,6.2592 30.4375,5.7142 C30.2405,4.5282 29.9555,3.4662 28.6745,2.6092 C28.1295,2.5152 27.3365,2.3772 26.3965,2.2152 C26.0635,4.7512 26.2345,7.0052 26.2305,9.3582 C28.3445,9.0972 27.7475,7.3542 28.4035,6.0312 C29.1875,7.4172 28.7495,8.7032 28.8235,9.8942 C28.8955,11.0722 28.9105,12.2722 28.7035,13.9302 C27.6485,12.5912 28.4155,10.7712 26.7275,10.4152 C26.0745,11.8102 25.9895,13.4382 26.3355,17.5592 C28.5855,18.1622 29.7775,17.4442 30.3045,15.2122 C30.4865,14.4442 30.1915,13.5262 31.0995,12.6852 L31.0995,18.6782 L22.1905,18.6782 C22.8705,18.1502 23.2275,17.8712 23.7135,17.4942 L23.7135,2.8282 C23.3765,2.5382 22.9875,2.2022 22.2605,1.5742 C25.3875,1.5802 28.1585,1.4802 31.1445,1.6422" id="Fill-19" fill="#008390"></path>
                <path d="M120.7636,17.6561 C124.0286,18.0561 124.7086,17.3281 125.7286,12.9941 C125.7816,13.5141 125.8596,14.0341 125.8796,14.5551 C125.9066,15.2461 125.8886,15.9381 125.8896,16.6301 L125.8896,18.5391 C124.3606,19.0011 122.9056,18.7421 121.4816,18.7931 C120.1116,18.8411 118.7386,18.8031 116.8786,18.8031 C117.6106,18.1721 117.9636,17.8681 118.4116,17.4831 L118.4116,2.8061 C118.0176,2.4821 117.6216,2.1581 117.0126,1.6581 L125.5066,1.6581 C126.0086,3.3461 126.0316,5.5331 125.5146,7.6131 C125.1046,5.8891 125.2706,4.1621 123.7006,2.7131 C123.1556,2.5991 122.2996,2.4201 121.2006,2.1891 C120.8056,4.6991 120.9406,6.9361 121.0446,9.3531 C123.0726,8.9751 122.3956,7.0701 123.2056,6.1561 C123.6156,7.8261 123.6326,11.4841 123.2346,13.4131 C122.2686,12.6421 123.1676,10.7981 121.3016,10.3991 C120.3376,12.7411 121.4896,15.1871 120.7636,17.6561" id="Fill-21" fill="#008390"></path>
                <path d="M113.7668,6.1479 C114.3348,7.8869 114.3808,11.4509 113.8708,13.6349 C113.0118,12.6079 113.8658,10.5759 111.9188,10.4469 C111.4888,12.1389 111.4478,15.6019 111.8168,17.7059 C114.1938,18.0009 115.1018,17.4399 115.6728,15.2779 C115.8788,14.4949 116.0178,13.6949 116.5218,12.9649 L116.5218,18.6779 L107.6018,18.6779 C108.3008,18.1379 108.6968,17.8319 109.1438,17.4859 L109.1438,2.8679 C108.7998,2.5679 108.3688,2.1939 107.7618,1.6669 L116.5248,1.6669 L116.5248,7.8849 C115.6018,5.9789 116.0648,4.0219 114.1328,2.6729 C113.6868,2.5779 112.8258,2.3929 111.8018,2.1739 C111.4318,4.7129 111.5828,6.9659 111.6418,9.3049 C113.8058,9.1959 113.1018,7.2679 113.7668,6.1479" id="Fill-23" fill="#008390"></path>
                <path d="M183.4992,11.0679 L183.4992,2.6739 C183.2272,2.5069 182.7372,2.2069 181.8162,1.6439 L185.8682,1.6439 C185.3612,2.1999 184.9992,2.5979 184.4962,3.1499 L184.4962,8.2869 C184.4962,10.0539 184.5412,11.8229 184.4832,13.5879 C184.4262,15.3059 184.7492,17.0559 184.2432,18.7669 C183.3002,18.7199 183.2382,18.0319 183.0232,17.4909 C181.5812,13.8659 180.1452,10.2389 178.5482,6.6189 C178.3402,10.2399 178.3712,13.8579 178.3812,17.4369 C178.8812,17.8119 179.2802,18.1119 179.9992,18.6539 L175.9672,18.6539 C176.5392,18.0899 176.9162,17.7189 177.3712,17.2709 L177.3712,2.6409 C177.1532,2.5019 176.6522,2.1829 175.8252,1.6559 L179.3702,1.6559 C180.6362,4.8179 181.9072,7.9929 183.1782,11.1689 C183.2852,11.1349 183.3922,11.1019 183.4992,11.0679" id="Fill-25" fill="#008390"></path>
                <path d="M80.1592,18.2784 L80.1592,13.0614 C80.2452,13.0384 80.3302,13.0144 80.4162,12.9914 C80.5372,13.4224 80.6652,13.8524 80.7772,14.2864 C80.8932,14.7314 80.9592,15.1914 81.1072,15.6254 C81.7682,17.5614 82.8032,18.0874 84.9982,17.6324 C86.3202,15.8374 86.4742,14.8254 85.2622,13.0824 C84.5342,12.0374 83.5152,11.1704 82.5382,10.3274 C81.0872,9.0764 80.0452,7.6764 79.9422,5.6644 C79.7822,2.5224 81.9282,0.7474 84.9212,1.6024 C85.5312,1.7764 86.1712,1.8474 86.9482,1.9954 L86.9482,7.3914 C85.8572,5.7174 86.6342,3.0184 83.7042,2.2244 C83.2972,2.4114 82.6982,2.6874 82.2822,2.8794 C81.5712,4.3554 81.9052,5.9644 83.0972,7.0984 C83.9282,7.8884 84.8762,8.5564 85.7292,9.3264 C87.1622,10.6204 87.9192,12.2434 87.9802,14.1894 C88.0952,17.8154 85.8712,19.5924 82.3472,18.6944 C81.6792,18.5234 80.9892,18.4334 80.1592,18.2784" id="Fill-27" fill="#008390"></path>
                <path d="M87.9144,1.6422 L96.8464,1.6422 C96.8804,3.6272 97.2364,5.5222 96.6704,7.8182 C95.5034,3.0292 95.5034,3.0292 93.6984,2.5832 L93.6984,17.3952 C94.0314,17.6952 94.4134,18.0392 94.9814,18.5522 C93.1644,18.9362 91.5734,18.8322 89.6894,18.6112 C90.3044,18.1212 90.6994,17.8062 91.0874,17.4962 L91.0874,2.4382 C88.3194,3.1642 89.2444,5.7812 88.1604,7.5282 C87.7444,6.4832 87.9614,5.5332 87.9224,4.6232 C87.8844,3.7142 87.9144,2.8022 87.9144,1.6422" id="Fill-29" fill="#008390"></path>
                <path d="M126.8159,7.3994 L126.8159,1.6644 L135.5679,1.6644 L135.5679,7.3514 C134.5869,5.7644 135.0449,3.3694 132.7869,2.4174 C132.2399,4.1234 132.0859,12.3704 132.4609,17.4684 C132.8049,17.7594 133.1939,18.0884 133.7519,18.5614 C131.9779,18.9954 130.4119,18.7104 128.4179,18.8104 C129.0729,18.1534 129.4439,17.7814 129.8239,17.3994 L129.8239,2.5914 C128.2789,2.5114 128.0609,3.6754 127.7399,4.6094 C127.4259,5.5204 127.2829,6.4904 127.0649,7.4344 C126.9819,7.4224 126.8989,7.4114 126.8159,7.3994" id="Fill-31" fill="#008390"></path>
                <path d="M110.6123,38.8019 C111.0933,39.5059 111.5403,40.1599 111.9873,40.8129 C112.1673,40.7399 112.3473,40.6659 112.5273,40.5929 L112.5273,33.1039 C110.8113,32.8909 109.1813,31.9449 108.0593,34.1399 C109.0183,34.7799 109.8173,35.3119 110.5553,35.8049 C110.4383,36.1759 110.4363,36.3559 110.3603,36.3959 C109.6593,36.7689 108.9463,37.1169 108.1613,37.5099 C108.2473,38.0009 108.3263,38.4519 108.4083,38.9219 C109.2423,38.8759 109.9443,38.8379 110.6123,38.8019 L110.6123,38.8019 Z M114.6653,42.4729 C113.2653,42.6629 112.3493,42.7879 111.3263,42.9269 C110.8513,42.1289 110.4473,41.4509 109.9593,40.6309 C107.9323,40.8679 105.9013,41.1049 103.7143,41.3599 C103.5153,40.9989 103.3053,40.6189 102.9323,39.9429 C104.0643,39.5369 105.0063,39.1989 105.9653,38.8549 C106.0213,38.4529 106.0703,38.1009 106.1523,37.5129 C105.2713,37.1349 104.3673,36.7469 103.3503,36.3099 C103.6513,35.8009 103.7533,35.4009 104.0073,35.2409 C104.7883,34.7449 106.4563,35.2599 105.9443,33.1709 C104.9643,32.8879 103.8633,32.5709 102.4033,32.1499 L102.4033,43.5209 C101.3993,42.5299 100.6733,42.1529 100.6323,41.7129 C100.4873,40.1539 100.5763,38.5729 100.5763,36.8479 C99.9813,36.5289 99.3123,36.1699 98.4263,35.6949 C99.6823,33.4269 100.8383,31.3409 102.0213,29.2049 C102.4183,29.2729 102.9213,29.2149 103.0583,29.4109 C103.3643,29.8499 103.4863,30.4159 103.7433,31.0879 C104.3083,31.0569 105.0093,31.0179 105.8263,30.9739 C105.9563,30.4079 106.0583,29.9669 106.1713,29.4749 C105.3083,29.0199 104.5223,28.6049 103.7073,28.1749 C104.9663,26.9279 106.5213,26.2889 107.8243,24.9989 C108.2493,25.6889 108.1683,25.8839 108.6993,26.7449 C109.1043,26.9559 109.7943,27.3139 110.9093,27.8919 C109.7543,28.5699 109.0053,29.0099 108.2253,29.4669 C108.2573,29.8249 108.2893,30.1769 108.3593,30.9639 C110.9183,31.0779 113.5033,31.1929 116.6523,31.3329 C115.8873,32.4279 115.4113,33.1079 114.6653,34.1759 L114.6653,42.4729 Z" id="Fill-33" fill="#008390"></path>
                <path d="M67.8692,2.6785 C67.6002,2.5295 67.1322,2.2705 66.6652,2.0115 C66.7272,1.9035 66.7892,1.7965 66.8522,1.6895 L71.7762,1.6895 C71.2542,2.1435 70.8912,2.4595 70.5012,2.7985 L70.5012,17.6855 C72.6992,17.9125 73.5422,17.4415 74.0562,15.6645 C74.3062,14.7975 74.4212,13.8915 74.9452,12.9865 C75.0032,13.5115 75.0902,14.0345 75.1122,14.5605 C75.1422,15.2515 75.1222,15.9445 75.1232,16.6365 L75.1232,18.7065 C72.2692,18.8775 69.5572,18.7575 66.3412,18.7985 C67.0682,18.1225 67.4092,17.8055 67.8692,17.3775 L67.8692,2.6785 Z" id="Fill-35" fill="#008390"></path>
                <path d="M147.2173,1.694 C146.5793,2.137 146.2183,2.389 145.6673,2.772 C145.6673,4.853 145.6733,7.066 145.6663,9.278 C145.6593,11.348 145.7083,13.421 145.6063,15.486 C145.5043,17.565 144.4443,18.638 142.5323,18.842 C140.1073,19.102 138.7773,17.938 138.6833,15.456 C138.6693,15.078 138.7253,14.696 138.7513,14.271 C138.9443,14.047 139.1113,13.78 139.3453,13.604 C139.5783,13.429 139.8803,13.345 140.0493,13.268 C141.6313,13.554 141.6063,14.775 140.1163,16.651 C140.9923,17.935 140.9923,17.935 142.8363,17.601 C142.9503,16.709 143.1643,15.747 143.1773,14.783 C143.2223,11.41 143.1943,8.037 143.2013,4.664 C143.2033,3.571 143.1193,2.519 141.5633,1.694 L147.2173,1.694 Z" id="Fill-37" fill="#008390"></path>
                <path d="M128.9725,39.1231 C132.0365,39.1911 134.7675,39.5731 137.4305,38.8761 L137.4305,34.9801 L128.9725,34.9801 L128.9725,39.1231 Z M128.9935,32.4631 L137.4035,32.4631 L137.4035,27.9881 C134.5415,27.7301 131.8345,27.5171 128.9935,28.1761 L128.9935,32.4631 Z M139.6445,25.9281 C139.7635,31.8361 139.6875,37.2131 139.7095,43.1641 C138.3805,42.3621 137.6935,41.9471 136.7825,41.3981 C133.9345,41.8681 130.6375,40.2071 127.5405,42.9551 C126.2665,37.1211 127.6205,31.7241 126.6565,26.0691 C131.1335,25.8041 135.1915,25.9901 139.6445,25.9281 L139.6445,25.9281 Z" id="Fill-39" fill="#008390"></path>
                <path d="M74.0319,33.621 C73.3759,33.076 73.0189,32.778 72.7139,32.525 C74.3109,29.97 76.3129,27.954 77.9609,25.316 C78.3729,25.46 78.4259,25.207 79.0789,25.434 C78.8579,26.271 78.6829,26.932 78.4849,27.682 C78.8089,27.833 79.1089,28.092 79.4139,28.097 C81.9689,28.139 84.5259,28.115 87.0819,28.153 C88.0189,28.168 88.9529,28.298 90.0349,28.388 C89.8359,30.793 88.6499,32.373 87.0819,33.775 C88.1139,35.424 89.1329,37.053 90.2909,38.903 C89.8609,39.362 89.5429,39.702 88.8719,40.419 C87.3819,38.149 86.1549,36.282 84.9859,34.5 C85.7619,33.122 86.4829,31.843 87.4189,30.181 L82.7019,30.181 L82.7019,41.653 C79.7369,43.338 79.1859,43.306 77.4219,41.324 C78.3999,41.036 79.2479,40.787 80.3049,40.476 C80.8449,37.201 80.4739,33.836 80.5159,30.239 L77.1209,30.239 C76.1879,31.26 75.2149,32.325 74.0319,33.621" id="Fill-41" fill="#008390"></path>
                <path d="M64.6679,38.2418 C61.7689,39.8308 59.2649,38.7198 56.7709,39.3918 C56.5519,40.5048 56.3129,41.7148 56.0429,43.0828 C54.0069,42.3768 55.2589,40.6038 54.2299,39.2508 L47.6889,39.2508 C47.6499,38.4408 47.6289,38.0128 47.6009,37.4348 L53.8589,37.4348 C54.5899,36.6448 55.3539,35.8208 56.2249,34.8798 C55.9899,34.1258 55.7059,33.2178 55.4619,32.4358 C54.5499,32.2838 53.7399,32.1498 52.1269,31.8808 C53.7729,30.9228 54.6649,30.4038 55.5969,29.8618 C55.6629,28.4918 55.7269,27.1778 55.7989,25.6958 C56.3399,25.6078 56.7769,25.5378 57.4129,25.4358 C57.5939,26.5628 57.7589,27.5848 57.9579,28.8258 C59.1499,28.0548 60.1519,27.4068 61.3289,26.6458 C61.7149,26.8918 62.1859,27.1928 63.0229,27.7268 C61.1599,28.8558 59.5759,29.8158 57.8859,30.8398 C57.8859,31.5698 57.8859,32.2618 57.8879,32.9548 C59.0359,34.0938 60.4139,33.8268 62.7219,31.9188 C63.0159,32.4278 63.6419,33.1038 63.5039,33.3508 C63.1299,34.0178 62.4959,34.8708 61.8479,34.9838 C60.4429,35.2298 58.9639,35.0598 57.3799,35.0598 C57.0759,35.8108 56.8309,36.4158 56.5329,37.1528 C59.1139,38.0368 61.7469,36.4968 64.6679,38.2418" id="Fill-43" fill="#008390"></path>
                <path d="M163.5247,37.4016 C163.9417,36.4596 164.2817,35.8536 164.4627,35.2026 C164.5387,34.9306 164.2777,34.5646 164.1227,34.0986 C163.5507,34.2426 163.0407,34.3716 162.3617,34.5436 C162.7637,35.5306 163.0717,36.2876 163.5247,37.4016 M162.5587,39.2706 C161.8117,37.5306 161.2057,36.1196 160.4467,34.3536 L160.4467,40.8076 C161.2767,40.2036 161.8007,39.8226 162.5587,39.2706 M165.9017,30.7296 C164.7807,31.1646 163.8237,31.5356 162.8247,31.9236 C162.5787,31.3586 162.4407,31.0446 162.2567,30.6226 C163.0097,30.0466 163.7377,29.4876 164.5527,28.8626 C164.1887,28.4616 163.9787,28.0186 163.7357,27.9996 C162.6967,27.9206 161.6477,27.9666 160.4477,27.9666 L160.4477,32.4946 L166.7137,32.4946 C166.1297,34.9466 165.6437,36.9846 165.1387,39.1066 C165.9717,39.7886 166.7787,40.4506 167.6947,41.2006 C167.2127,41.6406 166.8707,41.9536 166.4637,42.3246 C165.5757,41.7876 164.7607,41.2946 163.9607,40.8116 C162.3817,41.5586 160.8087,42.3026 159.0187,43.1486 C158.3217,40.1776 158.7057,37.5206 158.6447,34.8956 C158.5817,32.2336 158.6307,29.5686 158.6307,26.7916 C161.2357,25.8716 163.6847,26.4376 166.3787,26.4096 C166.2077,27.9506 166.0797,29.1176 165.9017,30.7296" id="Fill-45" fill="#008390"></path>
                <path d="M151.5407,41.2613 C152.2477,40.9413 152.7837,40.6983 153.5397,40.3553 C153.5987,39.2803 153.6617,38.1083 153.7437,36.5943 C152.7827,36.6773 152.0347,36.7423 151.1397,36.8203 C151.0027,36.4313 150.8537,36.0083 150.6357,35.3893 C151.5727,34.9593 152.4087,34.5753 153.4697,34.0873 L153.4697,30.9463 L150.8897,30.9463 L150.8897,29.4253 C151.7637,29.2763 152.5607,29.1403 153.5247,28.9763 C153.6347,27.8333 153.7357,26.7863 153.8477,25.6183 C154.4457,25.5753 154.8877,25.5423 155.5347,25.4953 C155.6457,26.6413 155.7477,27.6853 155.8487,28.7283 C156.4767,29.1173 157.0587,29.4773 157.9417,30.0233 C157.1207,30.6223 156.5077,31.0693 155.8207,31.5713 L155.8207,32.9823 C156.5947,33.1363 157.2987,33.2773 158.6067,33.5383 C157.4117,34.4623 156.7047,35.0073 155.7467,35.7483 L155.7467,41.6053 C154.6847,42.1133 153.6847,42.5913 152.5337,43.1403 C152.0887,42.2973 151.8247,41.7983 151.5407,41.2613" id="Fill-47" fill="#008390"></path>
                <path d="M50.2887,35.9792 L50.2887,31.7262 C49.3117,31.9432 48.5117,32.1202 47.6987,32.3002 C47.6037,31.7892 47.4447,31.4802 47.5367,31.3502 C48.9247,29.4002 50.3467,27.4732 51.8357,25.4372 C52.3407,25.7322 52.8337,26.0212 53.4567,26.3852 C52.8817,27.2382 52.4267,27.9132 52.0497,28.4742 C51.2577,31.0332 52.7707,33.8092 51.1167,36.1062 C50.8407,36.0632 50.5647,36.0212 50.2887,35.9792" id="Fill-49" fill="#008390"></path>
                <path d="M76.7574,33.2742 C77.2674,33.3992 77.7084,33.5082 78.3464,33.6652 C77.6724,36.1912 76.2794,38.0622 74.4224,39.9522 C73.9264,39.5682 73.5004,39.2372 73.0164,38.8622 C74.3044,36.9382 75.5024,35.1492 76.7574,33.2742" id="Fill-51" fill="#008390"></path>
                <path d="M98.6014,28.8012 C99.6854,27.4472 101.2394,26.5282 102.3814,25.1022 C102.9504,25.5222 102.8394,25.3512 103.3754,25.7472 C101.9524,27.2472 101.3704,29.4622 99.0374,29.5562 C98.8924,29.3042 98.7464,29.0532 98.6014,28.8012" id="Fill-53" fill="#008390"></path>
                <path d="M205.2408,16.4362 C206.4658,18.0202 206.4128,18.2232 204.7688,18.7422 C203.9728,17.4722 203.9728,17.4722 205.2408,16.4362" id="Fill-55" fill="#008390"></path>
                <path d="M116.0445,26.7014 C114.4405,27.7804 112.8565,27.9624 110.8355,26.8624 C112.8635,25.3904 114.4635,26.0314 116.0445,26.7014" id="Fill-57" fill="#008390"></path>
            </g>
        </g>
    </g>
</svg>