<?xml version="1.0" encoding="UTF-8" standalone="no"?>
<svg width="155px" height="28px" viewBox="0 0 155 28" version="1.1" xmlns="http://www.w3.org/2000/svg" xmlns:xlink="http://www.w3.org/1999/xlink" xmlns:sketch="http://www.bohemiancoding.com/sketch/ns">
    <!-- Generator: Sketch 3.3.2 (12043) - http://www.bohemiancoding.com/sketch -->
    <title>dailydot</title>
    <desc>Created with Sketch.</desc>
    <defs></defs>
    <g id="Page-1" stroke="none" stroke-width="1" fill="none" fill-rule="evenodd" sketch:type="MSPage">
        <g id="lantern_home_desktop" sketch:type="MSArtboardGroup" transform="translate(-236.000000, -1730.000000)" fill="#FFFFFF">
            <g id="dailydot" sketch:type="MSLayerGroup" transform="translate(236.000000, 1730.000000)">
                <path d="M36.4855868,11.2628317 C35.4500623,12.1248298 34.413411,12.9868279 33.4736641,13.7676967 L33.4736641,21.5899067 C33.7970543,21.6721627 34.1305855,21.7792082 34.4720044,21.8378015 C34.8224376,21.8963949 35.1807584,21.9099164 35.599926,21.950481 C35.5131628,22.208517 35.4816126,22.3978186 35.391469,22.5521895 C34.2117148,24.6007025 34.2094612,24.5995757 31.172749,25.7218634 C30.469629,25.120155 29.6583367,24.4249225 28.8842287,23.7601136 C30.4854042,19.9245038 29.2910016,16.0629778 29.7552411,12.0346862 C28.8143674,11.684253 27.9546229,11.3619897 26.8267012,10.9405684 L26.8267012,23.2147448 C25.9331529,24.2840732 25.306655,25.0333918 24.5855062,25.894263 C23.6851971,25.4953777 22.9403857,25.1663536 22.0186675,24.757327 L22.0186675,3.70654537 C21.92289,3.70316498 21.8271124,3.70091139 21.7313349,3.69753101 C21.3673801,5.41701997 21.0034254,7.13538214 20.6451046,8.81994046 C19.3380226,9.24812251 18.2292564,9.61095046 17.1193635,9.9737784 C18.2630603,14.0426347 17.1475333,18.3560054 17.7774117,22.911637 C18.9977305,22.1420361 19.9532526,21.5414545 21.3380834,20.670442 C21.2558274,21.5684976 21.3809017,22.1386558 21.1532891,22.3910578 C18.8805438,24.9083175 16.2618726,26.7168233 12.6223252,26.3956867 C11.3783436,26.2852609 10.1174602,26.377658 8.92531123,26.377658 C5.2237901,24.0733625 4.71673241,23.5663048 2.47891781,19.9109823 C2.47891781,18.8979937 2.52286281,17.7723257 2.46990345,16.6511648 C2.33356127,13.7271321 3.99671049,11.9355283 6.26720214,10.5225275 C6.44861612,10.4087212 6.76073829,10.5067524 7.01314034,10.5067524 L7.01314034,11.8149612 C9.6554743,12.744567 11.1541115,9.96701763 13.705175,9.72362994 C13.7423593,11.0476139 13.793065,12.3670907 13.809967,13.6876943 C13.8279957,15.0499893 13.8144741,16.4122843 13.8144741,17.6359835 C13.3637562,18.1159981 13.0223374,18.4776992 12.700074,18.8202449 L10.0352042,18.8202449 L10.0352042,12.4335716 C8.50388995,12.9811939 7.34554483,13.3958544 6.29199163,13.7722039 L6.29199163,18.8439076 C6.9996188,19.0760273 7.76133213,19.3261758 8.52417225,19.5763242 L8.52417225,21.6135693 C9.35912725,22.1465433 10.2616899,22.7245891 11.2284799,23.3431995 L15.9373557,23.3431995 C15.9813007,20.8642508 16.5954039,18.3593858 15.3514223,15.7486021 C16.6044182,14.1677089 15.908059,12.134971 16.1142625,10.1687139 C13.8651799,7.72807624 10.4611326,8.07625585 8.07908828,6.88410688 C4.59954574,7.15791804 2.52624319,9.41150776 0.211806543,11.2628317 L0.211806543,8.23964111 C1.53917089,8.13935636 0.638861797,7.05988688 0.993802179,6.50325022 C2.20397986,5.24462036 3.18767178,3.86429665 5.24745279,3.43273422 C6.8463747,3.09694935 8.02387534,3.0856814 9.64871353,3.5240046 C12.7090884,4.34994524 15.4674822,5.8722451 18.4816585,6.72860919 C20.2360781,6.11675958 19.7955013,4.61136164 19.8507142,3.54879409 C21.1893465,2.50200166 22.4029046,1.55662077 23.4080056,0.770117953 C24.3432454,1.70986487 25.2063702,2.57637012 26.5438757,3.91725601 L26.5438757,9.66052943 C27.9354674,9.08023007 29.1298699,8.58218674 30.4707558,8.0221697 C31.4150099,8.89092854 32.3040511,9.70898161 33.3057717,10.6306998 C34.2353775,10.3523815 35.2201962,10.0571612 36.4855868,9.67743135 L36.4855868,11.2628317" id="Fill-15" sketch:type="MSShapeGroup"></path>
                <path d="M81.8289389,21.0873561 C82.081341,20.8879135 82.547834,20.6918511 82.5512144,20.4879013 C82.6007934,17.7407754 82.5850183,14.9925227 82.5850183,12.3039902 C81.9979582,12.0876456 81.5618885,11.9287675 81.4435751,11.8859493 C82.3168411,11.0126833 83.2520808,10.0796971 84.3687345,8.96304341 C84.8115649,9.37657712 85.421161,9.94786212 86.1648456,10.6419678 C87.0876906,10.360269 88.0826504,10.0571612 89.1869094,9.72024956 C89.2646582,10.1596996 89.4990316,10.6622501 89.3559286,10.8188745 C88.6832321,11.5591788 87.9068704,12.2037054 87.1981165,12.8549929 L87.1981165,20.4450831 C88.392519,20.148736 89.4742421,19.8783053 90.5762475,19.6033673 C90.809494,20.0833819 91.0427405,20.5656501 91.5035996,21.516665 L91.5035996,3.88457896 C90.990908,3.71105255 90.551458,3.56118883 89.7581944,3.29075806 C90.5796278,2.30143217 91.2647191,1.47661833 91.9160065,0.693495902 L94.3273476,0.693495902 C94.8986326,1.29182398 95.5048482,1.92846307 96.2721955,2.73186781 L96.2721955,20.5295927 C97.4733588,20.1859203 98.4615579,19.9042215 99.5917332,19.5819582 C99.7934294,20.0112671 100.02893,20.5093104 100.26443,21.0084805 C100.354573,20.9724231 100.521339,20.9363656 100.521339,20.8991814 C100.532607,18.0416296 100.532607,15.1840779 100.532607,12.2251145 C100.025549,12.4290644 99.4520106,12.6623109 98.4153593,13.0826054 C98.6350843,12.2003251 98.5967733,11.5129802 98.9111491,11.2493102 C99.9106161,10.4177356 101.043045,9.74278545 102.575486,8.70050021 C102.968737,9.49263699 103.419455,10.3974533 103.8713,11.3033963 C104.089898,11.1287431 104.30737,10.9529631 104.525968,10.7771831 L104.525968,19.2585681 C106.324332,20.5926932 106.325459,20.5904396 108.157628,19.3588528 L108.157628,11.4566404 C107.59423,11.3563557 106.901251,11.2335351 106.546311,11.1693078 C107.314785,10.4008337 108.219601,9.49714417 109.124418,8.5923279 C110.540799,7.79117675 111.047857,9.42164892 112.030422,10.0673024 L112.030422,22.9871323 C110.309806,25.7770764 110.309806,25.7770764 105.787978,27.8819292 C104.404274,27.5483979 103.030711,27.2159934 101.576019,26.8655602 C101.576019,26.5827347 101.491509,25.9731387 101.588414,25.9415884 C102.7569,25.5742533 103.693266,24.2288602 105.190777,25.1381837 C105.760935,25.4841097 106.503493,25.5449566 107.371125,25.7939783 L107.371125,21.1132724 C106.684907,22.3493664 106.338981,22.9713572 105.953617,23.6654628 C104.369343,23.2519291 103.135503,22.873326 101.875746,22.6141632 C100.736557,22.3809166 99.5714509,22.2783783 97.9139356,22.0485122 C97.8384404,22.2772515 97.5860383,23.0389648 97.3539186,23.7398313 C94.4862256,23.0615007 92.3385546,22.5521895 89.83707,21.9606222 C88.3237845,22.4259884 86.7237358,24.587181 84.305634,22.6896584 C83.7884352,22.2840123 82.3551521,23.0445988 81.0728596,23.3285511 L81.0728596,21.8434355 C81.3252616,21.5910334 81.5765369,21.3386314 81.8289389,21.0873561" id="Fill-16" sketch:type="MSShapeGroup"></path>
                <path d="M54.6326181,6.36014727 C54.2675366,5.99619253 53.9125962,5.64125215 53.550895,5.2784242 C52.7125596,5.23109882 51.8674635,5.18490023 50.9491257,5.13306767 C50.3440368,4.07050011 49.7659911,3.05525794 48.9997706,1.70986487 C54.4162735,1.06533821 59.4800896,1.41577141 65.1377266,2.52228397 C66.7862275,3.63781088 67.5930126,5.67843638 67.5096298,8.34555982 C67.3665268,12.9800671 67.470192,17.6224619 67.470192,22.4304956 L63.2717543,22.4304956 C62.5607468,23.3060152 61.8553732,24.1747741 61.2288752,24.9466286 C58.5640054,24.2423818 56.2743582,22.2457013 53.6455458,24.1353363 C53.2286317,24.4350637 53.0528517,25.070576 52.7858013,25.5179136 L50.9220826,25.5179136 C50.9074343,23.2057305 52.5931194,22.0834428 53.9621751,20.5870592 C53.2027154,20.4439563 52.5153705,20.3143749 51.7006979,20.160004 L51.7006979,14.4268717 C50.6527786,14.3446157 49.7130317,14.2702472 48.7068039,14.1913716 C48.1219974,11.8735545 50.6539054,12.3794854 51.4291403,10.9022574 L51.4291403,7.97371752 C52.5852318,7.39116457 53.606108,6.87621932 54.6326181,6.36014727 L54.6326181,6.36014727 Z M54.8264268,20.2062026 L58.9899338,20.2062026 L58.9899338,6.07732176 L56.3239372,6.07732176 C54.1345748,10.6261926 56.4208415,15.5716953 54.8264268,20.2062026 L54.8264268,20.2062026 Z M63.7912067,21.0208752 C63.4204912,18.792075 64.3309415,16.7368012 62.8514598,14.9643529 C64.1934725,13.6933282 63.8126158,12.3986409 62.8187828,11.2617049 C64.4796784,9.00360802 63.6886684,7.09369073 62.4514476,5.19842177 C61.8722751,5.22771843 61.2874686,5.25926869 60.7657625,5.28631177 L60.7657625,11.8025665 C61.3009901,11.9873608 61.7370597,12.1394781 62.3320074,12.3468084 C61.6660716,12.6544234 61.1590139,12.8899235 60.7916788,13.0611963 L60.7916788,21.0208752 L63.7912067,21.0208752 L63.7912067,21.0208752 Z" id="Fill-17" sketch:type="MSShapeGroup"></path>
                <path d="M127.80893,25.0840975 C124.710244,23.9685706 122.267353,22.0947108 119.654316,24.5657719 C119.595722,24.8474706 119.523608,25.191143 119.451493,25.542703 L117.393965,25.542703 C117.529181,23.3296779 118.975985,22.0654141 120.434058,20.6569205 C120.062215,20.5329731 119.761361,20.3966309 119.446985,20.3414179 C119.092045,20.2771906 118.723583,20.286205 118.232301,20.2546547 L118.232301,14.4449004 C117.099872,14.3232066 116.073362,14.2116539 114.915017,14.0877065 C115.398412,12.205959 116.67169,11.5479108 118.061028,10.9574703 L118.061028,7.90949021 C119.086411,7.39229137 120.107287,6.87621932 121.132671,6.35789368 C120.764209,5.98943176 120.408141,5.63336459 120.022778,5.24687395 L117.806372,5.24687395 C116.873386,4.19219395 115.18432,3.54203332 116.104912,1.43830731 C118.760767,1.43830731 121.519161,1.27492205 124.242624,1.51380256 C125.457309,1.61972128 126.601006,0.279962187 127.77738,1.43830731 C130.870432,1.25689333 132.684572,2.98765025 133.862072,5.64688612 L133.862072,22.521766 L129.91829,22.521766 C129.228692,23.3589746 128.518811,24.2220995 127.80893,25.0840975 L127.80893,25.0840975 Z M126.306913,20.2659227 L126.306913,6.05365907 L122.993009,6.05365907 C122.586236,6.43000855 122.221154,6.76804701 121.881989,7.08242278 L121.881989,11.6358008 C121.881989,13.1366916 121.958611,14.6432163 121.859453,16.1373463 C121.768183,17.5018949 121.484231,18.8529219 121.278027,20.2659227 L126.306913,20.2659227 L126.306913,20.2659227 Z M130.194355,20.9983394 C130.194355,19.6157621 129.911529,18.3886824 130.26647,17.3903422 C130.708173,16.1497411 128.528952,15.4747909 129.882233,14.051649 C130.337458,13.5716344 129.781948,12.1304638 129.712087,11.3867792 C129.940826,9.80813956 130.141396,8.41992828 130.337458,7.06664765 C129.324469,6.27789125 128.507543,5.64237894 127.317648,4.71728036 L127.317648,20.9983394 L130.194355,20.9983394 L130.194355,20.9983394 Z" id="Fill-18" sketch:type="MSShapeGroup"></path>
                <path d="M146.691758,22.6175436 L146.691758,12.8459785 L145.412846,12.8459785 L145.412846,20.9870714 C143.618989,22.0789356 141.80823,23.180941 140.309592,24.0936448 C138.272347,23.7172954 136.633988,23.4153143 134.859286,23.0885438 C134.89985,23.1358692 134.746606,22.9814983 134.759001,22.9679768 C134.995628,22.6851513 135.25141,22.4181009 135.495925,22.1566845 C134.062642,18.9340512 135.022671,15.5773293 134.684632,12.1451121 C136.698215,11.0814178 138.662218,10.0413861 140.835806,8.89205533 C142.021194,9.6447543 143.30912,10.4628074 144.584652,11.2729729 C145.222418,10.9653579 145.85117,10.6656304 146.666969,10.2735058 L146.666969,7.18496111 C147.925599,6.24296061 148.620831,4.80742395 150.458634,4.2485337 L150.458634,9.316857 C151.808534,10.2487163 152.6818,10.5721065 154.328047,10.8346497 C154.346076,11.0791642 154.362978,11.3236786 154.399035,11.8442579 C153.716198,11.9017244 153.00857,11.8780617 152.349395,12.0437006 C151.796139,12.1834231 151.298096,12.5473779 150.714416,12.8414713 L150.714416,20.0800015 C151.676699,21.1504567 152.791099,21.9482274 154.5027,19.7352023 C154.258186,22.3200697 152.600671,22.8586777 152.027132,23.801805 C149.657483,25.2835402 148.700834,22.3223233 146.691758,22.6175436 L146.691758,22.6175436 Z M142.151902,21.5527224 L142.151902,13.9434767 C140.943978,13.1310576 139.987329,12.4899113 139.037441,11.8521454 C138.780532,12.2070858 138.527003,12.3952606 138.524749,12.5856889 C138.497706,14.8336447 138.507847,17.0827272 138.507847,19.061379 C139.689855,19.8692909 140.655518,20.5295927 142.151902,21.5527224 L142.151902,21.5527224 Z" id="Fill-19" sketch:type="MSShapeGroup"></path>
                <path d="M81.0728596,21.8434355 C79.6519712,21.434409 79.2328036,22.8598045 78.3065782,23.3544674 C76.6670917,23.0322041 75.0276051,22.708814 73.4478387,22.3978186 C72.6602091,23.0998118 72.0314576,23.658702 71.4500314,24.1759009 C70.5159185,23.049106 69.6550472,22.0102011 68.7930491,20.9712963 C68.6093816,21.1470763 68.4268408,21.3239831 68.2431733,21.5008899 L68.2431733,16.9666673 C69.5446213,15.3080253 71.2336868,14.2747544 73.4478387,14.1384122 L73.4478387,11.9231335 C72.3469601,12.2746935 71.3970721,12.5800549 70.2173179,12.9575312 C69.6347649,12.178916 69.0454512,11.3935399 68.3750082,10.4999916 L68.3750082,7.85089688 C69.4443366,8.59796187 70.1936552,9.12079469 71.2618567,9.86673289 C72.3142831,9.70560122 73.7216499,9.49038341 75.53917,9.21319187 C75.808474,9.44981879 76.4372255,10.0053287 77.1392187,10.6250658 C78.1161498,10.3253384 79.0863202,10.0267378 80.2807228,9.66052943 C80.4339669,11.5986166 78.730253,11.9929948 78.1420661,13.2437371 L78.1420661,20.4597314 C79.3883012,20.1667647 80.4756583,19.9121091 81.8289389,19.5932262 L81.8289389,21.0873561 C81.5765369,21.3386314 81.3252616,21.5910334 81.0728596,21.8434355 L81.0728596,21.8434355 Z M74.1453247,19.5030826 L74.1453247,16.5170762 C73.3261449,16.5835571 72.6557019,16.6365164 72.1046992,16.6804614 L72.1046992,21.4051123 C72.6714771,20.8777723 73.336286,20.2580351 74.1453247,19.5030826 L74.1453247,19.5030826 Z" id="Fill-20" sketch:type="MSShapeGroup"></path>
                <path d="M41.7758887,17.3080862 C41.5336278,18.0867014 41.2913669,18.8641899 40.9240318,20.0450709 C41.2868597,20.2095829 41.8671591,20.4732529 43.0176166,20.994959 C43.1888895,20.9431264 44.1928637,20.6332578 45.3895198,20.2659227 C45.3895198,20.7707268 45.5720606,21.3645477 45.3590964,21.6023014 C44.2908948,22.796704 43.120155,23.8998361 41.977585,25.0412793 C40.1431629,23.801805 38.4867745,22.6840245 36.4855868,21.3329974 L36.4855868,11.2628317 C38.9307317,11.5873486 40.5409215,9.65602225 42.8643725,8.91797161 C44.2356819,10.5247811 46.3574366,11.7056621 46.3146184,14.6296948 C45.4312112,15.2787286 45.0142971,16.825818 43.2869206,16.5531336 L43.2869206,14.5643407 C42.5150661,13.9209408 41.6913791,13.2358495 40.5589502,12.2927222 C40.1285146,14.2815152 40.1904883,15.7936739 40.4147205,17.3080862 L41.7758887,17.3080862" id="Fill-21" sketch:type="MSShapeGroup"></path>
                <path d="M87.4437577,5.72576176 C86.4138672,6.75903265 85.6668022,7.50722444 84.920864,8.25541623 C82.8250256,6.49986984 82.8250256,6.49986984 84.6718424,4.36121318 C85.4707399,4.75446459 86.3000609,5.16236433 87.4437577,5.72576176" id="Fill-22" sketch:type="MSShapeGroup"></path>
                <path d="M6.98271688,10.5371758 C7.01990111,10.052654 7.05483175,9.6008093 7.09426957,9.10163918 C7.5483679,9.06332815 7.87626521,9.03515828 8.37994251,8.99346687 C8.43064828,9.45207238 8.47572008,9.8644793 8.5354402,10.4166088 C7.91908341,10.465061 7.46723867,10.4999916 6.98271688,10.5371758" id="Fill-23" sketch:type="MSShapeGroup"></path>
                <path d="M10.0352042,18.8202449 C9.97097686,19.9504201 9.09658405,19.4613912 8.52417225,19.5763242 C8.58839956,18.4450222 9.46279238,18.9340512 10.0352042,18.8202449" id="Fill-24" sketch:type="MSShapeGroup"></path>
                <path d="M43.2869206,16.5531336 C43.2226933,17.6833089 42.3483005,17.1954067 41.7758887,17.3080862 C41.840116,16.1779109 42.7145088,16.6669399 43.2869206,16.5531336" id="Fill-25" sketch:type="MSShapeGroup"></path>
                <path d="M146.840495,23.1854482 C146.358227,23.2271396 145.877086,23.2677042 145.395944,23.3093956 C145.373408,23.1471372 145.351999,22.9837519 145.329463,22.8214934 C145.821873,22.7257159 146.314282,22.6288115 146.806692,22.533034 C146.817959,22.7493786 146.829227,22.9679768 146.840495,23.1854482" id="Fill-26" sketch:type="MSShapeGroup"></path>
            </g>
        </g>
    </g>
</svg>