<?xml version="1.0" encoding="UTF-8" standalone="no"?>
<svg width="131px" height="120px" viewBox="0 0 131 120" version="1.1" xmlns="http://www.w3.org/2000/svg" xmlns:xlink="http://www.w3.org/1999/xlink" xmlns:sketch="http://www.bohemiancoding.com/sketch/ns">
    <!-- Generator: Sketch 3.3.2 (12043) - http://www.bohemiancoding.com/sketch -->
    <title>icon_small</title>
    <desc>Created with Sketch.</desc>
    <defs></defs>
    <g id="Page-1" stroke="none" stroke-width="1" fill="none" fill-rule="evenodd" sketch:type="MSPage">
        <g id="lantern_home_desktop" sketch:type="MSArtboardGroup" transform="translate(-630.000000, -1018.000000)" fill="#FFFFFF">
            <g id="icon_small" sketch:type="MSLayerGroup" transform="translate(630.000000, 1018.000000)">
                <path d="M112.656,36.6530909 C112.704,35.9432727 112.727273,35.2436364 112.727273,34.5454545 C112.727273,15.4967273 97.2305455,0 78.1818182,0 C63.8589091,0 51.0414545,9.04 45.9694545,22.1105455 C41.3861818,19.5534545 36.1876364,18.1818182 30.9090909,18.1818182 C13.8661818,18.1818182 0,32.048 0,49.0909091 C0,66.1338182 13.8661818,80 30.9090909,80 L54.5454545,80 L61.8181818,80 L61.8181818,107.585455 L46.208,91.9738182 C45.4967273,91.264 44.5672727,90.9090909 43.6363636,90.9090909 C42.7054545,90.9090909 41.776,91.264 41.0647273,91.9738182 C39.6436364,93.3949091 39.6436364,95.696 41.0647273,97.1156364 L62.8785455,118.930909 C63.0487273,119.101091 63.2378182,119.253818 63.44,119.387636 C63.5214545,119.441455 63.6087273,119.479273 63.6930909,119.524364 C63.8152727,119.594182 63.9345455,119.666909 64.0654545,119.720727 C64.1789091,119.768727 64.2981818,119.794909 64.4145455,119.829818 C64.5236364,119.861818 64.6298182,119.905455 64.7432727,119.927273 C64.9745455,119.972364 65.2087273,119.997091 65.4429091,119.997091 C65.4472727,119.998545 65.4516364,120 65.4545455,120 C65.6945455,120 65.9316364,119.973818 66.1672727,119.928727 C66.2734545,119.905455 66.3723636,119.866182 66.4741818,119.837091 C66.5992727,119.802182 66.7243636,119.773091 66.8450909,119.722182 C66.9672727,119.671273 67.0807273,119.601455 67.1956364,119.537455 C67.2872727,119.488 67.3832727,119.445818 67.4705455,119.389091 C67.6712727,119.253818 67.8589091,119.102545 68.0290909,118.932364 L89.8429091,97.1170909 C91.264,95.696 91.264,93.3949091 89.8429091,91.9752727 C88.4232727,90.5541818 86.1192727,90.5541818 84.7010909,91.9752727 L69.0909091,107.585455 L69.0909091,80 L109.090909,80 C121.121455,80 130.909091,70.2123636 130.909091,58.1818182 C130.909091,47.3643636 122.997818,38.3607273 112.656,36.6530909 L112.656,36.6530909 Z M109.090909,72.7272727 L30.9090909,72.7272727 C17.8763636,72.7272727 7.27272727,62.1221818 7.27272727,49.0909091 C7.27272727,36.0567273 17.8763636,25.4545455 30.9090909,25.4545455 C36.3578182,25.4545455 41.4836364,27.2669091 45.7323636,30.6967273 L50.3025455,34.384 L51.568,28.6487273 C54.2996364,16.2618182 65.4923636,7.27272727 78.1818182,7.27272727 C93.2203636,7.27272727 105.454545,19.5054545 105.454545,34.5454545 C105.454545,36.0770909 105.306182,37.6538182 105.000727,39.3614545 L104.237091,43.6363636 L109.090909,43.6363636 C117.111273,43.6363636 123.636364,50.1614545 123.636364,58.1818182 C123.636364,66.2021818 117.111273,72.7272727 109.090909,72.7272727 L109.090909,72.7272727 Z" id="Shape" sketch:type="MSShapeGroup"></path>
                <path d="M50.104,47.344 C50.524,47.344 50.846,47.638 50.846,48.058 C50.846,48.38 50.664,48.632 50.37,48.772 L45.764,50.942 L50.37,53.112 C50.664,53.238 50.846,53.476 50.846,53.798 C50.846,54.204 50.524,54.526 50.16,54.512 C49.992,54.512 49.866,54.47 49.726,54.4 L44.686,51.922 C44.252,51.726 44,51.404 44,50.984 L44,50.872 C44,50.452 44.252,50.13 44.686,49.934 L49.726,47.456 C49.838,47.4 49.978,47.344 50.104,47.344 L50.104,47.344 Z M60.212,56.024 C62.312,56.024 63.796,54.694 63.796,52.706 L63.796,52.678 C63.796,50.606 62.298,49.598 60.38,49.598 C59.722,49.598 59.288,49.71 58.826,49.878 L58.98,47.582 L62.662,47.582 C63.082,47.582 63.432,47.246 63.432,46.826 C63.432,46.406 63.082,46.056 62.662,46.056 L58.224,46.056 C57.804,46.056 57.468,46.378 57.44,46.826 L57.23,50.354 C57.216,50.676 57.314,50.928 57.566,51.11 C57.902,51.348 58.112,51.446 58.378,51.446 C58.644,51.446 59.106,51.11 60.058,51.11 C61.248,51.11 62.088,51.726 62.088,52.734 L62.088,52.762 C62.088,53.798 61.29,54.456 60.184,54.456 C59.414,54.456 58.728,54.176 58.056,53.63 C57.916,53.518 57.762,53.462 57.552,53.462 C57.104,53.462 56.726,53.84 56.726,54.288 C56.726,54.568 56.866,54.792 57.076,54.96 C57.874,55.576 58.882,56.024 60.212,56.024 L60.212,56.024 Z M65.882,55.086 C65.882,55.562 66.246,55.926 66.722,55.926 C67.198,55.926 67.576,55.562 67.576,55.086 L67.576,49.22 L69.956,52.79 C70.138,53.07 70.362,53.238 70.67,53.238 C70.992,53.238 71.216,53.07 71.398,52.79 L73.792,49.192 L73.792,55.072 C73.792,55.534 74.184,55.926 74.646,55.926 C75.136,55.926 75.514,55.548 75.514,55.072 L75.514,46.868 C75.514,46.392 75.136,46 74.646,46 L74.464,46 C74.114,46 73.862,46.154 73.68,46.448 L70.698,51.11 L67.73,46.462 C67.562,46.196 67.31,46 66.932,46 L66.75,46 C66.26,46 65.882,46.392 65.882,46.868 L65.882,55.086 Z M78.034,54.988 C78.034,55.478 78.412,55.856 78.902,55.856 L82.57,55.856 C84.754,55.856 86.196,54.918 86.196,53.168 L86.196,53.14 C86.196,51.81 85.398,51.152 84.25,50.76 C84.978,50.382 85.65,49.752 85.65,48.576 L85.65,48.548 C85.65,47.89 85.426,47.358 84.992,46.924 C84.432,46.364 83.55,46.056 82.43,46.056 L78.902,46.056 C78.412,46.056 78.034,46.434 78.034,46.924 L78.034,54.988 Z M79.728,50.186 L79.728,47.582 L82.206,47.582 C83.312,47.582 83.928,48.058 83.928,48.828 L83.928,48.856 C83.928,49.752 83.186,50.186 82.08,50.186 L79.728,50.186 Z M79.728,54.33 L79.728,51.642 L82.458,51.642 C83.816,51.642 84.474,52.132 84.474,52.958 L84.474,52.986 C84.474,53.868 83.76,54.33 82.584,54.33 L79.728,54.33 Z" id="&gt;-5MB!" sketch:type="MSShapeGroup"></path>
            </g>
        </g>
    </g>
</svg>