<?xml version="1.0" encoding="UTF-8" standalone="no"?>
<svg width="125px" height="125px" viewBox="0 0 125 125" version="1.1" xmlns="http://www.w3.org/2000/svg" xmlns:xlink="http://www.w3.org/1999/xlink">
    <!-- Generator: Sketch 3.6.1 (26313) - http://www.bohemiancoding.com/sketch -->
    <title>Group 40</title>
    <desc>Created with Sketch.</desc>
    <defs></defs>
    <g id="Page-1" stroke="none" stroke-width="1" fill="none" fill-rule="evenodd">
        <g id="Group-40" transform="translate(1.000000, 1.430000)" stroke="#FFFFFF">
            <path d="M121.7461,61.2305 C121.7461,94.5755 94.7151,121.6065 61.3701,121.6065 C28.0261,121.6065 0.9951,94.5755 0.9951,61.2305 C0.9951,27.8855 28.0261,0.8545 61.3701,0.8545 C94.7151,0.8545 121.7461,27.8855 121.7461,61.2305 L121.7461,61.2305 Z" id="Stroke-2" stroke-width="3"></path>
            <path d="M49.6963,81.231 C49.6963,81.231 54.4273,91.462 66.2683,87.972 C66.2683,87.972 73.9223,89.449 76.8953,84.093 C77.1663,83.607 77.8683,83.559 78.4103,83.44 C80.4303,82.997 84.6793,81.616 86.3533,77.659 C86.3533,77.659 90.5823,74.52 87.9323,65.251" id="Stroke-4" stroke-width="2.255" stroke-linecap="round"></path>
            <path d="M88.3389,74.3257 C88.3389,74.3257 100.4089,73.6557 96.1259,63.0217 C91.8419,52.3877 96.2849,62.4647 96.2849,62.4647 C96.2849,62.4647 102.2909,48.7717 93.4549,45.5497 C93.4549,45.5497 92.0369,37.1977 84.8619,38.1767" id="Stroke-6" stroke-width="2.255" stroke-linecap="round"></path>
            <path d="M54.3369,86.4971 C54.3369,86.4971 46.1149,93.0831 42.7689,85.6331 C39.4219,78.1841 41.2249,73.9391 42.3299,71.5141 C42.3299,71.5141 37.9999,62.2571 46.8089,58.3301 C46.8089,58.3301 48.5199,51.9981 51.9859,51.4271 C51.9859,51.4271 53.4789,45.9811 57.2339,45.3531 C57.2339,45.3531 60.3919,34.6361 69.6169,36.6251 C69.6169,36.6251 71.8009,33.2531 76.2849,35.7451 C76.2849,35.7451 81.5209,35.1451 82.2549,35.6331 C82.9869,36.1221 85.6209,36.1341 86.0239,45.2101" id="Stroke-8" stroke-width="2.255" stroke-linecap="round"></path>
            <path d="M42.3398,84.6274 C42.3398,84.6274 38.4878,89.5874 33.0048,85.2044 C33.0048,85.2044 23.1678,84.4054 24.8388,69.7694 C24.8388,69.7694 23.0958,65.6904 27.1128,64.1694 C27.1128,64.1694 25.8688,53.4694 33.1868,52.1474 C33.1868,52.1474 30.9918,40.8954 43.1238,41.0554 C43.1238,41.0554 45.4958,36.4894 49.8858,37.4214 C49.8858,37.4214 51.3928,37.5924 53.2478,36.3144 C55.1028,35.0364 56.8758,33.6944 58.4728,33.4324 C58.4728,33.4324 63.7008,32.3634 67.5348,35.8374" id="Stroke-10" stroke-width="2.255" stroke-linecap="round"></path>
            <path d="M43.2881,71.5728 C43.2881,71.5728 51.2841,78.2208 59.0271,67.0298 C59.2231,66.7488 61.0631,67.2988 62.5301,66.2888 C65.3011,64.3808 66.3321,60.8728 70.3031,60.0988 C73.2751,59.5188 74.8611,60.4128 75.2941,60.8768" id="Stroke-12" stroke-width="2.255" stroke-linecap="round"></path>
            <path d="M47.7988,64.4873 C47.7988,64.4873 54.1288,69.2483 55.9248,60.8303 C55.9248,60.8303 59.5538,61.4563 60.8598,59.5173 C62.1648,57.5793 64.1328,51.4863 66.6388,51.0253 C66.6388,51.0253 71.9538,49.1463 72.2818,54.0633 C72.2818,54.0633 72.4858,55.8233 69.6498,56.0273" id="Stroke-14" stroke-width="2.255" stroke-linecap="round"></path>
            <path d="M54.3047,80.5776 C54.3047,80.5776 61.6847,84.6096 67.5917,77.4946 C73.4997,70.3806 74.9867,72.9666 77.2047,72.1126 C79.4457,71.2516 85.7497,70.7586 79.3247,63.9136" id="Stroke-16" stroke-width="2.255" stroke-linecap="round"></path>
            <path d="M81.4189,44.8037 C81.4189,44.8037 78.1279,48.4317 79.8049,49.4737 C79.8049,49.4737 89.5679,49.1487 88.6909,56.8957 C87.8139,64.6427 84.6719,62.5607 84.6719,62.5607" id="Stroke-18" stroke-width="2.255" stroke-linecap="round"></path>
            <path d="M56.2383,52.9995 C56.2383,52.9995 58.4593,46.3775 62.9263,47.3995 C62.9263,47.3995 65.8453,38.3245 74.4923,40.5755" id="Stroke-20" stroke-width="2.255" stroke-linecap="round"></path>
            <path d="M89.8701,45.623 C89.8701,45.623 93.5891,49.159 91.1491,52.183" id="Stroke-22" stroke-width="2.255" stroke-linecap="round"></path>
            <path d="M71.5146,82.2339 C71.5146,82.2339 73.6206,77.5539 77.2826,78.8559" id="Stroke-24" stroke-width="2.255" stroke-linecap="round"></path>
            <path d="M60.4277,73.9839 C60.4277,73.9839 65.1057,67.7969 70.3047,68.1979" id="Stroke-26" stroke-width="2.255" stroke-linecap="round"></path>
            <path d="M81.1387,57.9854 C81.1387,57.9854 76.7027,55.1524 76.8577,52.7054 C76.8577,52.7054 78.3747,49.2274 73.0477,46.4364" id="Stroke-28" stroke-width="2.255" stroke-linecap="round"></path>
            <path d="M32.2109,53.2573 C31.5769,53.6473 37.6389,51.0293 40.4709,52.8053" id="Stroke-30" stroke-width="2.255" stroke-linecap="round"></path>
            <path d="M53.6318,37.0811 C53.6318,37.0811 46.7998,39.9571 48.2878,43.8031 C48.2878,43.8031 43.8618,47.5401 42.6288,47.1491" id="Stroke-32" stroke-width="2.255" stroke-linecap="round"></path>
            <path d="M33.917,85.0264 C33.917,85.0264 30.023,82.3284 33.342,76.6854 C36.661,71.0414 34.619,69.2004 34.619,69.2004" id="Stroke-34" stroke-width="2.255" stroke-linecap="round"></path>
            <path d="M31.1699,70.9414 C31.1699,70.9414 29.4569,58.7494 35.6159,57.0494 C42.2049,55.2294 47.4409,51.8584 48.1459,49.0024 C48.1459,49.0024 48.0269,45.5194 50.8569,44.5654" id="Stroke-36" stroke-width="2.255" stroke-linecap="round"></path>
            <path d="M25.3281,69.0425 C25.5821,69.2975 26.8181,73.6155 29.5191,73.6265" id="Stroke-38" stroke-width="2.255" stroke-linecap="round"></path>
        </g>
    </g>
</svg>