<?xml version="1.0" encoding="UTF-8" standalone="no"?>
<svg width="199px" height="30px" viewBox="0 0 199 30" version="1.1" xmlns="http://www.w3.org/2000/svg" xmlns:xlink="http://www.w3.org/1999/xlink">
    <g id="Page-1" stroke="none" stroke-width="1" fill="none" fill-rule="evenodd">
        <g id="Group" fill="#008390">
            <path d="M43.5942699,0.303107818 C42.8641068,1.58990755 42.4607142,2.77304216 43.5446909,4.20069125 C44.2376697,5.11564868 44.3402081,6.37653214 44.3109114,7.62727443 C44.2207678,11.4764057 44.2782344,15.3289173 44.2782344,18.9109982 C45.3531967,19.7763767 46.2602665,20.5042861 47.0681784,21.15332 C46.8090156,22.7004093 45.9289888,22.9685865 44.9858615,22.8953448 C43.8725882,21.7651696 42.8483317,20.7262647 41.5142066,19.3729841 L41.5142066,14.089443 L39.935567,14.089443 C39.4814686,14.5818523 39.0577938,15.0438382 38.3141092,15.8540037 C38.1879081,14.8883405 38.1326952,14.4669193 38.0853698,14.1074717 C38.529327,12.2843176 40.4550194,12.1907936 41.4781491,10.9592068 L41.4781491,6.36639098 C40.9834862,5.3083306 40.495584,4.26153818 40.1327561,3.48517651 C40.2386748,2.00794845 42.0054891,1.69357268 41.5412496,0.303107818 L43.5942699,0.303107818" id="Fill-118"></path>
            <path d="M20.3315899,12.8217988 C19.7039652,12.381222 19.2724027,12.0781141 18.9095748,11.8234585 C17.941658,12.4150258 18.117438,19.6513024 19.040283,21.8282701 C18.4318138,22.3601173 17.7692584,22.9415434 16.925289,23.6807209 C16.2638605,23.1173234 15.5258098,22.4896987 14.8925511,21.9488372 C15.9032861,18.0997059 15.7737047,14.4195939 15.046922,10.2391849 C15.5967979,9.56198122 16.0148388,8.38448058 14.6412759,7.06838418 C15.6914487,6.07905829 16.4159778,4.83056958 18.0802538,4.20069125 C18.5050554,6.57822842 18.1005361,8.82280378 18.4351942,11.7085254 C18.8137972,10.7901876 18.9591538,10.4375008 19.1473285,9.98002211 L21.3873967,9.98002211 C21.9417798,10.5051085 22.517572,11.0527308 23.0651943,11.5710565 C23.0651943,15.7210419 23.0651943,19.8180681 23.0640675,23.9150942 C21.720928,26.0222006 21.720928,26.0222006 19.1214122,27.0261748 C18.7022445,25.6255688 19.8932667,24.8965325 20.3315899,23.432826 L20.3315899,12.8217988" id="Fill-119"></path>
            <path d="M159.789356,12.6505259 C158.822566,13.4787202 158.436076,13.8415481 158.015781,14.1593043 C157.689011,14.4060723 157.319422,14.5965007 156.959974,14.8184793 C155.750923,13.59478 157.531259,13.0381434 157.298013,12.1389611 C158.09691,11.7952886 158.868765,11.4628842 159.781469,11.0696327 L159.781469,7.40078867 C159.109899,7.51121456 158.50819,7.61037251 157.574078,7.76361661 C158.242267,6.03624009 159.472727,5.36917753 160.453038,4.12632279 C161.425462,5.00071561 162.317884,5.80412034 163.253124,6.6469629 L163.253124,27.4284406 C162.259291,28.1439553 161.669977,29.5051235 159.957249,29.9355592 L159.957249,22.2125072 C158.224238,22.1325047 157.86141,23.6536778 156.668134,24.1990465 C155.960507,21.5240355 157.975217,20.526822 159.789356,19.3684769 L159.789356,12.6505259" id="Fill-120"></path>
            <path d="M131.857238,10.9220226 C131.760334,9.59465827 132.692193,9.09210776 134.258438,9.20478724 C135.215087,10.2267902 136.222442,11.3006257 137.330081,12.4837603 L137.330081,20.4749895 C135.983561,21.9353156 134.379005,22.9911224 132.508526,23.6818477 C131.436944,22.7984405 130.441984,21.9792606 129.204763,20.9606381 L129.204763,12.1964276 C129.505617,11.8955734 129.825627,11.5710565 130.147891,11.2487931 C130.718049,11.2499199 131.288207,11.2499199 131.857238,10.9220226 L131.857238,19.785391 C132.645995,20.3870995 133.077557,21.6006575 134.50746,21.4958656 L134.50746,12.7913753 C133.86406,12.2572745 133.122629,11.6431713 131.857238,10.9220226" id="Fill-121"></path>
            <path d="M176.329578,10.9220226 C176.234927,9.59916545 177.158899,9.09210776 178.731905,9.20591404 C179.681793,10.2234098 180.68464,11.2983721 181.79904,12.4939015 L181.79904,20.4873842 C180.373645,21.9623587 178.840077,23.3021178 176.798325,23.6919888 C175.681671,22.5764619 174.717135,21.6119255 173.672596,20.5673867 L173.672596,12.2076956 C173.981338,11.8933198 174.301347,11.5699297 174.614596,11.2499199 C175.193769,11.2499199 175.7628,11.2499199 176.329578,10.9220226 L176.329578,19.785391 C177.119461,20.3870995 177.549897,21.6006575 178.982053,21.4958656 L178.982053,12.7913753 C178.334146,12.2550209 177.593842,11.6420445 176.329578,10.9220226" id="Fill-122"></path>
            <path d="M71.9342875,20.6056977 C73.7157502,20.9426093 75.2910094,21.2400832 77.0026108,21.5634733 L77.0026108,16.8422028 C76.6183738,16.8005114 76.0932873,16.7441717 75.375519,16.6675496 C74.6881742,17.5250405 73.9557575,18.4377444 73.2075657,19.3718573 C73.1106613,18.8535317 72.9946015,18.2304141 72.8807952,17.6118037 C72.4762758,17.4664472 72.0830244,17.324471 71.6762515,17.1768609 L71.6762515,12.1220591 C72.9112187,11.194707 74.2892888,10.1614361 75.7575025,9.05717712 C76.4673832,9.34112942 77.1592353,9.61606737 77.7316471,9.84367993 C78.4426546,9.61381378 79.0792937,9.40873711 80.4190528,8.97492109 C79.204368,10.8521613 78.4032168,12.0893821 77.3575512,13.7052059 C77.2054339,12.6978513 77.1152903,12.0972697 77.0228931,11.4865468 C75.9242681,10.8803312 75.1219902,11.3130204 74.4673224,12.1896668 L74.4673224,15.1937019 C76.2183616,14.9615822 77.8972859,14.73735 79.7350883,14.4928355 L79.7350883,20.7318987 C78.7175926,21.4924852 77.4927666,22.4074427 76.2713209,23.3212733 C74.3940807,24.6610324 72.4143021,21.7200978 70.5066384,23.471137 C69.5826666,21.9139065 71.5342753,21.8936242 71.9342875,20.6056977" id="Fill-123"></path>
            <path d="M168.684275,8.41152366 C168.216655,8.01714546 167.44142,7.36585803 166.707877,6.75062803 C166.959152,5.41537612 167.717485,4.96465817 168.811603,5.08860561 C169.595852,5.95736445 170.345171,6.78781226 171.5407,8.11404982 L171.5407,14.1040913 L171.5407,20.532456 C168.758643,21.762916 168.758643,21.762916 167.532691,23.7302998 C166.435192,22.861541 165.345582,22.0006697 164.075684,20.9966955 L164.075684,19.4034076 C164.782184,19.521721 165.538264,19.4327042 165.956305,19.7662355 C166.754075,20.4028746 167.390714,21.2074061 168.684275,20.6778125 L168.684275,8.41152366" id="Fill-124"></path>
            <path d="M52.6739829,23.6728333 C51.1663314,22.3218063 49.8468546,21.1431788 48.4586433,19.8991973 L48.4586433,8.97942827 C47.7003104,8.37771981 46.911554,7.75347546 46.0754722,7.09204687 C46.6106997,5.96975919 46.9983172,5.1562133 47.4862193,4.13646395 C49.091902,5.26663919 50.3325032,6.43512547 51.0863289,8.61998071 L51.0863289,18.478309 C52.1477697,19.4180559 53.2756914,20.4163961 54.634606,21.6175595 C54.0531798,22.2282823 53.3342847,22.9798545 52.6739829,23.6728333" id="Fill-125"></path>
            <path d="M196.747101,5.03339266 L196.747101,9.57888314 C197.374726,9.80987609 197.767977,9.95410583 198.460956,10.2087615 C197.99559,10.705678 197.645157,11.0786471 196.999503,11.7682456 L196.999503,20.6473891 C197.420924,20.7949992 197.816429,20.933595 198.38208,21.1319109 C197.950518,22.0232056 197.558393,22.8356247 197.036687,23.9139674 C195.959471,22.9268951 195.071557,22.1122224 194.102513,21.2243081 L194.102513,12.4544636 C193.234881,11.8009226 192.580214,11.3073865 191.691172,10.6369435 C192.615144,10.0149528 193.279953,9.56761519 194.014623,9.07520583 L194.014623,6.92753482 C194.813521,6.31455842 195.181983,5.1336774 196.747101,5.03339266" id="Fill-126"></path>
            <path d="M31.5634811,22.3071579 C30.2417507,22.7590027 29.5837025,22.9843616 28.658604,23.3021178 C28.3318335,22.9866152 27.5396967,22.2282823 26.7475599,21.4722029 L24.736231,21.4722029 C24.6145372,21.3493823 24.4488983,21.2231813 24.4658003,21.1950114 C25.9080977,18.5414095 24.6517214,15.6680826 25.2737122,12.7339088 C26.6450215,11.6578197 28.1988717,10.4386276 29.9318822,9.07971301 C31.6423568,10.3203142 32.206881,12.2200903 32.8040823,14.3283235 C31.8958856,14.9041157 31.0361411,15.4472308 29.9792075,16.1176737 C29.9127266,14.3948044 29.9544181,12.7541911 27.9622447,11.5473938 C27.9205533,13.1091314 27.8766083,14.3046608 27.8608332,15.5013169 C27.8450581,16.6405066 27.8574528,17.7796962 27.8574528,19.0924122 C28.7814246,19.8935633 29.8000472,20.7780973 31.5634811,22.3071579" id="Fill-127"></path>
            <path d="M95.5935993,20.6372479 C96.2133364,20.8524658 96.6032075,20.9876811 97.3705548,21.2536047 C96.5051763,22.1989856 95.8020563,22.9674597 94.8656898,23.9894627 C94.0803138,22.8829501 93.4797321,22.0389807 92.8678825,21.1769827 L92.8678825,13.0280022 C92.1467338,12.5682699 91.436853,12.1152984 90.6706325,11.6262694 C91.1123361,10.0915748 92.2109611,9.44704814 93.4515622,8.94675122 C91.4447406,6.47681688 91.667846,5.62157958 94.5715963,5.07057689 C94.8859721,5.43678522 95.2713359,5.82778304 95.5766973,6.27061342 C95.6826161,6.42611111 95.5935993,6.71457059 95.5935993,7.29148956 C95.3547188,7.57431508 94.8634362,8.01601866 94.5580748,8.56251417 C94.3045459,9.01323212 94.2707421,9.5867707 94.111864,10.2143954 C94.6538523,10.6470847 95.1823191,11.0673792 95.5935993,11.3952765 L95.5935993,20.6372479" id="Fill-128"></path>
            <path d="M182.487512,22.6812538 L182.487512,21.8237629 C183.475711,21.4947388 184.465037,20.9414825 185.476899,20.895284 C186.378335,20.8558461 187.305687,21.378679 188.484314,21.7313657 C188.744604,19.6929938 188.702912,17.8664594 188.491075,15.4968098 C187.266249,16.7250162 186.409885,17.5825071 185.547887,18.4467587 C185.225624,18.126749 184.72758,17.632086 183.969247,16.8771335 L183.969247,12.1040304 C184.34109,11.8347265 184.857162,11.4606306 185.72592,10.831879 C185.831839,12.5141838 185.911842,13.8066175 186.012126,15.4055394 C186.83356,15.1452498 187.569357,14.8027041 188.337831,14.7001658 C189.230252,14.5795987 190.149717,14.6708691 191.220172,14.6708691 L191.220172,20.5121737 C190.32099,21.3696646 189.258422,22.3815264 188.088809,23.4959265 C186.400871,23.2502852 184.458276,22.9674597 182.487512,22.6812538" id="Fill-129"></path>
            <path d="M4.01560029,9.88199096 C3.42177939,11.9643079 1.83863261,13.8066175 2.77612594,16.5379682 C3.09388209,17.1678465 3.6178417,18.2022442 4.03813618,19.0349456 C4.868584,19.6321469 5.56494322,20.1324438 6.45961835,20.7758437 L9.48168217,20.7758437 C10.262551,20.3206186 11.0884916,19.9904677 11.712736,19.4327042 C12.3290928,18.8828283 12.7414997,18.1042131 13.2846148,17.3706696 C13.5381437,17.4439113 13.8423783,17.5329281 14.2547852,17.6534951 C13.3995479,21.3009301 10.306496,22.246311 7.48725526,23.5455055 C4.71646669,22.603505 2.15976914,21.7922127 1.01494556,18.2213997 C-0.105088532,14.7260821 1.46002953,12.4679852 2.88542504,9.88199096 L4.01560029,9.88199096" id="Fill-130"></path>
            <path d="M127.409779,10.612154 C126.455384,11.2014677 125.8379,11.5834512 125.1314,12.0206476 L125.1314,20.0761041 C125.43,20.3149846 125.956214,20.7364059 126.355099,21.0552888 L126.355099,22.7398471 L124.511663,22.7398471 C124.175878,22.3330742 123.6722,21.7234782 122.998377,20.9121859 L122.998377,12.4206598 C122.26258,11.716413 120.781972,11.7569776 120.926201,10.0701657 C121.494106,9.97889532 122.110463,9.87973737 122.845133,9.76029711 L122.845133,6.91739367 C123.522337,6.24469714 124.085734,5.68468009 124.869983,4.90606484 C124.943225,6.28300816 125.005199,7.46726956 125.082948,8.93548327 C125.645218,9.34000263 126.383269,9.8729766 127.409779,10.612154" id="Fill-131"></path>
            <path d="M97.4111194,11.4178124 C98.2855122,10.5389124 98.9615891,9.86058185 99.5418885,9.27690212 C100.368956,10.178338 101.192643,11.0752667 102.014076,11.9710686 C102.154926,11.8381068 102.294648,11.705145 102.435498,11.5710565 C102.435498,13.2691363 102.379158,14.9705966 102.4524,16.665296 C102.521134,18.2867538 101.974639,20.0096232 103.078898,21.4327651 C102.338593,22.0513755 101.600543,22.6677323 100.678824,23.4395868 C100.336279,23.0192923 99.7278096,22.2722273 99.0866633,21.4834709 C100.401633,18.8636728 99.3334314,15.9058363 99.8010513,12.9243371 C99.0742686,12.4657316 98.3565003,12.0138868 97.4111194,11.4178124" id="Fill-132"></path>
            <path d="M55.2261733,8.5782893 C54.6109433,8.06897802 53.8357084,7.42670495 53.0830094,6.8013338 C53.4323158,5.57650778 54.0340243,4.93198112 54.8723597,5.04353381 C55.9394344,6.10159419 56.7991789,6.95795829 57.963158,8.11179623 L57.963158,18.4974645 C57.2949686,19.0687495 56.562552,19.6929938 55.4346303,20.658657 C55.0774363,18.3476008 55.2678647,16.4827553 55.2340608,14.6393189 C55.1980034,12.7181336 55.2261733,10.7958216 55.2261733,8.5782893" id="Fill-133"></path>
            <path d="M105.172482,12.7778538 C104.352176,12.2662889 103.733565,11.8797983 102.847905,11.326542 C103.623139,10.524264 104.347669,9.77719903 105.013604,9.08760058 C105.942083,10.0724193 106.70605,10.8848384 107.892565,12.1423415 C108.338776,15.0382043 107.135359,18.7915579 108.765831,22.3826532 C108.241872,22.8795697 107.784393,23.3133857 107.252546,23.8181898 C106.491959,22.7894261 105.867715,21.9465836 105.172482,21.0068366 L105.172482,12.7778538" id="Fill-134"></path>
            <path d="M81.3982376,6.62893418 C81.8568431,6.21314688 82.5678506,5.56298624 83.6191502,4.60521061 C83.7881695,5.51453406 83.9481743,5.9889147 83.9504279,6.46104175 C83.971837,10.5422927 83.9312724,14.6246705 83.9853586,18.7047947 C83.9977533,19.6411613 84.2974808,20.5741474 84.5228397,21.8384113 C84.3188899,22.2237751 83.9402868,22.9370363 83.4264683,23.9083334 C82.5453147,23.0902804 81.8421947,22.4367393 81.4151395,22.0401075 C82.1610777,16.7757219 82.1836136,11.8628963 81.3982376,6.62893418" id="Fill-135"></path>
            <path d="M116.468601,11.9350112 C116.234228,11.9350112 115.933373,12.0285352 115.793651,11.9169825 C115.369976,11.5800708 115.008275,11.1654103 114.466286,10.6245488 C115.003768,10.0352351 115.426316,9.57324916 115.955909,8.99069622 C117.135663,9.91241442 118.230908,10.7676517 119.464748,11.7299345 C119.954904,15.9159775 118.817968,20.4434392 120.308718,25.0768197 C119.776871,25.6503583 119.153753,26.3196744 118.393167,27.1399811 C118.063016,24.9258292 117.66413,23.0068975 117.519901,21.0676836 C117.375671,19.1442447 117.395953,17.1948896 117.521027,15.2680704 C117.605537,13.963242 116.964391,12.996452 116.468601,11.9350112" id="Fill-136"></path>
            <path d="M140.859203,12.1693845 C140.142561,11.930504 139.748183,11.798669 139.19718,11.6150015 C139.652405,10.7068048 140.056925,9.90001967 140.490741,9.03576801 C141.403444,10.1332662 142.179806,11.0651256 142.956168,11.9981117 C143.832814,14.924398 142.849122,18.4208424 144.134795,21.7809447 C142.622637,23.0981679 142.622637,23.0981679 140.859203,22.0040501 L140.859203,12.1693845" id="Fill-137"></path>
            <path d="M85.691326,26.2678419 C86.2028909,25.4295065 86.6434677,24.7094846 87.3015159,23.6311419 L87.3015159,12.8792653 C86.9251664,12.5029158 86.5229006,12.10065 86.0823238,11.6600733 L86.0823238,10.1253786 C87.8739277,9.22394276 88.4756361,10.8059627 89.4356653,11.6026067 L89.4356653,23.9883359 C88.2378824,24.6103266 87.8750544,26.5168635 85.691326,26.2678419" id="Fill-138"></path>
            <path d="M70.5235403,22.1054616 C69.5995685,22.4750504 68.9189845,22.7477347 67.9262782,23.1454933 C67.4845746,22.3432154 67.0439978,21.5443178 66.6045478,20.7454202 C66.4614449,20.8873964 66.3172151,21.0282458 66.1729854,21.1702219 L66.1729854,12.8815189 C65.2749299,12.1333271 64.3115203,11.3321759 63.3278283,10.5129961 C65.548741,9.56423481 65.548741,9.56423481 68.1899482,11.5473938 L68.1899482,19.7639819 C68.9189845,20.4963986 69.6919657,21.2716334 70.5235403,22.1054616" id="Fill-139"></path>
            <path d="M146.908964,12.6313704 C146.317397,12.1333271 145.544416,11.4797861 144.600161,10.6842689 C145.160179,10.0679121 145.634559,9.54620609 146.088658,9.04590917 C146.999108,10.0634049 147.741666,10.8949795 148.905645,12.194174 L148.905645,20.494145 C149.466789,20.7724633 149.91976,20.9955687 150.595837,21.3302268 C150.107935,21.938696 149.711303,22.4322322 149.151286,23.1297182 C148.350135,22.4615288 147.605323,21.8395381 146.908964,21.2569851 L146.908964,12.6313704" id="Fill-140"></path>
            <path d="M13.9899884,5.93708214 C11.6518891,8.7315334 11.3532884,8.75632289 8.17910731,7.86164777 C6.42130732,7.36473123 4.62294272,6.68189354 2.62738901,7.33205418 C2.0808935,8.14785366 1.4893262,9.03013404 0.66676595,10.2560869 C0.112382877,7.21148713 2.16202273,5.97426637 3.49952824,4.45083971 C5.01619412,4.27167933 6.38299629,4.48915074 7.71824821,5.12015586 C10.9386279,6.64020213 10.9510227,6.61428585 13.9899884,5.93708214" id="Fill-141"></path>
            <path d="M60.7102839,21.1826166 L60.7102839,12.2257243 C61.1452267,11.8730375 61.6365092,11.4752789 62.0951148,11.1056902 C62.4297728,11.3828817 62.7306271,11.5158435 62.7317539,11.6510589 C62.7587969,14.3767757 62.7520362,17.1036192 62.7520362,19.8034197 C63.1802182,20.2316018 63.582484,20.6338675 64.0523574,21.103741 L64.0523574,22.8829501 C63.483326,22.8829501 62.8275314,23.0778856 62.4365336,22.8390051 C61.7762318,22.4344857 61.2838225,21.757282 60.7102839,21.1826166" id="Fill-142"></path>
            <path d="M113.263996,19.5960895 C114.14853,20.5741474 114.882074,21.3854397 115.799285,22.3995551 C113.819506,23.4452207 112.774967,22.1448995 111.461125,21.4722029 L111.461125,12.0026189 L113.263996,12.0026189 L113.263996,19.5960895" id="Fill-143"></path>
            <path d="M8.58362666,17.9216723 C8.21065756,18.2247801 7.91093013,18.6090172 7.5221859,18.7464862 C7.13231488,18.8850819 6.65568065,18.7769096 6.09002963,18.7769096 L6.09002963,10.6482115 C6.86188411,10.2042543 7.65740129,9.74339519 8.58362666,9.20929442 L8.58362666,17.9216723" id="Fill-144"></path>
            <path d="M110.188973,27.7800006 C110.965335,27.0126533 111.285345,26.6937703 111.695498,26.2881242 C113.616683,26.4368611 115.756467,25.8047292 117.738499,27.6684479 C116.848331,28.2070558 116.028024,28.7028456 115.08715,29.2707502 C114.887708,28.6735489 114.757,28.2814243 114.590234,27.7800006 L110.188973,27.7800006" id="Fill-145"></path>
            <path d="M191.442151,10.1648165 C191.066928,10.5400392 190.751426,10.8555417 190.413387,11.1935802 L187.391323,11.1935802 L187.391323,9.25323942 C188.809958,9.57212237 190.105772,9.86508903 191.442151,10.1648165" id="Fill-146"></path>
            <path d="M3.83869349,9.82114403 C3.99757157,9.63409609 4.15644964,9.44817493 4.31532772,9.26112699 C4.38744259,9.33324186 4.45955746,9.40535673 4.53167233,9.4774716 C4.34575118,9.63634968 4.15983003,9.79522775 3.97165529,9.95410583 C3.92771029,9.90903403 3.88263849,9.86508903 3.83869349,9.82114403" id="Fill-147"></path>
            <path d="M182.559627,22.943797 C182.400749,23.1297182 182.240744,23.3167661 182.082993,23.5026873 C182.010878,23.4316992 181.938763,23.3595843 181.866648,23.2874695 C182.052569,23.1285914 182.239617,22.9697133 182.425538,22.8108352 C182.47061,22.8547802 182.515682,22.899852 182.559627,22.943797" id="Fill-148"></path>
            <path d="M86.086831,26.3647462 C85.9279529,26.5506674 85.7679481,26.7377153 85.6101968,26.9236365 C85.5369551,26.8526484 85.465967,26.7805335 85.3938522,26.7084187 C85.5797733,26.5495406 85.7668213,26.3906625 85.9527424,26.2317844 C85.9966874,26.2757294 86.0417592,26.3208012 86.086831,26.3647462" id="Fill-149"></path>
            <path d="M110.718567,27.733802 C110.558562,27.9197231 110.400811,28.1056443 110.240806,28.2926922 C110.169818,28.2205774 110.097703,28.1484625 110.025588,28.0774744 C110.212636,27.9174695 110.398557,27.7597183 110.584478,27.5997134 C110.62955,27.6447852 110.673495,27.6887302 110.718567,27.733802" id="Fill-150"></path>
        </g>
    </g>
</svg>