<?xml version="1.0" encoding="UTF-8" standalone="no"?>
<svg width="161px" height="25px" viewBox="0 0 161 25" version="1.1" xmlns="http://www.w3.org/2000/svg" xmlns:xlink="http://www.w3.org/1999/xlink">
    <g id="Page-1" stroke="none" stroke-width="1" fill="none" fill-rule="evenodd">
        <g id="fastco" fill="#000000">
            <g id="Page-1">
                <g id="lantern_home_desktop">
                    <g id="fastco">
                        <path d="M113.817846,23.3139637 L113.817846,24.0238444 L107.911188,24.0238444 C107.898793,23.8097534 107.885271,23.5911552 107.869496,23.3432603 C108.004712,23.3139637 108.101616,23.2779062 108.200774,23.2722723 C109.212636,23.2204397 109.863923,22.6592959 110.200835,21.7567332 C110.614369,20.647967 110.973816,19.5189186 111.328757,18.3898701 C112.84993,13.5716953 114.359835,8.74901327 115.87312,3.92858484 C116.087211,3.24574715 115.802132,2.70150523 115.11028,2.46938549 C114.543502,2.28121075 114.543502,2.28121075 114.661816,1.56118883 L115.450572,1.56118883 C116.551451,1.56118883 117.654583,1.55668165 118.755462,1.56231563 C119.458582,1.56569601 119.365058,1.47667922 119.580275,2.15839011 C120.783692,5.9996338 121.981475,9.84313108 123.186019,13.6821212 C123.939845,16.0855746 124.697051,18.4879013 125.468905,20.884594 C125.697645,21.5922211 126.009767,22.268298 126.528093,22.8204275 C126.952894,23.2745259 127.214311,23.3026957 127.742777,22.9725448 C128.163072,22.7100016 128.424488,22.3268914 128.498857,21.8468768 C128.575479,21.3465798 128.636326,20.8372686 128.636326,20.3324645 C128.646467,15.248366 128.643086,10.1631408 128.643086,5.0779156 C128.64196,3.85421638 127.512911,2.58206498 126.284705,2.41529934 C126.139348,2.39501703 125.995119,2.37022754 125.812578,2.33980408 L125.812578,1.60626063 C126.000753,1.5904855 126.182166,1.56344242 126.36358,1.56344242 C127.804751,1.55893524 129.245922,1.58147114 130.684839,1.54879409 C131.135557,1.53977973 131.356408,1.71217934 131.572753,2.07951447 C134.367204,6.82444764 137.177431,11.5603665 139.98315,16.2974121 C140.045124,16.4010772 140.118365,16.4968548 140.265975,16.7120726 C140.294145,16.4360078 140.323442,16.2838905 140.323442,16.1317732 C140.325696,12.4020822 140.330203,8.67351801 140.317808,4.94495381 C140.315554,4.50437702 140.247947,4.05703945 140.149916,3.62660382 C139.989911,2.93362498 139.514403,2.54938793 138.81579,2.4457228 C138.54874,2.40515818 138.278309,2.38262229 137.988723,2.35107203 L137.988723,1.59724627 L149.91472,1.59724627 C149.929368,1.73020806 149.951904,1.85077511 149.955285,1.97021537 C149.959792,2.07500729 149.94289,2.17979921 149.931622,2.33191652 C149.725418,2.37022754 149.520342,2.39952421 149.319772,2.44910318 C148.774404,2.58431857 148.509607,2.88629959 148.550171,3.44744343 C148.578341,3.83956805 148.658344,4.25197497 148.818349,4.60916894 C149.951904,7.1399502 151.111376,9.65833672 152.265214,12.1801036 C152.288877,12.2341898 152.338456,12.277008 152.417331,12.3784195 C152.510855,12.2172879 152.600999,12.0888332 152.666353,11.9491107 C153.713145,9.70228172 154.763318,7.45657956 155.795462,5.20298983 C156.014061,4.7263556 156.202235,4.2226783 156.320549,3.71111343 C156.501963,2.93024459 156.221391,2.56741664 155.425874,2.42206011 C155.301926,2.39952421 155.179106,2.37248113 155.055158,2.34431126 C155.036003,2.33980408 155.017974,2.32515575 154.962761,2.2924787 L154.962761,1.60288024 L160.632793,1.60288024 L160.632793,2.34431126 C159.210778,2.49192139 158.515545,3.52857266 157.953274,4.67452304 C156.462525,7.71686917 154.994311,10.7704833 153.531731,13.8263509 C153.416798,14.0641046 153.355951,14.3514373 153.353698,14.6162341 C153.340176,16.5013619 153.339049,18.3876165 153.352571,20.2716175 C153.355951,20.7144479 153.401023,21.1640391 153.485533,21.5967283 C153.684976,22.63676 154.126679,23.0469133 155.157696,23.2249469 C155.321082,23.2531168 155.485594,23.2779062 155.678276,23.3105833 L155.678276,24.0339856 L147.635214,24.0339856 L147.635214,23.3195977 C147.870714,23.2745259 148.093819,23.2238201 148.321432,23.191143 C149.050468,23.0863511 149.53499,22.6649298 149.717531,21.9753314 C149.862887,21.4299627 149.953031,20.8530437 149.964299,20.2873927 C149.995849,18.6569205 149.982328,17.0264483 149.967679,15.3937226 C149.965426,15.1300526 149.902325,14.8449735 149.790772,14.6049662 C148.225654,11.2741606 146.653776,7.94560853 145.063868,4.62607086 C144.772028,4.01760163 144.430609,3.42490754 144.044119,2.87503164 C143.644106,2.30712703 143.365788,2.31276101 142.850843,2.76911293 C142.50379,3.07898151 142.311108,3.4767401 142.245754,3.92858484 C142.189414,4.32521663 142.145469,4.7274824 142.144343,5.12749458 C142.136455,8.66675724 142.12406,12.2037663 142.145469,15.743029 C142.164625,18.6411454 142.002366,21.5448957 142.360687,24.4892107 C141.94828,24.5455505 141.559536,24.6007634 141.169665,24.6559764 C140.857543,24.7010482 140.785428,24.438505 140.672748,24.2492034 C139.764552,22.7438055 138.863116,21.2339004 137.960553,19.7239952 C135.581889,15.743029 133.204352,11.7609359 130.823435,7.77884289 C130.731037,7.62672558 130.620611,7.48587623 130.413281,7.37319674 L130.413281,7.91969225 C130.413281,12.051649 130.407647,16.182479 130.421169,20.3144358 C130.423422,20.8181131 130.49441,21.3285511 130.595822,21.8220873 C130.764841,22.6333796 131.264011,23.1224086 132.113615,23.2136789 C132.320945,23.2362148 132.527148,23.2767794 132.766029,23.3150905 L132.766029,24.0328588 L120.115503,24.0328588 C120.104235,23.8165142 120.090713,23.5967892 120.074938,23.3297388 C120.322833,23.2779062 120.543685,23.2305809 120.765664,23.1877627 C121.797808,22.98832 122.067112,22.6469011 121.88119,21.6034891 C121.753863,20.8969887 121.538645,20.2062634 121.340329,19.5155382 C121.165676,18.9048154 120.948204,18.3053605 120.771298,17.6957645 C120.689042,17.4140658 120.563967,17.2687092 120.246211,17.269836 C118.148119,17.2799772 116.050027,17.2777236 113.953062,17.2720896 C113.689392,17.2709628 113.522626,17.3385705 113.443751,17.6225228 C113.077542,18.9239709 112.658375,20.2130242 112.330477,21.5246134 C112.039764,22.6863389 112.291039,23.015363 113.451638,23.240722 C113.555303,23.2610043 113.657842,23.2812866 113.817846,23.3139637 L113.817846,23.3139637 L113.817846,23.3139637 Z M120.150434,15.6652801 C119.107022,12.4572952 118.081638,9.30564993 117.056255,6.15513149 C117.013437,6.1540047 116.972872,6.1528779 116.931181,6.15175111 C115.963264,9.30903032 114.996474,12.4663095 114.015036,15.6652801 L120.150434,15.6652801 L120.150434,15.6652801 L120.150434,15.6652801 Z" id="Fill-6"></path>
                        <path d="M87.3347868,24.0384928 L87.3347868,23.3128369 C87.5781744,23.2722723 87.8035334,23.2283273 88.0288924,23.1979038 C88.8210292,23.0897315 89.3213261,22.6221116 89.4441467,21.8626519 C89.5556994,21.1572783 89.5872497,20.428242 89.5658406,19.7127273 C89.4587951,16.1374072 89.3224529,12.5632139 89.2018858,8.98789378 C89.1872375,8.53266865 89.200759,8.07631673 89.200759,7.62109161 C89.1511801,7.61433084 89.1027279,7.60757007 89.0531489,7.6008093 C88.997936,7.72250315 88.9359623,7.83968981 88.8897637,7.96589084 C87.5229615,11.7034694 86.1426378,15.4365408 84.8017519,19.1842605 C84.4242756,20.2366869 84.1504645,21.3285511 83.8428495,22.4068938 C83.6738302,23.0007147 83.6850982,23.0052219 83.0890237,23.0221238 C82.9616959,23.026631 82.8332413,23.0142362 82.708167,23.032265 C82.3915377,23.0773368 82.2912529,22.9207123 82.1887146,22.6333796 C80.4365486,17.71492 78.6674807,12.8020944 76.9006663,7.88926879 C76.8668625,7.79461802 76.8116495,7.70785481 76.6764341,7.61433084 C76.6651662,7.74165866 76.6482643,7.87011327 76.6448839,7.99856789 C76.5648814,11.4465602 76.484879,14.896806 76.4071302,18.3459251 C76.3891014,19.1718658 76.3721995,19.9966796 76.3767067,20.823747 C76.3778335,21.1155869 76.4206517,21.4141875 76.4860058,21.7003934 C76.6708002,22.5274609 77.1868722,23.0311382 78.0218272,23.1956502 C78.2494398,23.240722 78.4793059,23.2767794 78.7508635,23.3263584 L78.7508635,24.026098 L71.6745917,24.026098 C71.662197,23.8153874 71.6498022,23.5956624 71.6329003,23.3319924 C71.8853024,23.2824134 72.1050274,23.235088 72.327006,23.1956502 C73.502253,22.9871932 74.1648084,22.3325254 74.3631243,21.1595319 C74.419464,20.8271274 74.4543947,20.4868354 74.4667894,20.1487969 C74.5727081,17.2089891 74.6673589,14.2680545 74.771024,11.3282467 C74.8487729,9.10620724 74.94117,6.88642136 75.0166653,4.66550868 C75.0549763,3.54096741 74.2853754,2.62713677 73.1687217,2.44346921 C72.5118003,2.3352969 72.5118003,2.3352969 72.6098315,1.59499268 C72.7833579,1.58372473 72.969279,1.56231563 73.1529466,1.56231563 C74.5929904,1.56006204 76.0330343,1.56006204 77.4742049,1.56118883 C78.0736598,1.56231563 78.0759134,1.56344242 78.2832436,2.1166987 C80.0230149,6.74782559 81.7605326,11.3800793 83.5014306,16.0112062 C83.5814331,16.2275508 83.674957,16.4382614 83.8158064,16.7853142 C83.9532754,16.4540365 84.0501797,16.2365651 84.1358161,16.0145866 C85.92742,11.3958544 87.7190238,6.77824905 89.508374,2.15726331 C89.7652833,1.49470793 89.6920416,1.56344242 90.3591042,1.56118883 C91.7754853,1.55893524 93.1918665,1.56118883 94.6589534,1.56118883 L94.6589534,2.35557921 C94.42458,2.38600267 94.1947139,2.40628498 93.9671013,2.4457228 C93.2087684,2.57868459 92.7400217,2.99785228 92.6183279,3.762946 C92.540579,4.25986253 92.5541006,4.77480778 92.5698757,5.28073868 C92.6442442,7.43742405 92.7321341,9.59523621 92.8166438,11.7519216 C92.9338304,14.776239 93.0487635,17.7994296 93.1794717,20.823747 C93.1963736,21.2215056 93.2763761,21.6226446 93.3766608,22.0091352 C93.551314,22.6919729 94.002032,23.0931119 94.7119127,23.1877627 C94.9598076,23.2226933 95.2065757,23.2700187 95.4691189,23.3139637 L95.4691189,24.0384928 L87.3347868,24.0384928" id="Fill-7"></path>
                        <path d="M102.095799,15.6889428 C102.069883,15.8647228 102.040587,15.9661344 102.040587,16.0664191 C102.038333,17.6123817 102.030445,19.1583442 102.047347,20.70318 C102.051854,21.0806563 102.118335,21.4626397 102.203972,21.8322284 C102.385386,22.6176045 102.889063,23.0717028 103.693595,23.1832555 C103.965152,23.2226933 104.23671,23.2655115 104.539818,23.3105833 C104.555593,23.4536862 104.577002,23.5956624 104.586016,23.7376385 C104.602918,23.9810262 104.478971,24.0824378 104.242344,24.0734234 C104.115016,24.0689162 103.987688,24.0734234 103.861487,24.0734234 C101.595503,24.0745502 99.3295181,24.0745502 97.0635336,24.0745502 L96.3446385,24.0745502 L96.3446385,23.3162173 C96.6083085,23.2688919 96.8550766,23.2215665 97.1018446,23.1810019 C97.8286273,23.0626884 98.29174,22.6277456 98.4697736,21.9370204 C98.5835799,21.4908096 98.6399196,21.0186825 98.6410464,20.5578234 C98.6523144,15.3069594 98.6511876,10.0560953 98.6433,4.80523124 C98.6421732,4.42775496 98.6061158,4.04126433 98.5193526,3.675056 C98.3323046,2.87165126 97.9266585,2.532486 97.1198734,2.43332806 C96.8708517,2.40403139 96.6195764,2.38149549 96.3390045,2.35219883 L96.3390045,1.59724627 C96.5429544,1.58372473 96.7277487,1.56231563 96.9136699,1.56231563 C99.1154271,1.56456922 101.317184,1.53977973 103.518941,1.58259793 C105.151667,1.61414819 106.766364,1.82823921 108.297678,2.45135677 C110.606481,3.3899769 111.82342,5.11509983 111.993566,7.59630212 C112.098357,9.12648955 111.913563,10.6003372 111.146216,11.9536179 C110.151256,13.7125446 108.581631,14.7255332 106.687489,15.2900575 C105.624921,15.6066868 104.534184,15.7250003 103.425417,15.6911964 C102.987094,15.6776749 102.548771,15.6889428 102.095799,15.6889428 L102.095799,15.6889428 L102.095799,15.6889428 Z M102.063122,3.15673036 L102.063122,3.92971164 L102.063122,8.62731942 C102.063122,10.2769471 102.060869,11.9277016 102.064249,13.5784561 C102.066503,14.1339659 102.07439,14.1531214 102.633281,14.1418535 C103.246257,14.1294587 103.863741,14.1215712 104.467703,14.0370616 C106.112823,13.8083222 107.399623,13.0375945 107.977669,11.4059956 C108.639097,9.53776967 108.654872,7.63010597 108.071193,5.7359638 C107.775972,4.77706137 107.121305,4.09985766 106.197333,3.69984548 C104.901519,3.13870164 103.538097,3.11165856 102.063122,3.15673036 L102.063122,3.15673036 L102.063122,3.15673036 Z" id="Fill-8"></path>
                        <path d="M71.1754216,1.29413845 C71.0109096,2.92010344 70.8486511,4.53705407 70.6875194,6.14160995 C70.0565143,6.1968229 70.0339784,6.20245688 69.9145382,5.72807624 C69.4176216,3.75618523 68.0823697,2.81418472 66.0270959,2.55727549 C63.7464631,2.2699428 61.6427371,2.68573011 59.770004,4.05478587 C58.2093931,5.19622906 57.1704882,6.72641649 56.6284999,8.56309212 C55.6966406,11.711357 55.7901645,14.8562414 57.0082298,17.9076019 C58.7885657,22.3753436 63.1391206,23.60355 66.4372492,22.9240927 C67.8615179,22.6288724 68.9973271,21.8468768 69.9066506,20.7279695 C70.1331364,20.4485243 70.3348326,20.1487969 70.5320217,19.8479427 C70.9027373,19.2834185 70.8971033,19.2811649 71.6306467,19.6113158 C71.0864048,21.1291084 70.5387825,22.6547887 69.9810191,24.2097656 C69.6722773,24.1928637 69.3804374,24.1421579 69.0942315,24.1669474 C68.0440587,24.2604714 66.9950127,24.3956867 65.9437131,24.4847035 C62.2478259,24.8013329 58.8122284,24.169201 55.9107316,21.6654628 C54.804219,20.708814 53.9625033,19.5425813 53.3878379,18.2016954 C52.1945621,15.4252728 51.9353993,12.5305368 52.6689428,9.6188989 C53.7686945,5.25256881 56.6679377,2.59333293 60.9734209,1.49020075 C63.801676,0.764544862 66.6411991,0.881731528 69.4097341,1.86316985 C69.8119998,2.00514601 69.9990478,1.8744378 70.1996173,1.59499268 C70.4193423,1.28850447 70.6616031,1.02821486 71.1754216,1.29413845" id="Fill-9"></path>
                        <path d="M21.517572,23.4435451 C21.0567129,23.7139759 20.9654425,24.6424548 20.0966836,24.0621555 C20.2769708,22.4508388 20.4617652,20.8023379 20.6454327,19.1628514 C21.4116532,19.1403155 21.4116532,19.1403155 21.5784189,19.7611795 C22.0989981,21.6958863 23.6122836,22.9635305 25.7103756,23.1505784 C26.378565,23.2102986 27.0794314,23.235088 27.7273384,23.0964923 C29.4941528,22.719016 30.8125028,21.1246013 31.0018043,19.3206027 C31.1719503,17.7059056 30.7246128,16.3267087 29.4310523,15.3182273 C28.2636928,14.4066503 27.0501347,13.5559202 25.8377035,12.7063168 C24.8652795,12.0223523 23.8984895,11.3406415 23.1221278,10.425684 C21.9130769,8.99916173 21.4330623,7.34390007 21.7282826,5.51511201 C22.0742086,3.36406061 23.4736878,2.08852883 25.4760023,1.45639691 C27.5335297,0.807363067 29.5685213,1.00905935 31.5539338,1.81359088 C32.0046518,1.66936114 32.0824006,0.794968324 32.8486211,1.17807858 C32.6965038,2.67220857 32.5466401,4.16183138 32.3967764,5.64131303 C31.734221,5.76188008 31.7049243,5.74385137 31.6271755,5.1883415 C31.4051969,3.59054638 30.4868591,2.68122293 28.8620209,2.56290947 C28.2174942,2.51558408 27.5380369,2.53699318 26.9137926,2.69023728 C24.9937341,3.16236433 24.0573676,5.12411419 24.8990833,6.92247879 C25.1616265,7.48136905 25.5717799,8.00758225 26.021371,8.4357643 C26.5994168,8.98564019 27.2856349,9.42509019 27.9279079,9.90623159 C29.3341479,10.958658 30.800108,11.9389695 32.1387403,13.0702716 C34.6650144,15.2032942 34.8689643,18.2354992 33.870624,20.6288115 C32.9883437,22.7483127 31.2654743,23.9258133 29.0772387,24.3968135 C26.7199838,24.9038712 24.4078008,24.6672443 22.1823809,23.7072151 C21.9885722,23.6249591 21.7958903,23.5393227 21.6020816,23.4559398 C21.5829261,23.4480523 21.5603902,23.4503059 21.517572,23.4435451" id="Fill-10"></path>
                        <path d="M0.623414789,2.34543806 L0.623414789,1.56118883 L1.31188645,1.56118883 C4.97735014,1.56118883 8.64281384,1.56456922 12.3082775,1.55555486 C12.728572,1.55442806 13.1545005,1.51386345 13.569161,1.43836819 C13.783252,1.39893037 14.041288,1.29301165 14.1674891,1.1296264 C14.4187643,0.810743452 14.6914487,0.754403708 15.1421666,0.891872682 C14.9765278,2.48628741 14.8075085,4.09422369 14.6351089,5.7370906 L13.8914243,5.7370906 C13.8305774,5.42046124 13.7843788,5.10946586 13.7122639,4.80523124 C13.4891585,3.86773792 12.9235075,3.34152472 11.9736195,3.20067536 C11.6806528,3.15673036 11.3831789,3.13757485 11.0879587,3.13644805 C9.75270678,3.13081408 8.41745486,3.13306767 7.08332974,3.13306767 L6.47598731,3.13306767 C6.32274321,3.65026651 6.26753026,10.1090547 6.38809731,11.4138831 C6.41964757,11.4409262 6.45007103,11.4927588 6.48274808,11.4927588 C7.60278218,11.4983927 8.72619666,11.5434645 9.84397716,11.4893784 C10.8028796,11.4431798 11.284021,10.9800671 11.536423,10.0459542 C11.59727,9.82284877 11.6389614,9.59523621 11.6986815,9.33269301 L12.3477153,9.33269301 L12.3477153,15.2663948 C12.1493995,15.2821699 11.9679855,15.2968182 11.7876983,15.3114666 C11.7403729,15.2370981 11.6930475,15.1908995 11.6772724,15.1345598 C11.5871288,14.808916 11.5229015,14.474258 11.4136024,14.155375 C11.2197937,13.5885972 10.8164011,13.2246425 10.2225802,13.1333721 C8.96169678,12.9429438 7.69630615,13.0713984 6.40161885,13.0375945 C6.38020975,13.2730946 6.35316667,13.4364799 6.35203988,13.5998652 C6.35091308,15.8658496 6.34415231,18.1340877 6.35654706,20.401199 C6.35992744,20.884594 6.40161885,21.3770033 6.49514283,21.8525107 C6.67204962,22.7483127 7.04051154,23.070576 7.93405987,23.2102986 C8.16279922,23.2452292 8.39379217,23.2722723 8.65633537,23.3060761 C8.67774448,23.4232628 8.70816794,23.5415762 8.7160555,23.6598897 C8.72168948,23.762428 8.70140717,23.86722 8.68788563,24.0215909 L0.638063123,24.0215909 C0.627921969,23.8165142 0.617780815,23.5956624 0.604259277,23.3263584 C0.934410172,23.2779062 1.23977158,23.235088 1.54513299,23.1866359 C2.35980567,23.0570545 2.75080349,22.6897193 2.8803849,21.8863146 C2.94348541,21.4908096 2.98179644,21.0862902 2.98292323,20.6862781 C2.989684,15.3261149 2.98855721,9.96482493 2.98517682,4.60466176 C2.98517682,4.37366881 2.97165529,4.13816868 2.93109067,3.91055612 C2.77559298,3.01813459 2.31811426,2.57868459 1.42343914,2.44346921 C1.17441748,2.40628498 0.923142223,2.38149549 0.623414789,2.34543806" id="Fill-11"></path>
                        <path d="M50.1832333,0.926803323 C49.9995657,2.59107934 49.8271661,4.16070458 49.6468789,5.77878201 C49.404618,5.75962649 49.184893,5.74159778 48.932491,5.72018867 C48.882912,5.37989663 48.844601,5.06777445 48.7916416,4.75903265 C48.6181152,3.76407279 48.1144379,3.23222561 47.1014493,3.18039305 C45.9047932,3.11729254 44.7013763,3.16574472 43.445,3.16574472 L43.445,3.91280971 C43.445,9.35860929 43.4427464,14.8032821 43.450634,20.2490816 C43.4517608,20.7538857 43.488945,21.2665774 43.5802154,21.7634939 C43.7537418,22.7088748 44.1526272,23.064942 45.0889937,23.2114253 C45.2974508,23.2441024 45.5081614,23.2711455 45.7616902,23.3072029 L45.7616902,24.0475071 L37.7366572,24.0475071 C37.7253893,23.8052462 37.7163749,23.5843944 37.705107,23.3252316 C38.001454,23.2745259 38.2662508,23.2249469 38.5321744,23.1866359 C39.2138853,23.0874779 39.6803784,22.7021141 39.8212277,22.0429391 C39.9586967,21.4051732 40.0499671,20.7448714 40.0522207,20.0947108 C40.0691226,14.650038 40.0623618,9.20423839 40.061235,3.75843882 C40.061235,3.57364446 40.0386991,3.3888501 40.022924,3.13306767 C39.5181199,3.13306767 39.0572608,3.12968728 38.5952749,3.13419446 C37.7907434,3.14546241 36.985085,3.15334997 36.1816803,3.18039305 C35.3455985,3.20968972 34.8058638,3.66040766 34.5151507,4.42662817 C34.4171196,4.6824106 34.3303564,4.94382701 34.2447199,5.20524342 C34.0587988,5.77878201 34.0610524,5.77878201 33.3252553,5.68525803 C33.4942746,4.12239356 33.6655474,2.55952908 33.8492149,0.879477938 C34.1095046,0.979762681 34.3731746,1.00229858 34.485854,1.14314794 C34.7472704,1.46541127 35.0830553,1.52062422 35.4425029,1.55442806 C35.590113,1.5690764 35.7399767,1.56118883 35.8875869,1.56118883 C39.8077062,1.56118883 43.7266987,1.56344242 47.6468181,1.55780845 C48.3014859,1.55780845 48.9572805,1.57132998 49.4812401,1.03272204 C49.5995536,0.9099014 49.899281,0.963987553 50.1832333,0.926803323" id="Fill-12"></path>
                        <path d="M73.024492,12.6330752 C72.9670254,15.9672612 71.090912,18.6141023 68.234487,19.5144114 C64.4507099,20.7054336 59.6798604,18.5972004 59.3621043,13.3035181 C59.248298,11.38684 59.7114107,9.64706877 60.9407439,8.1506852 C62.6917831,6.0210429 65.5628564,5.14665009 68.228853,5.98273188 C71.0278115,6.85937828 72.5118003,8.86732673 72.9501235,11.7124838 C73.0053365,12.0662973 73.0098436,12.4279985 73.024492,12.6330752 L73.024492,12.6330752 L73.024492,12.6330752 Z M62.4562829,12.6522307 C62.4810724,13.117597 62.4821992,13.5852168 62.5362854,14.0460759 C62.6669936,15.1694904 62.917142,16.259101 63.5830778,17.2056087 C64.8755115,19.0422844 67.5539029,19.0591863 68.8046452,17.1965944 C69.1742339,16.6467185 69.4198752,15.9886703 69.60805,15.3463972 C69.9460884,14.19932 69.9742583,13.0082979 69.8897487,11.8184025 C69.8086194,10.6882272 69.5663585,9.5986166 68.9905664,8.60478353 C68.1499774,7.15347174 66.6175364,6.57880636 65.070447,7.14558418 C64.1397145,7.48700302 63.54364,8.17998186 63.1413742,9.06000865 C62.6196682,10.2025786 62.4957208,11.4183903 62.4562829,12.6522307 L62.4562829,12.6522307 L62.4562829,12.6522307 Z" id="Fill-13"></path>
                        <path d="M11.8451648,18.5194515 L11.8451648,17.8535158 C11.8868562,17.8253459 11.9026314,17.80281 11.9206601,17.8016832 C12.9899884,17.7385827 13.4147901,17.0219412 13.7122639,16.1148713 C14.6768003,13.1637955 15.6706334,10.2206074 16.6520717,7.27403879 C16.9585599,6.35682777 16.8548948,6.15062431 15.8959924,5.82160021 C15.886978,5.63004508 15.8779637,5.42384162 15.8655689,5.15453765 C16.0672652,5.14214291 16.2475524,5.11960701 16.4278396,5.11960701 C17.1906797,5.11509983 17.9512662,5.11622663 18.7141063,5.11735342 C19.3180684,5.11960701 19.320322,5.11960701 19.5073699,5.67849726 C20.1924612,7.72475674 20.8741721,9.77101621 21.5581366,11.8161489 C21.9604023,13.0206926 22.3626681,14.2241095 22.769441,15.4275264 C22.8719794,15.7272539 22.9790249,16.0269813 23.0995919,16.3210748 C23.4072069,17.0749005 23.8139799,17.7273147 24.763868,17.7814009 L24.763868,18.5329731 L19.1862334,18.5329731 C19.0048194,17.8568962 19.0059462,17.8546426 19.6617408,17.7104128 C20.1811932,17.5966065 20.3964111,17.3723744 20.2983799,16.8765846 C20.1609109,16.1937469 19.9535807,15.5255576 19.7394897,14.8630022 C19.7034322,14.7525763 19.484834,14.6353896 19.3496186,14.633136 C18.1856395,14.6151073 17.0205336,14.6275021 15.8565546,14.6196145 C15.5917578,14.6184877 15.491473,14.7537031 15.4238653,14.984696 C15.2706212,15.512036 15.0880805,16.0303617 14.9359632,16.5588285 C14.7342669,17.2518073 14.9032861,17.5402668 15.5917578,17.7160468 C15.6920425,17.7419631 15.7957076,17.758865 15.9466981,17.7881617 C15.9590929,18.0191546 15.9714876,18.24226 15.9850092,18.5194515 L11.8451648,18.5194515 L11.8451648,18.5194515 L11.8451648,18.5194515 Z M17.6515388,8.31069007 C17.6087206,8.31407045 17.5670292,8.31857763 17.524211,8.32195801 C17.0025049,9.96257134 16.4785453,11.6031847 15.9331766,13.3102789 L19.2831377,13.3102789 C18.7287547,11.612199 18.1890199,9.96144454 17.6515388,8.31069007 L17.6515388,8.31069007 L17.6515388,8.31069007 Z" id="Fill-14"></path>
                    </g>
                </g>
            </g>
        </g>
    </g>
</svg>