<?xml version="1.0" encoding="UTF-8" standalone="no"?>
<svg width="60px" height="38px" viewBox="0 0 60 38" version="1.1" xmlns="http://www.w3.org/2000/svg" xmlns:xlink="http://www.w3.org/1999/xlink" xmlns:sketch="http://www.bohemiancoding.com/sketch/ns">
    <!-- Generator: Sketch 3.3.2 (12043) - http://www.bohemiancoding.com/sketch -->
    <title>bussins</title>
    <desc>Created with Sketch.</desc>
    <defs></defs>
    <g id="Page-1" stroke="none" stroke-width="1" fill="none" fill-rule="evenodd" sketch:type="MSPage">
        <g id="lantern_home_desktop" sketch:type="MSArtboardGroup" transform="translate(-694.000000, -1726.000000)" fill="#FFFFFF">
            <g id="bussins" sketch:type="MSLayerGroup" transform="translate(694.000000, 1726.000000)">
                <path d="M0.829710923,37.1147645 L0.829710923,0.638161187 L59.1909241,0.638161187 L59.1909241,37.1147645 L0.829710923,37.1147645 L0.829710923,37.1147645 Z M7.49808293,16.5608994 C7.68513088,16.5744209 7.79893716,16.5890693 7.91274344,16.5901961 C8.55501651,16.5980836 9.19728958,16.6116052 9.83956265,16.6025908 C10.3240844,16.5958301 10.8164938,16.6048444 11.2908744,16.5237152 C12.2565376,16.3603299 12.9281074,15.6876334 13.0903658,14.8042262 C13.2526243,13.9275798 12.8672605,13.1422038 12.0041356,12.6047226 C11.8046929,12.4796484 11.5906019,12.3771101 11.2863673,12.2114712 C11.518487,12.0165357 11.7280708,11.8824471 11.8835685,11.70216 C12.6103512,10.855937 12.5371096,9.41251279 11.0373456,9.09588344 C10.8367761,9.05419203 10.6305726,9.02038818 10.425496,9.01813459 C9.51391894,9.01024703 8.60346869,9.01362741 7.69076485,9.015881 C7.60062126,9.0170078 7.51160447,9.04179728 7.42146088,9.05531882 C7.49019536,9.147716 7.54653511,9.16349113 7.60512844,9.1691251 C8.26092305,9.22997202 8.36120779,9.28067779 8.36684177,9.92407766 C8.38487049,11.8069519 8.37585613,13.6898261 8.35332023,15.5727003 C8.34543267,16.2814543 8.31726279,16.2814543 7.62991793,16.4403324 C7.60963562,16.4448395 7.59498729,16.469629 7.49808293,16.5608994 L7.49808293,16.5608994 Z M31.6452969,27.1888286 C31.6700863,27.236154 31.6948758,27.2834793 31.7185385,27.3308047 C31.9179812,27.3308047 32.1162971,27.3274243 32.3157398,27.3308047 C32.8960392,27.3409459 33.4785921,27.362355 34.0611451,27.362355 C34.6527124,27.362355 35.2521672,27.3961588 35.8369738,27.3217904 C37.8990084,27.0592472 39.11482,25.3893372 38.7598796,23.3611064 C38.5187455,21.9762755 37.3930775,21.0173731 35.8009163,20.9384975 C34.4701716,20.8731434 33.1337929,20.8911721 31.8007946,20.8753969 C31.7230457,20.8742701 31.6430433,20.9125812 31.5641676,20.9306099 C31.6655792,21.0207535 31.7568496,21.0432894 31.8481199,21.0545573 C32.2909503,21.1075167 32.4126442,21.2179426 32.4148978,21.6472514 C32.4205317,23.1650441 32.4239121,24.6828368 32.4103906,26.2006295 C32.4058834,26.6761369 32.4678571,27.236154 31.6452969,27.1888286 L31.6452969,27.1888286 Z M14.7895725,27.3015081 C14.7940797,27.2733382 14.7974601,27.2451683 14.8019672,27.2169984 C14.7467543,27.2012233 14.6926681,27.1798142 14.6363284,27.1685463 C14.012084,27.0536132 13.9771534,27.0378381 13.941096,26.4158473 C13.897151,25.6642751 13.8813758,24.9115761 13.8644739,24.1588772 C13.853206,23.6946377 13.8622203,23.2303982 13.8622203,22.7210869 C13.9613783,22.803343 14.0346199,22.8585559 14.1011008,22.9227832 C15.5659342,24.3594467 17.0273871,25.7994905 18.4978544,27.2316468 C18.5925052,27.324044 18.7468761,27.3544674 18.8730771,27.4141875 C18.9158953,27.2868597 18.9913905,27.1595319 18.9958977,27.0310773 C19.0409695,25.3194759 19.0759002,23.6067477 19.115338,21.8951463 C19.1311131,21.2123086 19.1333667,21.2134354 19.7778934,21.0072319 C19.7970489,21.0004712 19.80719,20.9700477 19.8477546,20.9182151 L17.4916266,20.9182151 C17.5254304,21.001598 17.5648682,21.0275143 17.6076864,21.034275 C18.3085529,21.1525885 18.3378495,21.1965335 18.3479907,21.9199358 C18.3581318,22.5633356 18.3908089,23.2067355 18.4020768,23.8501354 C18.4110912,24.4225472 18.4043304,24.9960858 18.4043304,25.6473732 C18.2443255,25.4941291 18.1395336,25.3983515 18.0392489,25.2980668 C16.599205,23.852389 15.1591612,22.4033308 13.7146102,20.9621601 C13.6199594,20.8675094 13.4746029,20.8213108 13.352909,20.7537031 C13.3134712,20.8844113 13.2402296,21.0139927 13.2368492,21.1469545 C13.2120597,22.0574048 13.2007917,22.967855 13.1850166,23.8783053 C13.1703683,24.7650928 13.1557199,25.6530072 13.138818,26.5386679 C13.1320572,26.9093834 13.0238849,27.1854482 12.5754206,27.1640391 C12.5111933,27.1595319 12.4435856,27.2158716 12.3782315,27.2451683 C12.3827387,27.263197 12.3883726,27.2823525 12.3940066,27.3015081 L14.7895725,27.3015081 L14.7895725,27.3015081 Z M32.012632,16.5563922 C32.0148856,16.5338563 32.0171392,16.5101936 32.0193928,16.4876577 C31.9562922,16.4639951 31.8943185,16.4290644 31.8267108,16.4189233 C31.2373971,16.3265261 31.1923253,16.305117 31.1472535,15.695521 C31.0999281,15.0667694 31.0920406,14.4346375 31.0807726,13.8025056 C31.0706315,13.2041775 31.078519,12.6047226 31.078519,11.9793515 C31.1562679,12.048086 31.2295096,12.1055525 31.2948637,12.1720334 C32.501661,13.3686896 33.7062047,14.5687261 34.9152556,15.7631286 C35.1834327,16.0290522 35.4594975,16.2848347 35.7468302,16.5270956 C35.8381006,16.6048444 35.9800767,16.6239999 36.0983902,16.6690717 C36.1355744,16.5597726 36.1783926,16.4538539 36.2088161,16.343428 C36.2223376,16.2983562 36.2121964,16.2476504 36.2121964,16.1980715 C36.2426199,14.497738 36.2651558,12.7974046 36.3091008,11.0993247 C36.3226223,10.5584632 36.3271295,10.3026807 36.9660222,10.2666233 C36.9851777,10.2654965 37.0009529,10.2181711 37.0325031,10.1730993 L34.7045449,10.1730993 C34.7507435,10.2576089 34.8025761,10.2801448 34.8566622,10.2891592 C35.4921745,10.3984583 35.5361195,10.4480373 35.5564018,11.1117194 C35.5811913,11.9861123 35.6071076,12.8593783 35.6251363,13.7326443 C35.6330239,14.1011062 35.6262631,14.4673146 35.6262631,14.9259201 C33.9124081,13.2120651 32.270668,11.5714518 30.6278011,9.92971164 C30.5906169,9.94999394 30.5534326,9.97027625 30.5173752,9.99055856 C30.4937125,10.1021112 30.4542747,10.2125371 30.4497675,10.3240898 C30.4294852,10.955095 30.4125833,11.5861001 30.4035689,12.218232 C30.3844134,13.3472805 30.3753991,14.4774557 30.3551167,15.6065042 C30.342722,16.2870883 30.3314541,16.2904686 29.683547,16.4324448 C29.6486164,16.4403324 29.6193197,16.4831506 29.5280493,16.5563922 L32.012632,16.5563922 L32.012632,16.5563922 Z M50.0740269,24.3729682 C50.4131921,23.9988723 50.7140463,23.7137932 50.9596876,23.3870227 C51.2278648,23.0287019 51.3732213,22.6151682 51.2661758,22.1543091 C51.1016638,21.441048 50.5968597,20.9824425 49.7742994,20.9384975 C48.6610261,20.8787773 47.5421188,20.8911721 46.4265919,20.8765237 C46.3646182,20.8765237 46.3015177,20.9159616 46.2158812,20.9441314 C46.2699674,20.9858228 46.2936301,21.0196267 46.3240536,21.0275143 C47.1037956,21.210055 47.1083028,21.2089282 47.107176,21.9774023 C47.1037956,23.4591376 47.0970348,24.9431264 47.0880205,26.4248616 C47.0835133,26.9860055 47.0271736,27.0524864 46.5223695,27.1730534 C46.4727905,27.1854482 46.4265919,27.2169984 46.3792665,27.2395343 C46.3826469,27.2586898 46.3871541,27.2778454 46.3905345,27.2981277 L49.1016029,27.2981277 C49.0137129,27.1910822 48.9066674,27.1471372 48.8018755,27.1493907 C48.4469351,27.1595319 48.2835498,26.9769911 48.2745355,26.6434599 C48.2587603,26.0485122 48.249746,25.4535645 48.2463656,24.8586168 C48.2463656,24.7988967 48.2903106,24.714387 48.337636,24.6839636 C48.5325715,24.5645233 49.2582274,24.7391765 49.3956964,24.9284781 C49.7404956,25.3983515 50.1100843,25.8524499 50.4222065,26.3437324 C51.1084245,27.4232019 52.1405686,27.4232019 53.2256721,27.2970009 C53.2324329,27.2958741 53.2346865,27.2553095 53.2279257,27.2868597 C52.8673513,27.0953046 52.451564,26.9826251 52.1890208,26.7178283 C51.4487166,25.9685097 50.7726397,25.1560906 50.0740269,24.3729682 L50.0740269,24.3729682 Z M13.6447489,10.1730993 C13.6424953,10.1956352 13.6402417,10.2181711 13.6379881,10.240707 C13.7033422,10.2598625 13.7675696,10.284652 13.8351772,10.29592 C14.4470269,10.4018387 14.4909719,10.4390229 14.495479,11.0666477 C14.5044934,12.0503396 14.4819575,13.0351583 14.5033666,14.0188502 C14.5247757,14.8909894 14.6971753,15.7135497 15.4836781,16.2600452 C16.3772265,16.8797824 18.1744643,16.8493589 19.0477303,16.2037054 C19.7350752,15.695521 19.9762093,14.9709919 20.0021255,14.1675871 C20.0370562,13.1365698 20.0224078,12.1021721 20.0370562,11.070028 C20.0471973,10.4390229 20.0562117,10.4401497 20.6376378,10.2835252 C20.6748221,10.2745109 20.7041187,10.2361998 20.7920087,10.1685921 L18.3761605,10.1685921 C18.4775721,10.2767645 18.587998,10.3094415 18.7006775,10.3162023 C19.0297016,10.3364846 19.1908332,10.5212789 19.1885796,10.8334011 C19.1818189,12.1438635 19.1761849,13.4554528 19.1423811,14.7659152 C19.1333667,15.1918436 18.9440652,15.5648127 18.6015195,15.8397507 C18.0572776,16.2758203 17.439794,16.3152581 16.8121693,16.1068011 C16.1845445,15.898344 15.825097,15.4048079 15.7901663,14.7692956 C15.7248122,13.6053165 15.7281926,12.4390838 15.7146711,11.2739779 C15.7079103,10.5088842 15.7169247,10.5088842 16.3918748,10.2418338 C16.4008891,10.2384534 16.4042695,10.2215515 16.429059,10.1730993 L13.6447489,10.1730993 L13.6447489,10.1730993 Z M42.2687188,23.6529463 C42.2687188,22.918276 42.2597045,22.2512135 42.27886,21.5852777 C42.2811136,21.5075289 42.4287237,21.3723135 42.5132333,21.3700599 C42.8636665,21.3576651 43.2163533,21.4049905 43.5667865,21.3937226 C44.0580691,21.3790742 44.3544161,21.5717562 44.4163899,22.0754335 C44.4175166,22.0821942 44.4569545,22.083321 44.5189282,22.0934622 C44.5617464,21.6776749 44.6045646,21.265268 44.6440024,20.8922989 L40.2472489,20.8922989 C40.2449953,20.9272295 40.2427417,20.9621601 40.2393613,20.9970908 C40.3385192,21.0162463 40.4365504,21.0421626 40.5368351,21.0545573 C40.9672708,21.1086435 41.0945986,21.2280837 41.0945986,21.660773 C41.0968522,23.2157499 41.097979,24.7707268 41.0776967,26.3268305 C41.0686823,26.9860055 41.0450196,26.9848787 40.43317,27.2034769 C40.4162681,27.2079841 40.4095073,27.2406611 40.3768303,27.2947473 C40.4793686,27.307142 40.5672586,27.3296779 40.6551486,27.3296779 C40.9458617,27.3285511 41.2377015,27.3105224 41.5295414,27.3139028 C42.4399917,27.3251707 43.3515687,27.3477066 44.262019,27.3522138 C44.4073755,27.3522138 44.6620311,27.3082688 44.6811866,27.2339004 C44.7859786,26.8519169 44.8310504,26.4541583 44.8964045,26.0620337 C44.8490791,26.0530193 44.8006269,26.0428782 44.7521747,26.0338638 C44.7172441,26.1397825 44.7071029,26.269364 44.6383684,26.3471128 C44.4873779,26.5183856 44.3206123,26.7696609 44.1313108,26.7989575 C43.6952411,26.867692 43.234382,26.8643116 42.7960588,26.8045915 C42.6180252,26.7809288 42.3419605,26.5420483 42.3318194,26.3865506 C42.2822404,25.642866 42.3104102,24.895801 42.3104102,24.1295805 C42.6890133,24.1295805 43.0518413,24.1239465 43.4146692,24.1307073 C44.0682102,24.1442288 44.1358179,24.2016954 44.2721601,24.8124182 C44.2744137,24.8214326 44.3127247,24.8236861 44.3780788,24.8428417 C44.4242774,24.3673342 44.4682224,23.9008412 44.5155478,23.4061782 C43.7718632,23.8073172 43.0360661,23.5785778 42.2687188,23.6529463 L42.2687188,23.6529463 Z M37.7716805,10.1438027 C37.7694269,10.1730993 37.7671734,10.202396 37.7649198,10.2305659 C37.8167523,10.2508482 37.8674581,10.2778912 37.9204175,10.290286 C38.5908604,10.4333889 38.6190303,10.460432 38.6179035,11.1466501 C38.6145231,12.6159906 38.6133963,14.0853311 38.5964944,15.5546716 C38.5886068,16.2442701 38.5750853,16.2431433 37.9463337,16.4538539 C37.9294318,16.4594879 37.922671,16.4910381 37.8809796,16.5654066 C38.0038003,16.5755477 38.1007046,16.5935765 38.1964822,16.5913229 C38.5852264,16.5845621 38.9728439,16.5586458 39.3615881,16.5642798 C40.1864019,16.5732942 41.0112158,16.601464 41.8360296,16.6104784 C41.9577235,16.6116052 42.1537858,16.5823085 42.1920968,16.5045597 C42.3825251,16.1282102 42.3791447,15.7158033 42.317171,15.3022695 C42.2371686,15.3800184 42.2044915,15.4634012 42.1819556,15.5501644 C42.1008264,15.8487651 41.9171588,16.0606025 41.6061635,16.0786312 C41.1723474,16.1022939 40.735151,16.1022939 40.3024618,16.0696168 C40.0027344,16.047081 39.8111792,15.8363703 39.8032917,15.5332625 C39.7886433,14.8323961 39.7987845,14.1315297 39.7987845,13.3979862 C40.1852751,13.3979862 40.5458495,13.3923523 40.9041703,13.399113 C41.6129242,13.4115078 41.6241922,13.4227757 41.7943382,14.0774435 C41.7977186,14.0875847 41.8349028,14.0898383 41.8934962,14.1044866 C41.9396947,13.6357399 41.9847665,13.1726273 42.0343455,12.663316 C41.2850269,13.0745961 40.5402155,12.8402228 39.812306,12.8988161 L39.812306,10.641846 C40.2359809,10.641846 40.6337395,10.6429728 41.0314981,10.641846 C41.5013715,10.6407192 41.8687067,10.7759346 41.9351876,11.3179229 C41.9363144,11.3258105 41.9757522,11.3280641 42.0399795,11.3427124 C42.0805441,10.9246715 42.1211087,10.5133914 42.1571661,10.1438027 L37.7716805,10.1438027 L37.7716805,10.1438027 Z M21.7971098,25.6113158 C21.7678131,25.610189 21.7396432,25.6090622 21.7103465,25.6068086 C21.6844303,25.7127273 21.6427389,25.818646 21.6348513,25.9268183 C21.6168226,26.2186582 21.6280905,26.5104981 21.5976671,26.8000843 C21.5672436,27.1076993 21.7126001,27.2778454 21.9886649,27.3015081 C22.5892465,27.3533406 23.1954622,27.4277091 23.7926635,27.3927784 C24.5848002,27.3443263 25.1707336,26.8947351 25.4434179,26.1533041 C25.7228631,25.3983515 25.5729993,24.676076 24.9701641,24.1183126 C24.6445204,23.8174583 24.2445082,23.5977333 23.8771731,23.3430777 C23.5796992,23.1357474 23.2450412,22.967855 22.9903855,22.7177065 C22.5610767,22.2985389 22.6805169,21.6596462 23.1988426,21.3610455 C24.0180224,20.8911721 24.9205851,21.2551268 25.1774943,22.1599431 C25.1898891,22.2016345 25.2158054,22.2399455 25.2360877,22.2805101 C25.2698915,22.2793833 25.3025686,22.2793833 25.3363724,22.2793833 C25.3487672,21.8568353 25.3690495,21.4342872 25.3656691,21.0117391 C25.3656691,20.9644137 25.2462288,20.8911721 25.174114,20.8765237 C24.4033863,20.7345476 23.6326586,20.6624327 22.88334,20.9790621 C21.6754159,21.4917537 21.394844,22.8551755 22.3357177,23.7678794 C22.6715026,24.0912695 23.1008114,24.3177553 23.4850485,24.5915664 C23.7498453,24.7819947 24.0416851,24.9476336 24.2692977,25.1763729 C24.7324104,25.642866 24.6535347,26.3764095 24.1318287,26.7741681 C23.3565938,27.3634818 22.0697941,26.8924815 21.8658442,25.9437202 C21.8421815,25.8332943 21.8196456,25.7217417 21.7971098,25.6113158 L21.7971098,25.6113158 Z M21.6540068,14.8864822 C21.603301,14.8831019 21.5514685,14.8808483 21.5007627,14.8774679 C21.4849876,15.2662121 21.4872412,15.6560831 21.4511837,16.0403202 C21.4207603,16.3648371 21.5661168,16.5394903 21.8624639,16.563153 C22.4743135,16.612732 23.097431,16.7062559 23.7025199,16.6476626 C24.4969102,16.5699138 25.0839704,16.1011671 25.3239777,15.3202983 C25.5673654,14.5292883 25.3600351,13.8171539 24.7211424,13.2853067 C24.3504269,12.9776917 23.9143573,12.751206 23.5143451,12.4773948 C23.2664503,12.3072488 23.0084142,12.1393564 22.7965768,11.9286457 C22.5227656,11.6559614 22.5047369,11.1838343 22.7447442,10.8897409 C23.0963042,10.4581784 23.5796992,10.3849368 24.0991517,10.4728268 C24.5746591,10.553956 24.8912884,10.8142456 24.998334,11.3021478 C25.0152359,11.3821502 25.0591809,11.4553919 25.0918579,11.5308871 C25.1403101,11.5252532 25.1887623,11.5173656 25.2372145,11.5106048 C25.2372145,11.1162266 25.2439752,10.7218484 25.2304537,10.328597 C25.2282001,10.2654965 25.1448173,10.164085 25.0839704,10.1539438 C24.1014052,9.95788151 23.1222205,9.87449869 22.2545885,10.5145182 C21.7554183,10.8841069 21.5638632,11.4046861 21.658514,12.0255501 C21.7666863,12.739938 22.2455741,13.1715005 22.8112251,13.536582 C23.1988426,13.7844769 23.6011083,14.0132162 23.976331,14.2802666 C24.3594413,14.5552046 24.4743743,14.9642311 24.3864843,15.4138222 C24.3008479,15.8476383 24.0078813,16.1203226 23.5830796,16.2149734 C22.8653113,16.3761051 21.8151385,16.2003251 21.6878106,15.0543747 C21.6821767,14.9980349 21.6664015,14.942822 21.6540068,14.8864822 L21.6540068,14.8864822 Z M46.975341,11.5297603 C47.0023841,11.5275068 47.0305539,11.5252532 47.0598506,11.5229996 C47.0778793,11.1083391 47.1026688,10.6948053 47.1060492,10.2812716 C47.107176,10.2339462 46.9933697,10.1539438 46.9235084,10.1404223 C46.1167233,9.98492458 45.3099382,9.9150633 44.5324497,10.2722573 C43.7020019,10.6531139 43.3380472,11.4306024 43.59721,12.2824593 C43.8000331,12.9483951 44.3341338,13.3134766 44.8851365,13.6594026 C45.2243018,13.8723669 45.5814957,14.0650488 45.8902375,14.3151972 C46.4322259,14.7591544 46.4265919,15.6042506 45.9105198,16.003136 C45.0778184,16.6476626 43.7583417,16.1439853 43.5746741,15.112968 C43.5600258,15.0318388 43.5374899,14.9529631 43.5183343,14.8718339 C43.4732625,14.8729607 43.4281908,14.8752143 43.383119,14.8774679 C43.3684706,15.2921284 43.3639634,15.7079157 43.339174,16.1248298 C43.3245256,16.3614567 43.4225568,16.513574 43.6479158,16.5327295 C44.2969496,16.5868157 44.953871,16.6938612 45.5950173,16.6397751 C46.3916612,16.5710406 46.9708338,16.091026 47.2097143,15.3079035 C47.4463412,14.5270347 47.2423914,13.8261683 46.618147,13.3022087 C46.2496851,12.9912133 45.8136155,12.7624739 45.4158569,12.4897896 C45.1657084,12.3196435 44.8997848,12.1596387 44.6924546,11.9466744 C44.3510357,11.5962412 44.393854,11.0519993 44.7510479,10.7432575 C45.3538832,10.2226783 46.7894198,10.3274702 46.8942118,11.3844038 C46.8987189,11.4339828 46.9471711,11.4813082 46.975341,11.5297603 L46.975341,11.5297603 Z M48.5336983,14.8808483 L48.4074973,14.8808483 C48.3827078,15.2842408 48.3612987,15.6876334 48.3274948,16.0887724 C48.3060857,16.3389208 48.4120044,16.5068133 48.6520117,16.5316027 C49.2762561,16.5935765 49.9072612,16.7017488 50.5269984,16.656677 C51.352939,16.5958301 51.968169,16.1169422 52.2149371,15.3112839 C52.4707195,14.4752021 52.2093031,13.7495462 51.5275922,13.2007971 C51.2639222,12.9878329 50.9653216,12.8210673 50.6802425,12.6373997 C50.4041778,12.4604929 50.1067039,12.311756 49.8520483,12.1089329 C49.2424523,11.6199039 49.375414,10.8345279 50.1010699,10.5471952 C50.9720824,10.202396 51.7349225,10.5945206 51.9287312,11.4846885 C51.9321116,11.4993369 51.968169,11.5072244 52.0898629,11.5714518 C52.0898629,11.0914371 52.0932433,10.6598747 52.0831021,10.2271855 C52.0819753,10.196762 51.9907049,10.1505634 51.9366188,10.1404223 C51.0903958,9.9815442 50.2475533,9.90266856 49.4464021,10.3207095 C48.4604566,10.8345279 48.2024206,12.0007606 48.9224425,12.8481103 C49.1985073,13.1726273 49.5804907,13.4126346 49.9286703,13.6729242 C50.2757231,13.9332138 50.6779889,14.1315297 50.9923647,14.4256231 C51.4859008,14.8853554 51.396884,15.6470688 50.8537689,16.041447 C50.0289551,16.6409018 48.7534233,16.1146886 48.5945452,15.112968 C48.5821505,15.0340924 48.5551074,14.9574703 48.5336983,14.8808483 L48.5336983,14.8808483 Z M11.1579126,27.2947473 C11.0812906,27.2282664 11.0598815,27.1933357 11.0305848,27.1877018 C10.9235393,27.1674195 10.8164938,27.1527711 10.7071947,27.14263 C10.1956298,27.093051 10.0998523,27.0119218 10.0874575,26.4924693 C10.062668,25.3758156 10.0468929,24.2591619 10.0435125,23.1425082 C10.0412589,22.2692422 10.0660484,21.3948494 10.0705556,20.5215834 C10.0728092,20.1350927 10.249716,19.93565 10.6362066,19.9142409 C10.7162091,19.9097337 10.7939579,19.8714227 10.8728335,19.84776 C10.8683264,19.8274777 10.8626924,19.8071954 10.8559316,19.7880399 L7.84851613,19.7880399 C7.98485831,19.8635352 8.01978895,19.8939586 8.06035356,19.902973 C8.77248792,20.0494563 8.78713625,20.0663582 8.79051664,20.8032821 C8.79615061,22.0788139 8.80741856,23.3532188 8.80629176,24.6287506 C8.80629176,25.2721505 8.78713625,25.9144236 8.76460035,26.5566966 C8.75333241,26.9105102 8.62713138,27.1741802 8.20345651,27.1595319 C8.13359523,27.1572783 8.06035356,27.2068573 7.98936549,27.2327736 C7.99387267,27.2530559 7.99725305,27.2733382 8.00063344,27.2947473 L11.1579126,27.2947473 L11.1579126,27.2947473 Z M26.0766766,10.164085 C26.2017509,10.246341 26.228794,10.2745109 26.2592174,10.2823984 C26.8890957,10.4412765 26.9014905,10.4514177 26.8992369,11.1083391 C26.8958565,12.6261317 26.8924761,14.1439244 26.8800814,15.6617171 C26.8755742,16.2961026 26.8643063,16.2949758 26.2456959,16.4414592 C26.2186528,16.4482199 26.1983705,16.4876577 26.1442843,16.5439975 L29.018738,16.5439975 C29.0209916,16.5113204 29.0232452,16.4797702 29.0254988,16.4482199 C28.9094389,16.4335716 28.7945059,16.4132893 28.6773192,16.4065285 C28.2378692,16.3761051 28.1150486,16.2724399 28.1105414,15.8262292 C28.0981466,14.272379 28.0857519,12.7174021 28.0992734,11.163552 C28.1049074,10.4626856 28.1319505,10.4626856 28.7776039,10.2564821 C28.7899987,10.2531018 28.7922523,10.2159175 28.8080274,10.164085 L26.0766766,10.164085 L26.0766766,10.164085 Z M27.1369906,27.2924937 L30.0339802,27.2924937 C29.9427098,27.1955893 29.8435519,27.1640391 29.7443939,27.1516443 C29.1719821,27.0817831 29.1224032,27.0581204 29.1145156,26.4902158 C29.0908529,24.9115761 29.0818385,23.3340633 29.0885993,21.7565505 C29.0897261,21.1807584 29.117896,21.1807584 29.7094633,21.0308946 C29.7545351,21.0184999 29.7996069,21.0117391 29.8458055,21.001598 C29.8221428,20.9711745 29.7973533,20.9430046 29.7736906,20.913708 L27.0547346,20.913708 C27.1922036,20.9925836 27.228261,21.0263875 27.2688256,21.0354018 C27.8716609,21.16611 27.9009575,21.1920263 27.9020843,21.7881008 C27.9032111,23.3058935 27.9020843,24.8225594 27.8919432,26.340352 C27.887436,26.9927663 27.8592661,27.0141754 27.266572,27.186575 C27.2372754,27.1955893 27.2147395,27.2282664 27.1369906,27.2924937 L27.1369906,27.2924937 Z" id="Fill-1" sketch:type="MSShapeGroup"></path>
                <path d="M9.58603381,14.157446 C9.58603381,13.7315175 9.59166778,13.3067158 9.58265343,12.8819142 C9.57927304,12.6982466 9.64124676,12.6204978 9.83280189,12.6159906 C11.2086184,12.5878207 12.2914683,14.1089938 11.8249752,15.4217098 C11.5658124,16.1518729 10.3635223,16.4797702 9.79223727,15.9580642 C9.6750506,15.8510186 9.61420368,15.6380544 9.60406253,15.4690352 C9.57927304,15.0329656 9.59617496,14.5946424 9.59617496,14.157446 L9.58603381,14.157446" id="Fill-2" sketch:type="MSShapeGroup"></path>
                <path d="M9.58603381,10.8074848 C9.58603381,10.4559248 9.59842855,10.1043648 9.58152663,9.75280484 C9.56800509,9.47448651 9.6975865,9.39448407 9.94998855,9.39223048 C10.6497282,9.38434292 11.2198864,9.97140305 11.2683385,10.7691738 C11.2773529,10.9134036 11.2841137,11.0610137 11.266085,11.2041166 C11.1455179,12.1663994 10.5302879,12.3218971 9.75279945,12.1990765 C9.68519176,12.1878085 9.59842855,12.0289305 9.59392137,11.9342797 C9.57476586,11.559057 9.58603381,11.1827075 9.58603381,10.8074848" id="Fill-3" sketch:type="MSShapeGroup"></path>
                <path d="M34.9310307,26.9736107 C34.8701838,26.9736107 34.8093368,26.9747375 34.7484899,26.9736107 C33.8459272,26.9476945 33.6115539,26.7290963 33.6025395,25.8287872 C33.5901448,24.467619 33.6047931,23.1075776 33.5957788,21.7475362 C33.5935252,21.4771054 33.6757812,21.3452704 33.9597335,21.3306221 C35.2048418,21.2630144 36.3755817,21.4579499 37.104618,22.5858715 C37.7705537,23.6202692 37.758159,24.7741072 37.2240582,25.8535767 C36.7744671,26.7640269 35.8730312,26.961216 34.9310307,26.9736107" id="Fill-4" sketch:type="MSShapeGroup"></path>
                <path d="M48.244112,21.3734403 C48.8987798,21.2348445 49.4700648,21.2866771 49.8926129,21.8219046 C50.265582,22.2974121 50.2858643,23.1965944 49.9647278,23.7228076 C49.6717611,24.2016954 48.9111746,24.4281811 48.3860882,24.1814131 C48.3241144,24.1521164 48.249746,24.060846 48.2486192,23.9966187 C48.2407316,23.1244795 48.244112,22.2512135 48.244112,21.3734403" id="Fill-5" sketch:type="MSShapeGroup"></path>
            </g>
        </g>
    </g>
</svg>