<?xml version="1.0" encoding="UTF-8" standalone="no"?>
<svg width="131px" height="120px" viewBox="0 0 131 120" version="1.1" xmlns="http://www.w3.org/2000/svg" xmlns:xlink="http://www.w3.org/1999/xlink" xmlns:sketch="http://www.bohemiancoding.com/sketch/ns">
    <!-- Generator: Sketch 3.3.2 (12043) - http://www.bohemiancoding.com/sketch -->
    <title>icon_small</title>
    <desc>Created with Sketch.</desc>
    <defs></defs>
    <g id="Page-1" stroke="none" stroke-width="1" fill="none" fill-rule="evenodd" sketch:type="MSPage">
        <g id="lantern_home_desktop" sketch:type="MSArtboardGroup" transform="translate(-630.000000, -1018.000000)" fill="#FFFFFF">
            <g id="icon_small" sketch:type="MSLayerGroup" transform="translate(630.000000, 1018.000000)">
                <path d="M112.656,36.6530909 C112.704,35.9432727 112.727273,35.2436364 112.727273,34.5454545 C112.727273,15.4967273 97.2305455,0 78.1818182,0 C63.8589091,0 51.0414545,9.04 45.9694545,22.1105455 C41.3861818,19.5534545 36.1876364,18.1818182 30.9090909,18.1818182 C13.8661818,18.1818182 0,32.048 0,49.0909091 C0,66.1338182 13.8661818,80 30.9090909,80 L54.5454545,80 L61.8181818,80 L61.8181818,107.585455 L46.208,91.9738182 C45.4967273,91.264 44.5672727,90.9090909 43.6363636,90.9090909 C42.7054545,90.9090909 41.776,91.264 41.0647273,91.9738182 C39.6436364,93.3949091 39.6436364,95.696 41.0647273,97.1156364 L62.8785455,118.930909 C63.0487273,119.101091 63.2378182,119.253818 63.44,119.387636 C63.5214545,119.441455 63.6087273,119.479273 63.6930909,119.524364 C63.8152727,119.594182 63.9345455,119.666909 64.0654545,119.720727 C64.1789091,119.768727 64.2981818,119.794909 64.4145455,119.829818 C64.5236364,119.861818 64.6298182,119.905455 64.7432727,119.927273 C64.9745455,119.972364 65.2087273,119.997091 65.4429091,119.997091 C65.4472727,119.998545 65.4516364,120 65.4545455,120 C65.6945455,120 65.9316364,119.973818 66.1672727,119.928727 C66.2734545,119.905455 66.3723636,119.866182 66.4741818,119.837091 C66.5992727,119.802182 66.7243636,119.773091 66.8450909,119.722182 C66.9672727,119.671273 67.0807273,119.601455 67.1956364,119.537455 C67.2872727,119.488 67.3832727,119.445818 67.4705455,119.389091 C67.6712727,119.253818 67.8589091,119.102545 68.0290909,118.932364 L89.8429091,97.1170909 C91.264,95.696 91.264,93.3949091 89.8429091,91.9752727 C88.4232727,90.5541818 86.1192727,90.5541818 84.7010909,91.9752727 L69.0909091,107.585455 L69.0909091,80 L109.090909,80 C121.121455,80 130.909091,70.2123636 130.909091,58.1818182 C130.909091,47.3643636 122.997818,38.3607273 112.656,36.6530909 L112.656,36.6530909 Z M109.090909,72.7272727 L30.9090909,72.7272727 C17.8763636,72.7272727 7.27272727,62.1221818 7.27272727,49.0909091 C7.27272727,36.0567273 17.8763636,25.4545455 30.9090909,25.4545455 C36.3578182,25.4545455 41.4836364,27.2669091 45.7323636,30.6967273 L50.3025455,34.384 L51.568,28.6487273 C54.2996364,16.2618182 65.4923636,7.27272727 78.1818182,7.27272727 C93.2203636,7.27272727 105.454545,19.5054545 105.454545,34.5454545 C105.454545,36.0770909 105.306182,37.6538182 105.000727,39.3614545 L104.237091,43.6363636 L109.090909,43.6363636 C117.111273,43.6363636 123.636364,50.1614545 123.636364,58.1818182 C123.636364,66.2021818 117.111273,72.7272727 109.090909,72.7272727 L109.090909,72.7272727 Z" id="Shape" sketch:type="MSShapeGroup"></path>
                <path d="M42.918,47.488 C42.498,47.488 42.176,47.782 42.176,48.202 C42.176,48.524 42.358,48.776 42.652,48.916 L47.258,51.086 L42.652,53.256 C42.358,53.382 42.176,53.62 42.176,53.942 C42.176,54.348 42.498,54.67 42.862,54.656 C43.03,54.656 43.156,54.614 43.296,54.544 L48.336,52.066 C48.77,51.87 49.022,51.548 49.022,51.128 L49.022,51.016 C49.022,50.596 48.77,50.274 48.336,50.078 L43.296,47.6 C43.184,47.544 43.044,47.488 42.918,47.488 L42.918,47.488 Z M58.388,56.168 C60.488,56.168 61.972,54.838 61.972,52.85 L61.972,52.822 C61.972,50.75 60.474,49.742 58.556,49.742 C57.898,49.742 57.464,49.854 57.002,50.022 L57.156,47.726 L60.838,47.726 C61.258,47.726 61.608,47.39 61.608,46.97 C61.608,46.55 61.258,46.2 60.838,46.2 L56.4,46.2 C55.98,46.2 55.644,46.522 55.616,46.97 L55.406,50.498 C55.392,50.82 55.49,51.072 55.742,51.254 C56.078,51.492 56.288,51.59 56.554,51.59 C56.82,51.59 57.282,51.254 58.234,51.254 C59.424,51.254 60.264,51.87 60.264,52.878 L60.264,52.906 C60.264,53.942 59.466,54.6 58.36,54.6 C57.59,54.6 56.904,54.32 56.232,53.774 C56.092,53.662 55.938,53.606 55.728,53.606 C55.28,53.606 54.902,53.984 54.902,54.432 C54.902,54.712 55.042,54.936 55.252,55.104 C56.05,55.72 57.058,56.168 58.388,56.168 L58.388,56.168 Z M64.058,55.23 C64.058,55.706 64.422,56.07 64.898,56.07 C65.374,56.07 65.752,55.706 65.752,55.23 L65.752,49.364 L68.132,52.934 C68.314,53.214 68.538,53.382 68.846,53.382 C69.168,53.382 69.392,53.214 69.574,52.934 L71.968,49.336 L71.968,55.216 C71.968,55.678 72.36,56.07 72.822,56.07 C73.312,56.07 73.69,55.692 73.69,55.216 L73.69,47.012 C73.69,46.536 73.312,46.144 72.822,46.144 L72.64,46.144 C72.29,46.144 72.038,46.298 71.856,46.592 L68.874,51.254 L65.906,46.606 C65.738,46.34 65.486,46.144 65.108,46.144 L64.926,46.144 C64.436,46.144 64.058,46.536 64.058,47.012 L64.058,55.23 Z M76.21,55.132 C76.21,55.622 76.588,56 77.078,56 L80.746,56 C82.93,56 84.372,55.062 84.372,53.312 L84.372,53.284 C84.372,51.954 83.574,51.296 82.426,50.904 C83.154,50.526 83.826,49.896 83.826,48.72 L83.826,48.692 C83.826,48.034 83.602,47.502 83.168,47.068 C82.608,46.508 81.726,46.2 80.606,46.2 L77.078,46.2 C76.588,46.2 76.21,46.578 76.21,47.068 L76.21,55.132 Z M77.904,50.33 L77.904,47.726 L80.382,47.726 C81.488,47.726 82.104,48.202 82.104,48.972 L82.104,49 C82.104,49.896 81.362,50.33 80.256,50.33 L77.904,50.33 Z M77.904,54.474 L77.904,51.786 L80.634,51.786 C81.992,51.786 82.65,52.276 82.65,53.102 L82.65,53.13 C82.65,54.012 81.936,54.474 80.76,54.474 L77.904,54.474 Z M86.668,52.472 C86.696,52.78 86.892,52.976 87.172,52.976 C87.452,52.976 87.662,52.78 87.69,52.472 L88.18,46.76 C88.208,46.424 87.998,46.158 87.676,46.158 L86.668,46.158 C86.346,46.158 86.15,46.424 86.178,46.76 L86.668,52.472 Z M86.178,54.964 L86.178,55.104 C86.178,55.65 86.612,56.07 87.172,56.07 C87.746,56.07 88.166,55.65 88.166,55.104 L88.166,54.964 C88.166,54.418 87.746,53.998 87.172,53.998 C86.612,53.998 86.178,54.418 86.178,54.964 L86.178,54.964 Z" id="&gt;-5MB!" sketch:type="MSShapeGroup"></path>
            </g>
        </g>
    </g>
</svg>