<?xml version="1.0" encoding="UTF-8" standalone="no"?>
<svg width="98px" height="98px" viewBox="0 0 98 98" version="1.1" xmlns="http://www.w3.org/2000/svg" xmlns:xlink="http://www.w3.org/1999/xlink" xmlns:sketch="http://www.bohemiancoding.com/sketch/ns">
    <!-- Generator: Sketch 3.3.2 (12043) - http://www.bohemiancoding.com/sketch -->
    <title>icon_userfriendly</title>
    <desc>Created with Sketch.</desc>
    <defs></defs>
    <g id="Page-1" stroke="none" stroke-width="1" fill="none" fill-rule="evenodd" sketch:type="MSPage">
        <g id="lantern_home_desktop" sketch:type="MSArtboardGroup" transform="translate(-381.000000, -1029.000000)" fill="#FFFFFF">
            <g id="icon_userfriendly" sketch:type="MSLayerGroup" transform="translate(379.909091, 1028.000000)">
                <path d="M50,98.9162791 C23.027907,98.9162791 1.08372093,76.972093 1.08372093,50 C1.08372093,23.027907 23.027907,1.08372093 50,1.08372093 C76.972093,1.08372093 98.9162791,23.027907 98.9162791,50 C98.9162791,76.972093 76.972093,98.9162791 50,98.9162791 L50,98.9162791 Z M50,6.89767442 C26.2337209,6.89767442 6.89767442,26.2337209 6.89767442,50 C6.89767442,73.7662791 26.2337209,93.1023256 50,93.1023256 C73.7662791,93.1023256 93.1023256,73.7662791 93.1023256,50 C93.1023256,26.2337209 73.7662791,6.89767442 50,6.89767442 L50,6.89767442 Z" id="Shape" sketch:type="MSShapeGroup"></path>
                <path d="M50,71.8848837 C40.7116279,71.8848837 31.4209302,68.3488372 24.3476744,61.277907 C23.4395349,60.3709302 23.4395349,58.8976744 24.3476744,57.9895349 C25.255814,57.0813953 26.727907,57.0813953 27.6360465,57.9895349 C39.9674419,70.3174419 60.0302326,70.3174419 72.3604651,57.9895349 C73.2686047,57.0813953 74.7406977,57.0813953 75.6488372,57.9895349 C76.5569767,58.8976744 76.5569767,60.3697674 75.6488372,61.277907 C68.5790698,68.3488372 59.2895349,71.8848837 50,71.8848837 L50,71.8848837 Z" id="Shape" sketch:type="MSShapeGroup"></path>
                <circle id="Oval" sketch:type="MSShapeGroup" cx="65.0616279" cy="38.1674419" r="3.83372093"></circle>
                <path d="M39.8825581,41.5755814 C39.2872093,41.5755814 38.6930233,41.3488372 38.2383721,40.894186 C37.2825581,39.9383721 36.0127907,39.4116279 34.6627907,39.4116279 C33.3139535,39.4116279 32.044186,39.9383721 31.0883721,40.894186 C30.1825581,41.8023256 28.7081395,41.8023256 27.8,40.894186 C26.8918605,39.9872093 26.8918605,38.5139535 27.8,37.605814 C29.6337209,35.7709302 32.072093,34.7604651 34.6627907,34.7604651 C37.2546512,34.7604651 39.6930233,35.7709302 41.5267442,37.605814 C42.4348837,38.5139535 42.4348837,39.9872093 41.5267442,40.894186 C41.072093,41.3488372 40.477907,41.5755814 39.8825581,41.5755814 L39.8825581,41.5755814 Z" id="Shape" sketch:type="MSShapeGroup"></path>
            </g>
        </g>
    </g>
</svg>